G04 Layer_Color=8388736*
%FSLAX43Y43*%
%MOMM*%
G71*
G01*
G75*
%ADD48R,3.203X1.803*%
%ADD49R,3.503X2.403*%
%ADD50R,1.703X1.203*%
%ADD51R,0.803X1.403*%
%ADD52R,2.703X3.703*%
%ADD53O,2.003X0.803*%
%ADD54O,1.753X0.553*%
%ADD55R,1.103X1.103*%
%ADD56R,1.103X1.103*%
%ADD57R,1.603X1.203*%
G04:AMPARAMS|DCode=58|XSize=2.403mm|YSize=0.803mm|CornerRadius=0.402mm|HoleSize=0mm|Usage=FLASHONLY|Rotation=180.000|XOffset=0mm|YOffset=0mm|HoleType=Round|Shape=RoundedRectangle|*
%AMROUNDEDRECTD58*
21,1,2.403,0.000,0,0,180.0*
21,1,1.600,0.803,0,0,180.0*
1,1,0.803,-0.800,0.000*
1,1,0.803,0.800,0.000*
1,1,0.803,0.800,0.000*
1,1,0.803,-0.800,0.000*
%
%ADD58ROUNDEDRECTD58*%
%ADD59R,5.203X5.203*%
%ADD60R,2.203X1.103*%
%ADD61R,1.103X2.203*%
%ADD62R,1.503X0.803*%
%ADD63R,2.853X1.953*%
%ADD64R,2.353X5.703*%
%ADD65C,1.803*%
%ADD66R,1.803X1.803*%
%ADD67R,1.703X1.703*%
%ADD68C,1.703*%
%ADD69C,3.203*%
%ADD70C,2.003*%
%ADD71R,2.003X2.003*%
%ADD72R,2.003X2.003*%
%ADD73C,0.903*%
D48*
X60700Y32950D02*
D03*
X65800D02*
D03*
D49*
X71050Y30325D02*
D03*
D50*
X74150Y31825D02*
D03*
Y28825D02*
D03*
Y30325D02*
D03*
D51*
X57225Y15500D02*
D03*
X56275Y17900D02*
D03*
X58175D02*
D03*
Y15500D02*
D03*
X56275D02*
D03*
D52*
X11175Y20275D02*
D03*
D53*
X8201Y22174D02*
D03*
Y20904D02*
D03*
Y19634D02*
D03*
Y18364D02*
D03*
X14145Y22174D02*
D03*
Y20904D02*
D03*
Y19634D02*
D03*
Y18364D02*
D03*
D54*
X27025Y11325D02*
D03*
Y11975D02*
D03*
Y12625D02*
D03*
Y13275D02*
D03*
X21275Y11325D02*
D03*
Y11975D02*
D03*
Y12625D02*
D03*
Y13275D02*
D03*
D55*
X30525Y26110D02*
D03*
Y24710D02*
D03*
X14825Y26700D02*
D03*
Y28200D02*
D03*
X11375Y31250D02*
D03*
Y32750D02*
D03*
X30250Y33075D02*
D03*
Y31575D02*
D03*
X28575Y33075D02*
D03*
Y31575D02*
D03*
X30200Y29920D02*
D03*
Y28520D02*
D03*
X28575Y28420D02*
D03*
Y29920D02*
D03*
X28850Y26110D02*
D03*
Y24710D02*
D03*
X27175D02*
D03*
Y26110D02*
D03*
X5998Y19425D02*
D03*
Y17925D02*
D03*
X5998Y20904D02*
D03*
Y22304D02*
D03*
X28275Y21550D02*
D03*
Y20050D02*
D03*
D56*
X13225Y31325D02*
D03*
X14625D02*
D03*
Y32750D02*
D03*
X13225D02*
D03*
X13200Y26700D02*
D03*
X11800D02*
D03*
X13200Y28200D02*
D03*
X11800D02*
D03*
X14775Y29725D02*
D03*
X13275D02*
D03*
X17275Y38800D02*
D03*
X18775D02*
D03*
X61500Y22950D02*
D03*
X62900D02*
D03*
X70100Y16475D02*
D03*
X68700D02*
D03*
X70100Y23320D02*
D03*
X68700D02*
D03*
X70100Y19900D02*
D03*
X68700D02*
D03*
X3050Y15125D02*
D03*
X1650D02*
D03*
X3050Y11075D02*
D03*
X1650D02*
D03*
Y13100D02*
D03*
X3050D02*
D03*
X16473Y20919D02*
D03*
X17873D02*
D03*
X16523Y19419D02*
D03*
X17923D02*
D03*
X24575Y16900D02*
D03*
X23175D02*
D03*
X28025Y16900D02*
D03*
X26625D02*
D03*
X21100D02*
D03*
X19600D02*
D03*
X57800Y19975D02*
D03*
X56300D02*
D03*
X57225Y13350D02*
D03*
X58725D02*
D03*
X62900Y15300D02*
D03*
X61500D02*
D03*
Y19925D02*
D03*
X62900D02*
D03*
X61400Y17662D02*
D03*
X62900D02*
D03*
D57*
X14925Y37200D02*
D03*
Y35300D02*
D03*
X12725Y36250D02*
D03*
D58*
X18825Y36570D02*
D03*
Y35300D02*
D03*
Y34030D02*
D03*
Y32760D02*
D03*
Y31490D02*
D03*
Y30220D02*
D03*
Y28950D02*
D03*
Y27680D02*
D03*
X24425D02*
D03*
Y28950D02*
D03*
Y30220D02*
D03*
Y31490D02*
D03*
Y32760D02*
D03*
Y34030D02*
D03*
Y35300D02*
D03*
Y36570D02*
D03*
D59*
X41190Y24960D02*
D03*
D60*
X33690Y32460D02*
D03*
Y31190D02*
D03*
Y29920D02*
D03*
Y28650D02*
D03*
Y27380D02*
D03*
Y26110D02*
D03*
Y15950D02*
D03*
Y17220D02*
D03*
Y18490D02*
D03*
Y19760D02*
D03*
Y21030D02*
D03*
Y22300D02*
D03*
Y23570D02*
D03*
Y24840D02*
D03*
X50690D02*
D03*
Y23570D02*
D03*
Y22300D02*
D03*
Y21030D02*
D03*
Y19760D02*
D03*
Y18490D02*
D03*
Y17220D02*
D03*
Y15950D02*
D03*
Y26110D02*
D03*
Y27380D02*
D03*
Y28650D02*
D03*
Y29920D02*
D03*
Y31190D02*
D03*
Y32460D02*
D03*
D61*
X42825Y14950D02*
D03*
X44095D02*
D03*
X45365D02*
D03*
X46635D02*
D03*
X47905D02*
D03*
X41555D02*
D03*
X40285D02*
D03*
X39015D02*
D03*
X37745D02*
D03*
X36475D02*
D03*
D62*
X23075Y21150D02*
D03*
Y19250D02*
D03*
X25775D02*
D03*
Y21150D02*
D03*
X23075Y20200D02*
D03*
X25775D02*
D03*
D63*
X70425Y36000D02*
D03*
X74725D02*
D03*
D64*
X78175Y31325D02*
D03*
X82025D02*
D03*
D65*
X84475Y26400D02*
D03*
Y21320D02*
D03*
Y18780D02*
D03*
Y11160D02*
D03*
Y13700D02*
D03*
Y16240D02*
D03*
Y23860D02*
D03*
X56200Y30155D02*
D03*
Y32695D02*
D03*
Y35235D02*
D03*
Y27615D02*
D03*
Y25075D02*
D03*
D66*
X84475Y8620D02*
D03*
X56200Y37775D02*
D03*
D67*
X15800Y7050D02*
D03*
X61580D02*
D03*
X25470D02*
D03*
X35540D02*
D03*
X72150D02*
D03*
X51510D02*
D03*
D68*
X13800D02*
D03*
X11800D02*
D03*
X9800D02*
D03*
X59580D02*
D03*
X23470D02*
D03*
X33540D02*
D03*
X70150D02*
D03*
X43510D02*
D03*
X45510D02*
D03*
X47510D02*
D03*
X49510D02*
D03*
D69*
X87000Y3000D02*
D03*
Y37000D02*
D03*
X3000D02*
D03*
Y3000D02*
D03*
D70*
X75995Y23325D02*
D03*
Y16475D02*
D03*
Y19900D02*
D03*
X7330Y13900D02*
D03*
X14130D02*
D03*
X88400Y26400D02*
D03*
Y23860D02*
D03*
Y21320D02*
D03*
Y18780D02*
D03*
Y16240D02*
D03*
Y13700D02*
D03*
Y11160D02*
D03*
Y28940D02*
D03*
Y8620D02*
D03*
X1750Y22810D02*
D03*
Y25350D02*
D03*
Y27890D02*
D03*
Y20270D02*
D03*
D71*
X73455Y23325D02*
D03*
Y16475D02*
D03*
Y19900D02*
D03*
X9870Y13900D02*
D03*
X16670D02*
D03*
D72*
X88400Y31480D02*
D03*
X1750Y30430D02*
D03*
D73*
X10725Y37141D02*
D03*
X11047Y34411D02*
D03*
X5868Y32619D02*
D03*
X3089Y32551D02*
D03*
X40475Y3988D02*
D03*
X16670Y10200D02*
D03*
X42300Y8050D02*
D03*
X52400Y31675D02*
D03*
X39500Y8850D02*
D03*
X41850Y12075D02*
D03*
X20625Y10275D02*
D03*
X19775Y11325D02*
D03*
X26240Y31490D02*
D03*
X26070Y28950D02*
D03*
X19325Y25450D02*
D03*
X66850Y14775D02*
D03*
X10175Y31250D02*
D03*
X10675Y28200D02*
D03*
Y26700D02*
D03*
X55250Y19975D02*
D03*
X65059Y26175D02*
D03*
X24925Y23400D02*
D03*
X27050Y9875D02*
D03*
X33690Y10725D02*
D03*
X57150Y7300D02*
D03*
X65309Y30075D02*
D03*
X62900Y13950D02*
D03*
X84167Y31325D02*
D03*
X81425Y22900D02*
D03*
X60225Y17662D02*
D03*
X23800Y26250D02*
D03*
X24900D02*
D03*
X22610Y30220D02*
D03*
X18325Y16900D02*
D03*
X27975Y15650D02*
D03*
Y5575D02*
D03*
X28850Y14300D02*
D03*
X27150Y21550D02*
D03*
X28850Y4675D02*
D03*
X10200Y32750D02*
D03*
X25450Y12300D02*
D03*
X21750Y19250D02*
D03*
Y21150D02*
D03*
X22138Y16900D02*
D03*
X15750Y24483D02*
D03*
Y17975D02*
D03*
X4925Y19425D02*
D03*
X4123Y13100D02*
D03*
X4925Y22304D02*
D03*
X80275Y2875D02*
D03*
X39475Y4467D02*
D03*
X38485Y4975D02*
D03*
X29671Y2529D02*
D03*
X31960Y23570D02*
D03*
X30425Y3750D02*
D03*
X31800Y2700D02*
D03*
X79500Y3750D02*
D03*
X31960Y3790D02*
D03*
Y18490D02*
D03*
X81050Y4575D02*
D03*
X33690Y14675D02*
D03*
X31960Y24840D02*
D03*
Y22300D02*
D03*
X81850Y5425D02*
D03*
X35800Y10725D02*
D03*
Y17220D02*
D03*
X38920Y12225D02*
D03*
X40285Y13125D02*
D03*
X82625Y6375D02*
D03*
X41555Y13125D02*
D03*
X20640Y31490D02*
D03*
X16000Y38800D02*
D03*
X27175Y27325D02*
D03*
X31530Y31565D02*
D03*
Y28520D02*
D03*
X71300Y21925D02*
D03*
X82625Y25120D02*
D03*
Y22925D02*
D03*
X75750Y13500D02*
D03*
Y10825D02*
D03*
X46635Y10440D02*
D03*
Y13340D02*
D03*
X57225Y14375D02*
D03*
X52325Y15950D02*
D03*
X58975Y19975D02*
D03*
X60325Y22950D02*
D03*
X52750Y24625D02*
D03*
X53550Y25400D02*
D03*
X43000Y23150D02*
D03*
X41190D02*
D03*
X39380D02*
D03*
X43000Y26770D02*
D03*
X39380D02*
D03*
X41190D02*
D03*
X39380Y24960D02*
D03*
X43000D02*
D03*
X41190D02*
D03*
X36520Y27380D02*
D03*
Y28650D02*
D03*
X60700Y31000D02*
D03*
X75625Y28825D02*
D03*
X52855Y30700D02*
D03*
X36520Y29920D02*
D03*
X27125Y33075D02*
D03*
M02*
