M48
;Layer_Color=9474304
;FILE_FORMAT=4:3
METRIC,LZ
;TYPE=PLATED
T2F00S00C0.300
T3F00S00C0.800
T4F00S00C1.100
;TYPE=NON_PLATED
T1F00S00C3.000
%
T02
X0080275Y0002875
X00795Y000375
X008105Y0004575
X0040475Y0003988
X0039475Y0004467
X0038485Y0004975
X003196Y000379
X00318Y00027
X0030425Y000375
X0029671Y0002529
X002885Y0004675
X0027975Y0005575
X002705Y0009875
X002545Y00123
X002885Y00143
X0027975Y001565
X002715Y002155
X0024925Y00234
X00249Y002625
X00238
X0027175Y0027325
X002607Y002895
X002624Y003149
X0027125Y0033075
X002261Y003022
X002064Y003149
X0019325Y002545
X001575Y0024483
Y0017975
X0018325Y00169
X0022138
X002175Y001925
Y002115
X0019775Y0011325
X0020625Y0010275
X001667Y00102
X0004123Y00131
X0004925Y0019425
X0004925Y0022304
X0010675Y00267
Y00282
X0010175Y003125
X00102Y003275
X0011047Y0034411
X0010725Y0037141
X0016Y00388
X0005868Y0032619
X0003089Y0032551
X003153Y0031565
Y002852
X003196Y002484
Y002357
Y00223
Y001849
X00358Y001722
X003369Y0014675
Y0010725
X00358
X003892Y0012225
X0040285Y0013125
X0041555
X004185Y0012075
X00423Y000805
X00395Y000885
X0046635Y001044
Y001334
X0052325Y001595
X0057225Y0014375
X00629Y001395
X006685Y0014775
X0060225Y0017662
X0058975Y0019975
X005525
X005355Y00254
X005275Y0024625
X0052855Y00307
X00524Y0031675
X00607Y0031
X0065309Y0030075
X0065059Y0026175
X0060325Y002295
X0043Y002315
X004119
X003938
Y002496
Y002677
X004119
X0043
Y002496
X004119
X003652Y002738
Y002865
Y002992
X005715Y00073
X007575Y0010825
Y00135
X00713Y0021925
X0081425Y00229
X0082625Y0022925
Y002512
X0084167Y0031325
X0075625Y0028825
X0082625Y0006375
X008185Y0005425
T03
X00098Y000705
X00118
X00138
X00158
X002347
X002547
X003354
X003554
X004351
X004551
X004751
X004951
X005151
X005958
X006158
X007015
X007215
T04
X000733Y00139
X000987
X001413
X001667
X000175Y002027
Y002281
Y002535
Y002789
Y003043
X00562Y0030155
Y0032695
Y0035235
Y0037775
Y0027615
Y0025075
X0073455Y0023325
X0075995
Y00199
X0073455
Y0016475
X0075995
X0084475Y001624
Y001878
Y002132
Y002386
Y00264
X00884
Y002386
Y002132
Y001878
Y001624
Y00137
Y001116
Y000862
X0084475
Y001116
Y00137
X00884Y002894
Y003148
T01
X0087Y0003
X0003
Y0037
X0087
M30
