G04 Layer_Color=8421504*
%FSLAX43Y43*%
%MOMM*%
G71*
G01*
G75*
%ADD10R,3.000X1.600*%
%ADD11R,3.300X2.200*%
%ADD12R,1.500X1.000*%
%ADD13R,0.600X1.200*%
%ADD14R,2.500X3.500*%
%ADD15O,1.800X0.600*%
%ADD16O,1.550X0.350*%
%ADD17R,0.900X0.900*%
%ADD18R,0.900X0.900*%
%ADD19R,1.400X1.000*%
G04:AMPARAMS|DCode=20|XSize=2.2mm|YSize=0.6mm|CornerRadius=0.3mm|HoleSize=0mm|Usage=FLASHONLY|Rotation=180.000|XOffset=0mm|YOffset=0mm|HoleType=Round|Shape=RoundedRectangle|*
%AMROUNDEDRECTD20*
21,1,2.200,0.000,0,0,180.0*
21,1,1.600,0.600,0,0,180.0*
1,1,0.600,-0.800,0.000*
1,1,0.600,0.800,0.000*
1,1,0.600,0.800,0.000*
1,1,0.600,-0.800,0.000*
%
%ADD20ROUNDEDRECTD20*%
%ADD21R,5.000X5.000*%
%ADD22R,2.000X0.900*%
%ADD23R,0.900X2.000*%
%ADD24R,1.300X0.600*%
%ADD25R,2.650X1.750*%
%ADD26R,2.150X5.500*%
D10*
X60700Y32950D02*
D03*
X65800D02*
D03*
D11*
X71050Y30325D02*
D03*
D12*
X74150Y31825D02*
D03*
Y28825D02*
D03*
Y30325D02*
D03*
D13*
X57225Y15500D02*
D03*
X56275Y17900D02*
D03*
X58175D02*
D03*
Y15500D02*
D03*
X56275D02*
D03*
D14*
X11175Y20275D02*
D03*
D15*
X8201Y22174D02*
D03*
Y20904D02*
D03*
Y19634D02*
D03*
Y18364D02*
D03*
X14145Y22174D02*
D03*
Y20904D02*
D03*
Y19634D02*
D03*
Y18364D02*
D03*
D16*
X27025Y11325D02*
D03*
Y11975D02*
D03*
Y12625D02*
D03*
Y13275D02*
D03*
X21275Y11325D02*
D03*
Y11975D02*
D03*
Y12625D02*
D03*
Y13275D02*
D03*
D17*
X30525Y26110D02*
D03*
Y24710D02*
D03*
X14825Y26700D02*
D03*
Y28200D02*
D03*
X11375Y31250D02*
D03*
Y32750D02*
D03*
X30250Y33075D02*
D03*
Y31575D02*
D03*
X28575Y33075D02*
D03*
Y31575D02*
D03*
X30200Y29920D02*
D03*
Y28520D02*
D03*
X28575Y28420D02*
D03*
Y29920D02*
D03*
X28850Y26110D02*
D03*
Y24710D02*
D03*
X27175D02*
D03*
Y26110D02*
D03*
X5998Y19425D02*
D03*
Y17925D02*
D03*
X5998Y20904D02*
D03*
Y22304D02*
D03*
X28275Y21550D02*
D03*
Y20050D02*
D03*
D18*
X13225Y31325D02*
D03*
X14625D02*
D03*
Y32750D02*
D03*
X13225D02*
D03*
X13200Y26700D02*
D03*
X11800D02*
D03*
X13200Y28200D02*
D03*
X11800D02*
D03*
X14775Y29725D02*
D03*
X13275D02*
D03*
X17275Y38800D02*
D03*
X18775D02*
D03*
X61500Y22950D02*
D03*
X62900D02*
D03*
X70100Y16475D02*
D03*
X68700D02*
D03*
X70100Y23320D02*
D03*
X68700D02*
D03*
X70100Y19900D02*
D03*
X68700D02*
D03*
X3050Y15125D02*
D03*
X1650D02*
D03*
X3050Y11075D02*
D03*
X1650D02*
D03*
Y13100D02*
D03*
X3050D02*
D03*
X16473Y20919D02*
D03*
X17873D02*
D03*
X16523Y19419D02*
D03*
X17923D02*
D03*
X24575Y16900D02*
D03*
X23175D02*
D03*
X28025Y16900D02*
D03*
X26625D02*
D03*
X21100D02*
D03*
X19600D02*
D03*
X57800Y19975D02*
D03*
X56300D02*
D03*
X57225Y13350D02*
D03*
X58725D02*
D03*
X62900Y15300D02*
D03*
X61500D02*
D03*
Y19925D02*
D03*
X62900D02*
D03*
X61400Y17662D02*
D03*
X62900D02*
D03*
D19*
X14925Y37200D02*
D03*
Y35300D02*
D03*
X12725Y36250D02*
D03*
D20*
X18825Y36570D02*
D03*
Y35300D02*
D03*
Y34030D02*
D03*
Y32760D02*
D03*
Y31490D02*
D03*
Y30220D02*
D03*
Y28950D02*
D03*
Y27680D02*
D03*
X24425D02*
D03*
Y28950D02*
D03*
Y30220D02*
D03*
Y31490D02*
D03*
Y32760D02*
D03*
Y34030D02*
D03*
Y35300D02*
D03*
Y36570D02*
D03*
D21*
X41190Y24960D02*
D03*
D22*
X33690Y32460D02*
D03*
Y31190D02*
D03*
Y29920D02*
D03*
Y28650D02*
D03*
Y27380D02*
D03*
Y26110D02*
D03*
Y15950D02*
D03*
Y17220D02*
D03*
Y18490D02*
D03*
Y19760D02*
D03*
Y21030D02*
D03*
Y22300D02*
D03*
Y23570D02*
D03*
Y24840D02*
D03*
X50690D02*
D03*
Y23570D02*
D03*
Y22300D02*
D03*
Y21030D02*
D03*
Y19760D02*
D03*
Y18490D02*
D03*
Y17220D02*
D03*
Y15950D02*
D03*
Y26110D02*
D03*
Y27380D02*
D03*
Y28650D02*
D03*
Y29920D02*
D03*
Y31190D02*
D03*
Y32460D02*
D03*
D23*
X42825Y14950D02*
D03*
X44095D02*
D03*
X45365D02*
D03*
X46635D02*
D03*
X47905D02*
D03*
X41555D02*
D03*
X40285D02*
D03*
X39015D02*
D03*
X37745D02*
D03*
X36475D02*
D03*
D24*
X23075Y21150D02*
D03*
Y19250D02*
D03*
X25775D02*
D03*
Y21150D02*
D03*
X23075Y20200D02*
D03*
X25775D02*
D03*
D25*
X70425Y36000D02*
D03*
X74725D02*
D03*
D26*
X78175Y31325D02*
D03*
X82025D02*
D03*
M02*
