G04 Layer_Color=16711935*
%FSLAX43Y43*%
%MOMM*%
G71*
G01*
G75*
%ADD43C,0.200*%
%ADD45C,0.100*%
%ADD74C,0.150*%
D43*
X59750Y31700D02*
Y34200D01*
X66750Y31700D02*
Y34200D01*
X51190Y14460D02*
Y39960D01*
X33190Y14460D02*
Y39960D01*
Y14460D02*
X51190D01*
D45*
X10675Y21775D02*
G03*
X10675Y21775I-500J0D01*
G01*
X23350Y12925D02*
G03*
X23350Y12925I-500J0D01*
G01*
X21350Y36400D02*
G03*
X21350Y36400I-500J0D01*
G01*
X7850Y8650D02*
X17750D01*
Y1050D02*
Y8650D01*
X7850Y1050D02*
X17750D01*
X7850D02*
Y8650D01*
X13125Y17825D02*
Y22725D01*
X9225D02*
X13125D01*
X9225Y17825D02*
X13125D01*
X9225D02*
Y22725D01*
X26350Y10830D02*
Y13770D01*
X21950D02*
X26350D01*
X21950Y10830D02*
X26350D01*
X21950D02*
Y13770D01*
X57630Y8650D02*
X63530D01*
X57630Y1050D02*
Y8650D01*
X63530Y1050D02*
Y8650D01*
X57630Y1050D02*
X63530D01*
X21520D02*
X27420D01*
Y8650D01*
X21520Y1050D02*
Y8650D01*
X27420D01*
X31590Y1050D02*
X37490D01*
Y8650D01*
X31590Y1050D02*
Y8650D01*
X37490D01*
X68200D02*
X74100D01*
X68200Y1050D02*
Y8650D01*
X74100Y1050D02*
Y8650D01*
X68200Y1050D02*
X74100D01*
X41560D02*
Y8650D01*
Y1050D02*
X53460D01*
Y8650D01*
X41560D02*
X53460D01*
X14350Y26600D02*
Y28300D01*
X15300D01*
X14350Y26600D02*
X15300D01*
Y28300D01*
X14968Y34599D02*
Y37901D01*
X12428D02*
X14968D01*
X12428Y34599D02*
Y37901D01*
Y34599D02*
X14968D01*
X19625Y37125D02*
X23625D01*
Y27125D02*
Y37125D01*
X19625Y27125D02*
Y37125D01*
Y27125D02*
X23625D01*
X13175Y29250D02*
X14875D01*
X13175D02*
Y30200D01*
X14875Y29250D02*
Y30200D01*
X13175D02*
X14875D01*
X17175Y39275D02*
X18875D01*
Y38325D02*
Y39275D01*
X17175Y38325D02*
Y39275D01*
Y38325D02*
X18875D01*
X10900Y31150D02*
Y32850D01*
X11850D01*
X10900Y31150D02*
X11850D01*
Y32850D01*
X30725Y31475D02*
Y33175D01*
X29775Y31475D02*
X30725D01*
X29775Y33175D02*
X30725D01*
X29775Y31475D02*
Y33175D01*
X29050Y31475D02*
Y33175D01*
X28100Y31475D02*
X29050D01*
X28100Y33175D02*
X29050D01*
X28100Y31475D02*
Y33175D01*
Y28320D02*
Y30020D01*
X29050D01*
X28100Y28320D02*
X29050D01*
Y30020D01*
X6473Y17825D02*
Y19525D01*
X5523Y17825D02*
X6473D01*
X5523Y19525D02*
X6473D01*
X5523Y17825D02*
Y19525D01*
X25300Y18675D02*
Y21725D01*
X23550Y18675D02*
X25300D01*
X23550Y21725D02*
X25300D01*
X23550Y18675D02*
Y21725D01*
X28750Y19950D02*
Y21650D01*
X27800Y19950D02*
X28750D01*
X27800Y21650D02*
X28750D01*
X27800Y19950D02*
Y21650D01*
X19500Y16425D02*
X21200D01*
X19500D02*
Y17375D01*
X21200Y16425D02*
Y17375D01*
X19500D02*
X21200D01*
X56200Y19500D02*
X57900D01*
X56200D02*
Y20450D01*
X57900Y19500D02*
Y20450D01*
X56200D02*
X57900D01*
X57125Y13825D02*
X58825D01*
Y12875D02*
Y13825D01*
X57125Y12875D02*
Y13825D01*
Y12875D02*
X58825D01*
X61300Y18137D02*
X63000D01*
Y17187D02*
Y18137D01*
X61300Y17187D02*
Y18137D01*
Y17187D02*
X63000D01*
D74*
X55725Y17950D02*
X58725D01*
Y15450D02*
Y17950D01*
X55725Y15450D02*
X58725D01*
X55725D02*
Y17950D01*
M02*
