G04 Layer_Physical_Order=1*
G04 Layer_Color=255*
%FSLAX43Y43*%
%MOMM*%
G71*
G01*
G75*
%ADD10R,3.000X1.600*%
%ADD11R,3.300X2.200*%
%ADD12R,1.500X1.000*%
%ADD13R,0.600X1.200*%
%ADD14R,2.500X3.500*%
%ADD15O,1.800X0.600*%
%ADD16O,1.550X0.350*%
%ADD17R,0.900X0.900*%
%ADD18R,0.900X0.900*%
%ADD19R,1.400X1.000*%
G04:AMPARAMS|DCode=20|XSize=2.2mm|YSize=0.6mm|CornerRadius=0.3mm|HoleSize=0mm|Usage=FLASHONLY|Rotation=180.000|XOffset=0mm|YOffset=0mm|HoleType=Round|Shape=RoundedRectangle|*
%AMROUNDEDRECTD20*
21,1,2.200,0.000,0,0,180.0*
21,1,1.600,0.600,0,0,180.0*
1,1,0.600,-0.800,0.000*
1,1,0.600,0.800,0.000*
1,1,0.600,0.800,0.000*
1,1,0.600,-0.800,0.000*
%
%ADD20ROUNDEDRECTD20*%
%ADD21R,5.000X5.000*%
%ADD22R,2.000X0.900*%
%ADD23R,0.900X2.000*%
%ADD24R,1.300X0.600*%
%ADD25R,2.650X1.750*%
%ADD26R,2.150X5.500*%
%ADD27C,0.600*%
%ADD28C,0.300*%
%ADD29C,0.400*%
%ADD30C,0.700*%
%ADD31C,0.500*%
%ADD32C,1.000*%
%ADD33C,1.600*%
%ADD34R,1.600X1.600*%
%ADD35R,1.500X1.500*%
%ADD36C,1.500*%
%ADD37C,3.000*%
%ADD38C,1.800*%
%ADD39R,1.800X1.800*%
%ADD40R,1.800X1.800*%
%ADD41C,0.700*%
G36*
X60690Y19115D02*
X60855Y19004D01*
X61050Y18966D01*
X61950D01*
X62045Y18985D01*
X62144Y18904D01*
Y18509D01*
X62090Y18473D01*
X61979Y18307D01*
X61940Y18112D01*
Y17212D01*
X61979Y17017D01*
X62090Y16852D01*
X62255Y16741D01*
X62450Y16703D01*
X63350D01*
X63545Y16741D01*
X63706Y16849D01*
X66036Y14519D01*
X66108Y14346D01*
X66244Y14169D01*
X66421Y14033D01*
X66628Y13947D01*
X66850Y13918D01*
X67072Y13947D01*
X67245Y14019D01*
X73711D01*
X73764Y13892D01*
X72803Y12931D01*
X59685D01*
Y13800D01*
X59646Y13995D01*
X59535Y14160D01*
X59370Y14271D01*
X59323Y14280D01*
X59293Y14353D01*
X59189Y14489D01*
X58950Y14727D01*
X58974Y14844D01*
X59495D01*
X59503Y14836D01*
X59639Y14732D01*
X59797Y14667D01*
X59967Y14644D01*
X60586D01*
X60690Y14490D01*
X60855Y14379D01*
X61050Y14340D01*
X61950D01*
X62043Y14264D01*
Y13950D01*
X62072Y13728D01*
X62158Y13521D01*
X62294Y13344D01*
X62471Y13208D01*
X62678Y13122D01*
X62900Y13093D01*
X63122Y13122D01*
X63329Y13208D01*
X63506Y13344D01*
X63642Y13521D01*
X63728Y13728D01*
X63757Y13950D01*
Y14560D01*
X63821Y14655D01*
X63860Y14850D01*
Y15750D01*
X63821Y15945D01*
X63710Y16110D01*
X63545Y16221D01*
X63350Y16260D01*
X62450D01*
X62255Y16221D01*
X62200Y16184D01*
X62145Y16221D01*
X61950Y16260D01*
X61050D01*
X60855Y16221D01*
X60690Y16110D01*
X60586Y15956D01*
X60238D01*
X60230Y15964D01*
X60230Y15964D01*
X60127Y16067D01*
Y16966D01*
X60225Y17047D01*
X60225Y17046D01*
X60461Y17093D01*
X60660Y17227D01*
X60784Y17412D01*
X60225D01*
Y17912D01*
X60784D01*
X60660Y18098D01*
X60461Y18231D01*
X60225Y18278D01*
X60225Y18278D01*
X60127Y18359D01*
Y18974D01*
X60422Y19270D01*
X60586D01*
X60690Y19115D01*
D02*
G37*
G36*
X20922Y21393D02*
X20921Y21367D01*
X20893Y21150D01*
X20922Y20928D01*
X21001Y20736D01*
X20906Y20664D01*
X20336Y20094D01*
X20232Y19958D01*
X20167Y19800D01*
X20144Y19630D01*
Y18575D01*
X20167Y18405D01*
X20232Y18247D01*
X20336Y18111D01*
X20886Y17561D01*
X21022Y17457D01*
X21180Y17392D01*
X21350Y17369D01*
X21572D01*
X21640Y17242D01*
X21578Y17150D01*
X22138D01*
Y16650D01*
X21578D01*
X21656Y16533D01*
X21588Y16406D01*
X20596D01*
X20560Y16450D01*
Y17350D01*
X20521Y17545D01*
X20410Y17710D01*
X20245Y17821D01*
X20050Y17860D01*
X19317D01*
X19264Y17987D01*
X19489Y18211D01*
X19593Y18347D01*
X19658Y18505D01*
X19681Y18675D01*
Y20725D01*
X19658Y20895D01*
X19593Y21053D01*
X19489Y21189D01*
X19310Y21367D01*
X19321Y21429D01*
X19358Y21494D01*
X20844D01*
X20922Y21393D01*
D02*
G37*
G36*
X3169Y21999D02*
Y21646D01*
X3143Y21583D01*
X3119Y21400D01*
Y18225D01*
Y17175D01*
X3143Y16992D01*
X3214Y16822D01*
X3326Y16676D01*
X3976Y16025D01*
X3929Y15893D01*
X3891Y15889D01*
X3860Y15935D01*
X3695Y16046D01*
X3500Y16085D01*
X2600D01*
X2405Y16046D01*
X2350Y16009D01*
X2295Y16046D01*
X2100Y16085D01*
X1200D01*
X1005Y16046D01*
X840Y15935D01*
X729Y15770D01*
X690Y15575D01*
Y14675D01*
X729Y14480D01*
X840Y14315D01*
X894Y14278D01*
Y13947D01*
X840Y13910D01*
X729Y13745D01*
X690Y13550D01*
Y12650D01*
X729Y12455D01*
X840Y12290D01*
X894Y12253D01*
Y11922D01*
X840Y11885D01*
X729Y11720D01*
X690Y11525D01*
Y10625D01*
X729Y10430D01*
X840Y10265D01*
X1005Y10154D01*
X1200Y10115D01*
X2100D01*
X2295Y10154D01*
X2350Y10191D01*
X2405Y10154D01*
X2600Y10115D01*
X3500D01*
X3695Y10154D01*
X3860Y10265D01*
X3964Y10419D01*
X15745D01*
X15829Y10324D01*
X15813Y10200D01*
X15842Y9978D01*
X15928Y9771D01*
X16064Y9594D01*
X16241Y9458D01*
X16448Y9372D01*
X16670Y9343D01*
X16892Y9372D01*
X17099Y9458D01*
X17146Y9494D01*
X18332D01*
X21275Y6551D01*
X21422Y6439D01*
X21592Y6368D01*
X21775Y6344D01*
X22436D01*
X22578Y6158D01*
X22840Y5958D01*
X23144Y5832D01*
X23470Y5789D01*
X23796Y5832D01*
X24100Y5958D01*
X24362Y6158D01*
X24368Y6167D01*
X24515Y6150D01*
X24537Y6117D01*
X24621Y6061D01*
X24720Y6041D01*
X25220D01*
Y7050D01*
Y8059D01*
X24720D01*
X24621Y8039D01*
X24537Y7983D01*
X24515Y7950D01*
X24368Y7933D01*
X24362Y7942D01*
X24100Y8142D01*
X23918Y8217D01*
X23943Y8344D01*
X33067D01*
X33092Y8217D01*
X32910Y8142D01*
X32648Y7942D01*
X32448Y7680D01*
X32322Y7376D01*
X32279Y7050D01*
X32322Y6724D01*
X32432Y6458D01*
X32370Y6331D01*
X28370D01*
X28197Y6403D01*
X27975Y6432D01*
X27753Y6403D01*
X27546Y6317D01*
X27369Y6181D01*
X27233Y6004D01*
X27147Y5797D01*
X27118Y5575D01*
X27147Y5353D01*
X27233Y5146D01*
X27369Y4969D01*
X27546Y4833D01*
X27753Y4747D01*
X27872Y4731D01*
X27993Y4675D01*
X28022Y4453D01*
X28108Y4246D01*
X28244Y4069D01*
X28421Y3933D01*
X28628Y3847D01*
X28850Y3818D01*
X29072Y3847D01*
X29245Y3919D01*
X29494D01*
X29577Y3823D01*
X29568Y3750D01*
X29597Y3528D01*
X29616Y3481D01*
X29553Y3371D01*
X29449Y3357D01*
X29242Y3271D01*
X29065Y3135D01*
X28929Y2958D01*
X28843Y2751D01*
X28814Y2529D01*
X28843Y2307D01*
X28929Y2100D01*
X29065Y1923D01*
X29242Y1787D01*
X29449Y1701D01*
X29591Y1682D01*
X30656Y617D01*
X30607Y500D01*
X7084D01*
X6968Y500D01*
X6753Y589D01*
X6589Y753D01*
X6500Y968D01*
X6500Y1084D01*
X6500Y2821D01*
X6492Y3061D01*
X6430Y3537D01*
X6305Y4001D01*
X6122Y4444D01*
X6085Y4508D01*
X6063Y4561D01*
X5915Y4803D01*
X5882Y4860D01*
X5872Y4873D01*
X5781Y5021D01*
X5431Y5431D01*
X5021Y5781D01*
X4561Y6063D01*
X4483Y6095D01*
X4454Y6112D01*
X4010Y6296D01*
X3547Y6420D01*
X3071Y6483D01*
X2831Y6490D01*
X2831Y6490D01*
X2831Y6490D01*
X1500Y6490D01*
X1402Y6490D01*
X1208Y6529D01*
X1026Y6604D01*
X863Y6714D01*
X723Y6853D01*
X614Y7017D01*
X538Y7199D01*
X500Y7392D01*
X500Y7490D01*
Y19952D01*
X626Y19969D01*
X742Y19688D01*
X927Y19447D01*
X1168Y19262D01*
X1449Y19146D01*
X1500Y19139D01*
Y20270D01*
X1750D01*
Y20520D01*
X2881D01*
X2874Y20571D01*
X2758Y20852D01*
X2573Y21093D01*
X2332Y21278D01*
X2187Y21338D01*
Y21476D01*
X2456Y21587D01*
X2748Y21812D01*
X2955Y22081D01*
X3070Y22089D01*
X3169Y21999D01*
D02*
G37*
G36*
X58656Y20488D02*
X58540Y20410D01*
X58416Y20225D01*
X58975D01*
Y19725D01*
X58416D01*
X58540Y19540D01*
X58739Y19406D01*
X58834Y19387D01*
X58815Y19246D01*
Y19009D01*
X58703Y18949D01*
X58670Y18971D01*
X58475Y19010D01*
X57875D01*
X57680Y18971D01*
X57515Y18861D01*
X57404Y18695D01*
X57365Y18500D01*
Y17331D01*
X57085D01*
Y18500D01*
X57082Y18515D01*
Y19145D01*
X57110Y19165D01*
X57221Y19330D01*
X57260Y19525D01*
Y20425D01*
X57241Y20517D01*
X57322Y20615D01*
X58618D01*
X58656Y20488D01*
D02*
G37*
G36*
X55468Y18931D02*
Y18515D01*
X55465Y18500D01*
Y17300D01*
X55504Y17105D01*
X55615Y16940D01*
X55703Y16881D01*
X55738Y16719D01*
X55737Y16717D01*
X55707Y16678D01*
X55642Y16520D01*
X55636Y16475D01*
X55615Y16461D01*
X55504Y16295D01*
X55465Y16100D01*
Y14900D01*
X55504Y14705D01*
X55615Y14540D01*
X55780Y14429D01*
X55975Y14390D01*
X56487D01*
X56609Y14375D01*
X56656Y14139D01*
X56790Y13940D01*
X56975Y13816D01*
Y14375D01*
X57475D01*
Y13816D01*
X57660Y13940D01*
X57665Y13946D01*
X57784Y13896D01*
X57765Y13800D01*
Y12931D01*
X56577D01*
X55256Y14252D01*
Y18950D01*
X55348Y19041D01*
X55468Y18931D01*
D02*
G37*
G36*
X85517Y-7054D02*
X85539Y-7058D01*
X85562Y-7064D01*
X85591Y-7071D01*
X85621Y-7083D01*
X85650Y-7099D01*
X85574Y-7313D01*
X85572Y-7311D01*
X85564Y-7307D01*
X85550Y-7300D01*
X85537Y-7292D01*
X85517Y-7286D01*
X85498Y-7278D01*
X85478Y-7274D01*
X85457Y-7272D01*
X85449D01*
X85439Y-7274D01*
X85427Y-7276D01*
X85414Y-7280D01*
X85398Y-7284D01*
X85383Y-7292D01*
X85369Y-7302D01*
X85367Y-7304D01*
X85363Y-7307D01*
X85357Y-7315D01*
X85349Y-7325D01*
X85340Y-7339D01*
X85330Y-7358D01*
X85320Y-7380D01*
X85312Y-7405D01*
Y-7409D01*
X85310Y-7413D01*
X85308Y-7421D01*
Y-7428D01*
X85306Y-7440D01*
X85305Y-7456D01*
X85303Y-7471D01*
X85301Y-7491D01*
X85299Y-7512D01*
X85297Y-7538D01*
Y-7567D01*
X85295Y-7598D01*
X85293Y-7633D01*
Y-7672D01*
Y-7715D01*
Y-8000D01*
X85047D01*
Y-7071D01*
X85275D01*
Y-7202D01*
X85277Y-7200D01*
X85285Y-7188D01*
X85297Y-7173D01*
X85310Y-7153D01*
X85326Y-7132D01*
X85344Y-7112D01*
X85363Y-7095D01*
X85381Y-7081D01*
X85383Y-7079D01*
X85388Y-7077D01*
X85398Y-7071D01*
X85412Y-7066D01*
X85427Y-7062D01*
X85445Y-7056D01*
X85464Y-7054D01*
X85486Y-7052D01*
X85500D01*
X85517Y-7054D01*
D02*
G37*
G36*
X4369Y13796D02*
X4242Y13692D01*
X4123Y13716D01*
X3887Y13669D01*
X3688Y13535D01*
X3564Y13350D01*
X4123D01*
Y13100D01*
X4369D01*
Y12850D01*
X4373Y12819D01*
Y12527D01*
X4462Y12500D01*
X4464Y12497D01*
X4576Y12351D01*
X5079Y11848D01*
X5030Y11731D01*
X3964D01*
X3860Y11885D01*
X3695Y11996D01*
X3500Y12035D01*
X2600D01*
X2505Y12016D01*
X2406Y12096D01*
Y12253D01*
X2460Y12290D01*
X2571Y12455D01*
X2610Y12650D01*
Y13550D01*
X2571Y13745D01*
X2460Y13910D01*
X2406Y13947D01*
Y14104D01*
X2505Y14184D01*
X2600Y14165D01*
X3500D01*
X3695Y14204D01*
X3860Y14315D01*
X3930Y14419D01*
X4369D01*
Y13796D01*
D02*
G37*
G36*
X31610Y19379D02*
X31585Y19255D01*
X31531Y19232D01*
X31354Y19096D01*
X31217Y18919D01*
X31132Y18712D01*
X31103Y18490D01*
X31132Y18268D01*
X31217Y18061D01*
X31354Y17884D01*
X31531Y17748D01*
X31738Y17662D01*
X31960Y17633D01*
X32085Y17649D01*
X32180Y17565D01*
Y16770D01*
X32217Y16585D01*
X32180Y16400D01*
Y15500D01*
X32219Y15305D01*
X32329Y15140D01*
X32495Y15029D01*
X32690Y14990D01*
X32780D01*
X32857Y14863D01*
X32833Y14675D01*
X32862Y14453D01*
X32947Y14246D01*
X33084Y14069D01*
X33261Y13933D01*
X33468Y13847D01*
X33690Y13818D01*
X33912Y13847D01*
X34119Y13933D01*
X34296Y14069D01*
X34432Y14246D01*
X34518Y14453D01*
X34547Y14675D01*
X34523Y14863D01*
X34600Y14990D01*
X34690D01*
X34885Y15029D01*
X35050Y15140D01*
X35161Y15305D01*
X35200Y15500D01*
Y16400D01*
X35252Y16464D01*
X35405D01*
X35578Y16392D01*
X35629Y16257D01*
X35554Y16145D01*
X35515Y15950D01*
Y13950D01*
X35554Y13755D01*
X35664Y13590D01*
X35830Y13479D01*
X36025Y13440D01*
X36925D01*
X36982Y13451D01*
X37097Y13345D01*
X37112Y13230D01*
X37177Y13072D01*
X37281Y12936D01*
X37509Y12709D01*
X37456Y12582D01*
X33079D01*
X32870Y12554D01*
X32675Y12474D01*
X32508Y12346D01*
X30845Y10682D01*
X28104D01*
X28061Y10809D01*
X28106Y10844D01*
X28215Y10985D01*
X28283Y11149D01*
X28306Y11325D01*
X28283Y11501D01*
X28215Y11665D01*
X28106Y11806D01*
X27965Y11915D01*
X27801Y11983D01*
X27625Y12006D01*
X26425D01*
X26249Y11983D01*
X26244Y11981D01*
X26104D01*
X26062Y12050D01*
X24877D01*
X24851Y11968D01*
X24822Y11924D01*
X24747Y11893D01*
X24611Y11789D01*
X23753Y10931D01*
X22577D01*
X22495Y11058D01*
X22533Y11149D01*
X22556Y11325D01*
X22547Y11392D01*
X22583Y11407D01*
X22719Y11511D01*
X22864Y11656D01*
X22968Y11792D01*
X23033Y11950D01*
X23056Y12120D01*
Y12450D01*
X23046Y12524D01*
X23130Y12619D01*
X24796D01*
X24838Y12550D01*
X26062D01*
X26104Y12619D01*
X26244D01*
X26249Y12617D01*
X26425Y12594D01*
X27625D01*
X27801Y12617D01*
X27965Y12685D01*
X28106Y12794D01*
X28215Y12935D01*
X28283Y13099D01*
X28306Y13275D01*
X28283Y13451D01*
X28255Y13517D01*
X28262Y13534D01*
X28378Y13591D01*
X28421Y13558D01*
X28628Y13472D01*
X28850Y13443D01*
X29072Y13472D01*
X29279Y13558D01*
X29456Y13694D01*
X29592Y13871D01*
X29678Y14078D01*
X29707Y14300D01*
X29678Y14522D01*
X29592Y14729D01*
X29456Y14906D01*
X29279Y15042D01*
X29072Y15128D01*
X28850Y15157D01*
X28815Y15153D01*
X28738Y15271D01*
X28803Y15428D01*
X28832Y15650D01*
X28803Y15872D01*
X28740Y16025D01*
X28835Y16090D01*
X28946Y16255D01*
X28985Y16450D01*
Y17350D01*
X28946Y17545D01*
X28835Y17710D01*
X28827Y17869D01*
X28886Y17947D01*
X28957Y18117D01*
X28981Y18300D01*
Y19170D01*
X29085Y19240D01*
X29196Y19405D01*
X29235Y19600D01*
Y20500D01*
X29196Y20695D01*
X29126Y20800D01*
X29196Y20905D01*
X29235Y21100D01*
Y21589D01*
X29352Y21637D01*
X31610Y19379D01*
D02*
G37*
G36*
X9415Y20207D02*
Y19061D01*
X9288Y18999D01*
X9204Y19063D01*
X9010Y19143D01*
X8801Y19171D01*
X7601D01*
X7392Y19143D01*
X7215Y19070D01*
X7064D01*
X6881Y19046D01*
X6711Y18975D01*
X6565Y18863D01*
X6563Y18862D01*
X6448Y18885D01*
X5548D01*
X5383Y18852D01*
X5334Y18972D01*
X5360Y18990D01*
X5484Y19175D01*
X4925D01*
Y19675D01*
X5484D01*
X5367Y19851D01*
X5378Y19889D01*
X5428Y19968D01*
X5548Y19944D01*
X6448D01*
X6643Y19983D01*
X6808Y20094D01*
X6845Y20148D01*
X7337D01*
X7392Y20125D01*
X7601Y20097D01*
X8801D01*
X9010Y20125D01*
X9204Y20205D01*
X9288Y20269D01*
X9415Y20207D01*
D02*
G37*
G36*
X62988Y39500D02*
X63052Y39500D01*
X63179Y39475D01*
X63298Y39425D01*
X63405Y39354D01*
X63496Y39263D01*
X63568Y39155D01*
X63617Y39036D01*
X63632Y38963D01*
X63642Y38846D01*
Y38845D01*
X63642Y38845D01*
X63642Y38845D01*
Y28876D01*
X63646Y28810D01*
X63672Y28680D01*
X63722Y28558D01*
X63796Y28447D01*
X63832Y28412D01*
X63779Y28285D01*
X59293D01*
X58431Y29147D01*
Y29982D01*
X58488Y30269D01*
X58500Y30518D01*
Y38576D01*
Y38667D01*
X58536Y38845D01*
X58605Y39014D01*
X58706Y39165D01*
X58835Y39294D01*
X58986Y39395D01*
X59155Y39464D01*
X59333Y39500D01*
X59424D01*
X62988Y39500D01*
D02*
G37*
G36*
X81289Y23854D02*
X81248Y23734D01*
X81203Y23728D01*
X80996Y23642D01*
X80819Y23506D01*
X80683Y23329D01*
X80611Y23156D01*
X79515Y22060D01*
X79395Y21903D01*
X79319Y21721D01*
X79294Y21525D01*
Y16500D01*
X78325Y15531D01*
X76859D01*
X76830Y15615D01*
X76823Y15658D01*
X77003Y15893D01*
X77119Y16174D01*
X77126Y16225D01*
X75995D01*
Y16475D01*
X75745D01*
Y17606D01*
X75694Y17599D01*
X75413Y17483D01*
X75172Y17298D01*
X74992Y17063D01*
X74979Y17062D01*
X74865Y17114D01*
Y17375D01*
X74826Y17570D01*
X74715Y17735D01*
X74550Y17846D01*
X74355Y17885D01*
X72555D01*
X72360Y17846D01*
X72195Y17735D01*
X72084Y17570D01*
X72045Y17375D01*
Y17131D01*
X71014D01*
X70910Y17285D01*
X70745Y17396D01*
X70550Y17435D01*
X69650D01*
X69455Y17396D01*
X69400Y17359D01*
X69345Y17396D01*
X69150Y17435D01*
X68250D01*
X68055Y17396D01*
X67889Y17285D01*
X67786Y17131D01*
X66547D01*
X65179Y18498D01*
Y20847D01*
X65157Y21017D01*
X65152Y21029D01*
X65225Y21143D01*
X65324Y21149D01*
X67036Y19436D01*
X67172Y19332D01*
X67330Y19267D01*
X67500Y19244D01*
X67786D01*
X67889Y19090D01*
X68055Y18979D01*
X68250Y18940D01*
X69150D01*
X69345Y18979D01*
X69400Y19016D01*
X69455Y18979D01*
X69650Y18940D01*
X70550D01*
X70745Y18979D01*
X70910Y19090D01*
X71014Y19244D01*
X72045D01*
Y19000D01*
X72084Y18805D01*
X72195Y18640D01*
X72360Y18529D01*
X72555Y18490D01*
X74355D01*
X74550Y18529D01*
X74715Y18640D01*
X74826Y18805D01*
X74865Y19000D01*
Y19261D01*
X74979Y19313D01*
X74992Y19312D01*
X75172Y19077D01*
X75413Y18892D01*
X75694Y18776D01*
X75745Y18769D01*
Y19900D01*
Y21031D01*
X75694Y21024D01*
X75413Y20908D01*
X75172Y20723D01*
X74992Y20488D01*
X74979Y20487D01*
X74865Y20539D01*
Y20800D01*
X74826Y20995D01*
X74715Y21160D01*
X74550Y21271D01*
X74355Y21310D01*
X72555D01*
X72360Y21271D01*
X72195Y21160D01*
X72084Y20995D01*
X72045Y20800D01*
Y20556D01*
X71014D01*
X70910Y20710D01*
X70745Y20821D01*
X70550Y20860D01*
X69650D01*
X69455Y20821D01*
X69400Y20784D01*
X69345Y20821D01*
X69150Y20860D01*
X68250D01*
X68055Y20821D01*
X67889Y20710D01*
X67852Y20655D01*
X67689Y20639D01*
X67175Y21152D01*
X67224Y21269D01*
X70758D01*
X70871Y21183D01*
X71078Y21097D01*
X71300Y21068D01*
X71522Y21097D01*
X71729Y21183D01*
X71906Y21319D01*
X72042Y21496D01*
X72128Y21703D01*
X72157Y21925D01*
X72156Y21938D01*
X72274Y22011D01*
X72360Y21954D01*
X72555Y21915D01*
X74355D01*
X74550Y21954D01*
X74715Y22065D01*
X74826Y22230D01*
X74865Y22425D01*
Y22686D01*
X74979Y22738D01*
X74992Y22737D01*
X75172Y22502D01*
X75413Y22317D01*
X75694Y22201D01*
X75745Y22194D01*
Y23325D01*
Y24456D01*
X75694Y24449D01*
X75413Y24333D01*
X75172Y24148D01*
X74992Y23913D01*
X74979Y23912D01*
X74865Y23964D01*
Y24225D01*
X74826Y24420D01*
X74715Y24585D01*
X74550Y24696D01*
X74355Y24735D01*
X72555D01*
X72360Y24696D01*
X72195Y24585D01*
X72084Y24420D01*
X72045Y24225D01*
Y23981D01*
X71011D01*
X70910Y24130D01*
X70745Y24241D01*
X70550Y24280D01*
X69650D01*
X69455Y24241D01*
X69400Y24204D01*
X69345Y24241D01*
X69150Y24280D01*
X68250D01*
X68055Y24241D01*
X67889Y24130D01*
X67786Y23976D01*
X66256D01*
X66168Y24068D01*
X66178Y24229D01*
X66221Y24261D01*
X67016Y25056D01*
X80087D01*
X81289Y23854D01*
D02*
G37*
G36*
X64467Y26292D02*
X64443Y26175D01*
X64466Y26062D01*
X64362Y25935D01*
X59519D01*
X59349Y25912D01*
X59191Y25847D01*
X59055Y25743D01*
X57538Y24226D01*
X57017D01*
X56974Y24353D01*
X57121Y24543D01*
X57227Y24800D01*
X57230Y24825D01*
X56200D01*
Y25325D01*
X57230D01*
X57227Y25350D01*
X57139Y25562D01*
X57204Y25689D01*
X58220D01*
X58390Y25712D01*
X58548Y25777D01*
X58684Y25881D01*
X59222Y26419D01*
X64363D01*
X64467Y26292D01*
D02*
G37*
G36*
X49190Y27880D02*
X49180Y27830D01*
Y26930D01*
X49217Y26745D01*
X49180Y26560D01*
Y25660D01*
X49217Y25475D01*
X49180Y25290D01*
Y24390D01*
X49217Y24205D01*
X49180Y24020D01*
Y23120D01*
X49217Y22935D01*
X49180Y22750D01*
Y21850D01*
X49217Y21665D01*
X49180Y21480D01*
Y20580D01*
X49217Y20395D01*
X49180Y20210D01*
Y19310D01*
X49217Y19125D01*
X49180Y18940D01*
Y18040D01*
X49217Y17855D01*
X49180Y17670D01*
Y16770D01*
X49217Y16585D01*
X49180Y16400D01*
Y15500D01*
X49219Y15305D01*
X49329Y15140D01*
X49495Y15029D01*
X49690Y14990D01*
X51690D01*
X51885Y15029D01*
X52050Y15140D01*
X52053Y15143D01*
X52103Y15122D01*
X52325Y15093D01*
X52547Y15122D01*
X52709Y15189D01*
X52836Y15124D01*
Y13556D01*
X48846D01*
X48778Y13683D01*
X48826Y13755D01*
X48865Y13950D01*
Y15950D01*
X48826Y16145D01*
X48715Y16310D01*
X48550Y16421D01*
X48355Y16460D01*
X47455D01*
X47270Y16423D01*
X47085Y16460D01*
X46185D01*
X46000Y16423D01*
X45815Y16460D01*
X44915D01*
X44730Y16423D01*
X44545Y16460D01*
X43645D01*
X43460Y16423D01*
X43275Y16460D01*
X42375D01*
X42190Y16423D01*
X42005Y16460D01*
X41105D01*
X40920Y16423D01*
X40735Y16460D01*
X39835D01*
X39650Y16423D01*
X39465Y16460D01*
X38565D01*
X38380Y16423D01*
X38195Y16460D01*
X37295D01*
X37110Y16423D01*
X36925Y16460D01*
X36414D01*
X36371Y16587D01*
X36406Y16614D01*
X36542Y16791D01*
X36628Y16998D01*
X36657Y17220D01*
X36628Y17442D01*
X36542Y17649D01*
X36406Y17826D01*
X36229Y17962D01*
X36022Y18048D01*
X35800Y18077D01*
X35578Y18048D01*
X35405Y17976D01*
X35252D01*
X35200Y18040D01*
Y18940D01*
X35163Y19125D01*
X35200Y19310D01*
Y20210D01*
X35163Y20395D01*
X35200Y20580D01*
Y21480D01*
X35163Y21665D01*
X35200Y21850D01*
Y22750D01*
X35163Y22935D01*
X35200Y23120D01*
Y24020D01*
X35163Y24205D01*
X35200Y24390D01*
Y25290D01*
X35163Y25475D01*
X35200Y25660D01*
Y26560D01*
X35252Y26624D01*
X36125D01*
X36298Y26552D01*
X36520Y26523D01*
X36742Y26552D01*
X36949Y26638D01*
X37126Y26774D01*
X37263Y26951D01*
X37348Y27158D01*
X37377Y27380D01*
X37348Y27602D01*
X37263Y27809D01*
X37220Y27864D01*
X37276Y27978D01*
X49110D01*
X49190Y27880D01*
D02*
G37*
G36*
X9650Y22442D02*
X9565Y22385D01*
X9454Y22220D01*
X9415Y22025D01*
Y21601D01*
X9288Y21539D01*
X9204Y21603D01*
X9010Y21683D01*
X8801Y21711D01*
X7601D01*
X7392Y21683D01*
X7337Y21660D01*
X6845D01*
X6808Y21714D01*
X6643Y21825D01*
X6448Y21864D01*
X5548D01*
X5504Y21855D01*
X5428Y21969D01*
X5484Y22054D01*
X4925D01*
Y22448D01*
X5031Y22554D01*
X5603D01*
X5615Y22569D01*
X9611D01*
X9650Y22442D01*
D02*
G37*
G36*
X70920Y39475D02*
X71002D01*
X71162Y39443D01*
X71313Y39380D01*
X71449Y39290D01*
X71565Y39174D01*
X71656Y39038D01*
X71718Y38887D01*
X71743Y38763D01*
X71750Y38645D01*
Y38645D01*
X71750D01*
X71750Y38645D01*
X71750Y31625D01*
X71754Y31586D01*
X71784Y31514D01*
X71839Y31459D01*
X71911Y31429D01*
X71950Y31425D01*
X72500Y31425D01*
X72540Y31425D01*
X72613Y31395D01*
X72668Y31340D01*
X72700Y31225D01*
D01*
X72700Y31107D01*
Y31050D01*
X72704Y31006D01*
X72738Y30925D01*
X72800Y30863D01*
X72881Y30829D01*
X72925Y30825D01*
X73351D01*
X73400Y30815D01*
X74743D01*
X74802Y30791D01*
X74866Y30727D01*
X74871Y30716D01*
X74900Y30600D01*
Y30600D01*
X74900D01*
X74900Y30600D01*
Y29965D01*
X74873Y29901D01*
X74824Y29852D01*
X74783Y29835D01*
X73400D01*
X73351Y29825D01*
X72825D01*
X72801Y29823D01*
X72756Y29804D01*
X72721Y29769D01*
X72702Y29724D01*
X72700Y29700D01*
Y29345D01*
X72677Y29290D01*
X72635Y29248D01*
X72580Y29225D01*
X65309D01*
X65082Y29270D01*
X64868Y29359D01*
X64676Y29487D01*
X64512Y29651D01*
X64384Y29843D01*
X64295Y30057D01*
X64250Y30284D01*
Y30400D01*
Y38851D01*
Y38975D01*
X64345Y39204D01*
X64520Y39380D01*
X64750Y39475D01*
X64874D01*
X70920Y39475D01*
D02*
G37*
G36*
X78782Y39500D02*
X78905Y39500D01*
X79132Y39406D01*
X79306Y39232D01*
X79400Y39005D01*
Y38882D01*
X79400D01*
X79400Y38882D01*
X79400Y28820D01*
Y28760D01*
X79354Y28650D01*
X79270Y28566D01*
X79160Y28520D01*
X76830D01*
X76784Y28520D01*
X76700Y28555D01*
X76635Y28620D01*
X76600Y28704D01*
X76600Y28750D01*
X76600Y30925D01*
X76592Y31003D01*
X76533Y31147D01*
X76422Y31258D01*
X76320Y31300D01*
X76316Y31302D01*
X76316Y31302D01*
X76278Y31317D01*
X76200Y31325D01*
Y31325D01*
X76200Y31325D01*
X76200Y31325D01*
X76077Y31325D01*
X74949D01*
X74900Y31335D01*
X73677D01*
X73563Y31382D01*
X73457Y31488D01*
X73400Y31625D01*
X73400Y31700D01*
Y38900D01*
Y39019D01*
X73491Y39240D01*
X73660Y39409D01*
X73881Y39500D01*
X74000D01*
X78782Y39500D01*
D02*
G37*
G36*
X9458Y32321D02*
X9594Y32144D01*
X9771Y32008D01*
X9922Y31945D01*
X9931Y31880D01*
X9922Y31808D01*
X9740Y31685D01*
X9616Y31500D01*
X10734D01*
X10610Y31685D01*
X10469Y31780D01*
X10473Y31912D01*
X10497Y31925D01*
X10568Y31937D01*
X10730Y31829D01*
X10925Y31790D01*
X11825D01*
X12020Y31829D01*
X12185Y31940D01*
X12222Y31994D01*
X12378D01*
X12415Y31940D01*
X12580Y31829D01*
X12775Y31790D01*
X13653D01*
X13665Y31775D01*
Y30875D01*
X13704Y30680D01*
X13815Y30515D01*
X13909Y30452D01*
X13854Y30370D01*
X13815Y30175D01*
Y29275D01*
X13819Y29256D01*
X13711Y29148D01*
X13650Y29160D01*
X12750D01*
X12555Y29121D01*
X12500Y29084D01*
X12445Y29121D01*
X12250Y29160D01*
X11350D01*
X11155Y29121D01*
X10990Y29010D01*
X10979Y28994D01*
X10897Y29028D01*
X10675Y29057D01*
X10453Y29028D01*
X10246Y28942D01*
X10069Y28806D01*
X9933Y28629D01*
X9847Y28422D01*
X9818Y28200D01*
X9847Y27978D01*
X9933Y27771D01*
X10069Y27594D01*
X10152Y27530D01*
Y27370D01*
X10069Y27306D01*
X9933Y27129D01*
X9847Y26922D01*
X9818Y26700D01*
X9847Y26478D01*
X9886Y26384D01*
X9801Y26257D01*
X6756D01*
X4553Y28461D01*
X4386Y28589D01*
X4191Y28669D01*
X3982Y28697D01*
X2895D01*
X2748Y28888D01*
X2726Y28906D01*
X2758Y29042D01*
X2845Y29059D01*
X3010Y29170D01*
X3121Y29335D01*
X3160Y29530D01*
Y29573D01*
X6305D01*
X6527Y29602D01*
X6734Y29688D01*
X6911Y29824D01*
X9106Y32019D01*
X9242Y32196D01*
X9307Y32352D01*
X9445D01*
X9458Y32321D01*
D02*
G37*
G36*
X81249Y-7783D02*
X81891D01*
Y-8000D01*
X80990D01*
Y-6730D01*
X81249D01*
Y-7783D01*
D02*
G37*
G36*
X78132Y-6935D02*
X77755D01*
Y-8000D01*
X77496D01*
Y-6935D01*
X77119D01*
Y-6718D01*
X78132D01*
Y-6935D01*
D02*
G37*
G36*
X82795Y39437D02*
X82976Y39361D01*
X83139Y39252D01*
X83278Y39114D01*
X83387Y38951D01*
X83462Y38769D01*
X83500Y38577D01*
Y34500D01*
X83505Y34402D01*
X83543Y34210D01*
X83618Y34029D01*
X83727Y33866D01*
X83866Y33727D01*
X84029Y33618D01*
X84210Y33543D01*
X84402Y33505D01*
X84500Y33500D01*
X89099D01*
X89283Y33424D01*
X89424Y33283D01*
X89500Y33099D01*
Y32979D01*
X89373Y32875D01*
X89300Y32890D01*
X87500D01*
X87305Y32851D01*
X87140Y32740D01*
X87029Y32575D01*
X86990Y32380D01*
Y32136D01*
X86755D01*
X86585Y32113D01*
X86427Y32048D01*
X86291Y31944D01*
X82905Y28558D01*
X80936D01*
X80727Y28645D01*
X80566Y28805D01*
X80479Y29015D01*
Y29129D01*
Y38576D01*
Y38664D01*
X80513Y38838D01*
X80581Y39002D01*
X80680Y39149D01*
X80805Y39274D01*
X80952Y39373D01*
X81116Y39440D01*
X81289Y39475D01*
X82602D01*
X82795Y39437D01*
D02*
G37*
G36*
X82476Y-7054D02*
X82492D01*
X82529Y-7056D01*
X82568Y-7062D01*
X82609Y-7068D01*
X82648Y-7077D01*
X82665Y-7083D01*
X82681Y-7091D01*
X82685Y-7093D01*
X82694Y-7099D01*
X82708Y-7107D01*
X82726Y-7118D01*
X82743Y-7132D01*
X82763Y-7149D01*
X82780Y-7169D01*
X82794Y-7190D01*
X82796Y-7192D01*
X82800Y-7202D01*
X82804Y-7218D01*
X82812Y-7241D01*
X82813Y-7255D01*
X82817Y-7270D01*
X82819Y-7288D01*
X82821Y-7309D01*
X82823Y-7331D01*
X82825Y-7356D01*
X82827Y-7382D01*
Y-7411D01*
X82823Y-7696D01*
Y-7698D01*
Y-7702D01*
Y-7707D01*
Y-7715D01*
Y-7737D01*
X82825Y-7764D01*
Y-7793D01*
X82829Y-7824D01*
X82831Y-7852D01*
X82835Y-7877D01*
Y-7879D01*
X82837Y-7887D01*
X82841Y-7899D01*
X82845Y-7914D01*
X82851Y-7932D01*
X82858Y-7953D01*
X82868Y-7975D01*
X82880Y-8000D01*
X82638D01*
Y-7998D01*
X82636Y-7996D01*
X82634Y-7990D01*
X82632Y-7982D01*
X82628Y-7973D01*
X82622Y-7961D01*
X82618Y-7945D01*
X82613Y-7930D01*
Y-7928D01*
Y-7926D01*
X82609Y-7918D01*
X82607Y-7908D01*
X82605Y-7901D01*
X82603Y-7902D01*
X82593Y-7910D01*
X82581Y-7922D01*
X82564Y-7936D01*
X82544Y-7951D01*
X82521Y-7967D01*
X82497Y-7980D01*
X82470Y-7994D01*
X82466Y-7996D01*
X82458Y-7998D01*
X82443Y-8004D01*
X82423Y-8008D01*
X82402Y-8014D01*
X82376Y-8020D01*
X82347Y-8021D01*
X82318Y-8023D01*
X82304D01*
X82295Y-8021D01*
X82283D01*
X82267Y-8020D01*
X82236Y-8014D01*
X82199Y-8004D01*
X82162Y-7992D01*
X82125Y-7973D01*
X82092Y-7947D01*
X82088Y-7943D01*
X82078Y-7934D01*
X82066Y-7916D01*
X82051Y-7893D01*
X82035Y-7863D01*
X82023Y-7830D01*
X82014Y-7791D01*
X82010Y-7748D01*
Y-7744D01*
Y-7735D01*
X82012Y-7721D01*
X82014Y-7702D01*
X82020Y-7680D01*
X82025Y-7657D01*
X82035Y-7633D01*
X82047Y-7610D01*
X82049Y-7608D01*
X82055Y-7600D01*
X82062Y-7588D01*
X82074Y-7575D01*
X82088Y-7559D01*
X82105Y-7544D01*
X82127Y-7528D01*
X82150Y-7514D01*
X82154Y-7512D01*
X82164Y-7508D01*
X82179Y-7503D01*
X82201Y-7495D01*
X82228Y-7485D01*
X82261Y-7475D01*
X82300Y-7465D01*
X82345Y-7456D01*
X82347D01*
X82353Y-7454D01*
X82361Y-7452D01*
X82373Y-7450D01*
X82388Y-7448D01*
X82404Y-7444D01*
X82441Y-7436D01*
X82480Y-7426D01*
X82519Y-7417D01*
X82556Y-7407D01*
X82572Y-7401D01*
X82585Y-7395D01*
Y-7372D01*
Y-7368D01*
Y-7360D01*
X82583Y-7348D01*
X82581Y-7333D01*
X82577Y-7315D01*
X82570Y-7300D01*
X82562Y-7284D01*
X82550Y-7270D01*
X82548Y-7268D01*
X82542Y-7265D01*
X82534Y-7261D01*
X82521Y-7255D01*
X82503Y-7249D01*
X82480Y-7243D01*
X82451Y-7241D01*
X82417Y-7239D01*
X82406D01*
X82394Y-7241D01*
X82380Y-7243D01*
X82345Y-7251D01*
X82330Y-7257D01*
X82314Y-7267D01*
X82312Y-7268D01*
X82308Y-7272D01*
X82300Y-7278D01*
X82293Y-7288D01*
X82283Y-7300D01*
X82273Y-7315D01*
X82263Y-7335D01*
X82256Y-7356D01*
X82035Y-7315D01*
Y-7313D01*
X82037Y-7309D01*
X82039Y-7302D01*
X82043Y-7294D01*
X82053Y-7270D01*
X82064Y-7241D01*
X82082Y-7208D01*
X82105Y-7177D01*
X82133Y-7146D01*
X82164Y-7118D01*
X82166D01*
X82168Y-7116D01*
X82174Y-7112D01*
X82181Y-7109D01*
X82191Y-7103D01*
X82203Y-7097D01*
X82217Y-7091D01*
X82232Y-7085D01*
X82250Y-7079D01*
X82271Y-7073D01*
X82293Y-7068D01*
X82318Y-7062D01*
X82343Y-7058D01*
X82373Y-7054D01*
X82402Y-7052D01*
X82462D01*
X82476Y-7054D01*
D02*
G37*
G36*
X84450D02*
X84468Y-7056D01*
X84487Y-7060D01*
X84511Y-7064D01*
X84534Y-7070D01*
X84559Y-7077D01*
X84587Y-7085D01*
X84614Y-7097D01*
X84641Y-7110D01*
X84669Y-7126D01*
X84694Y-7146D01*
X84719Y-7165D01*
X84743Y-7190D01*
X84745Y-7192D01*
X84749Y-7196D01*
X84754Y-7204D01*
X84762Y-7216D01*
X84770Y-7231D01*
X84780Y-7249D01*
X84791Y-7268D01*
X84801Y-7294D01*
X84813Y-7321D01*
X84823Y-7352D01*
X84832Y-7387D01*
X84842Y-7425D01*
X84848Y-7465D01*
X84854Y-7508D01*
X84858Y-7557D01*
Y-7608D01*
X84243D01*
Y-7610D01*
Y-7612D01*
Y-7618D01*
X84245Y-7625D01*
X84247Y-7647D01*
X84251Y-7670D01*
X84259Y-7700D01*
X84269Y-7727D01*
X84282Y-7754D01*
X84302Y-7780D01*
X84304Y-7782D01*
X84312Y-7789D01*
X84323Y-7799D01*
X84341Y-7809D01*
X84360Y-7821D01*
X84386Y-7830D01*
X84413Y-7838D01*
X84442Y-7840D01*
X84452D01*
X84464Y-7838D01*
X84477Y-7836D01*
X84491Y-7832D01*
X84509Y-7826D01*
X84524Y-7819D01*
X84540Y-7809D01*
X84542Y-7807D01*
X84546Y-7803D01*
X84553Y-7795D01*
X84561Y-7783D01*
X84571Y-7770D01*
X84583Y-7752D01*
X84592Y-7733D01*
X84600Y-7707D01*
X84844Y-7748D01*
Y-7750D01*
X84842Y-7754D01*
X84838Y-7762D01*
X84834Y-7770D01*
X84830Y-7782D01*
X84823Y-7795D01*
X84807Y-7824D01*
X84786Y-7858D01*
X84760Y-7891D01*
X84729Y-7924D01*
X84694Y-7953D01*
X84692D01*
X84690Y-7957D01*
X84684Y-7959D01*
X84676Y-7965D01*
X84667Y-7969D01*
X84653Y-7975D01*
X84624Y-7988D01*
X84587Y-8002D01*
X84544Y-8012D01*
X84495Y-8020D01*
X84440Y-8023D01*
X84431D01*
X84417Y-8021D01*
X84401D01*
X84380Y-8018D01*
X84358Y-8016D01*
X84333Y-8010D01*
X84306Y-8004D01*
X84276Y-7996D01*
X84247Y-7984D01*
X84216Y-7973D01*
X84187Y-7957D01*
X84157Y-7940D01*
X84130Y-7918D01*
X84105Y-7893D01*
X84081Y-7865D01*
Y-7863D01*
X84078Y-7860D01*
X84074Y-7852D01*
X84068Y-7842D01*
X84060Y-7830D01*
X84052Y-7815D01*
X84044Y-7797D01*
X84037Y-7778D01*
X84029Y-7756D01*
X84021Y-7731D01*
X84013Y-7705D01*
X84005Y-7676D01*
X83996Y-7614D01*
X83994Y-7581D01*
X83992Y-7545D01*
Y-7544D01*
Y-7536D01*
Y-7524D01*
X83994Y-7506D01*
X83996Y-7489D01*
X83998Y-7465D01*
X84001Y-7440D01*
X84007Y-7415D01*
X84021Y-7356D01*
X84031Y-7327D01*
X84042Y-7296D01*
X84056Y-7267D01*
X84072Y-7237D01*
X84089Y-7210D01*
X84111Y-7185D01*
X84113Y-7183D01*
X84117Y-7179D01*
X84122Y-7173D01*
X84132Y-7163D01*
X84144Y-7153D01*
X84159Y-7142D01*
X84175Y-7130D01*
X84195Y-7118D01*
X84216Y-7107D01*
X84237Y-7093D01*
X84263Y-7083D01*
X84290Y-7073D01*
X84319Y-7064D01*
X84349Y-7058D01*
X84382Y-7054D01*
X84415Y-7052D01*
X84434D01*
X84450Y-7054D01*
D02*
G37*
G36*
X17840Y39373D02*
X17815Y39250D01*
Y38350D01*
X17854Y38155D01*
X17965Y37990D01*
X17968Y37987D01*
Y37377D01*
X16914D01*
X16521Y37771D01*
X16353Y37899D01*
X16159Y37979D01*
X16028Y37997D01*
X15985Y38060D01*
X15984Y38061D01*
X15991Y38118D01*
X16022Y38189D01*
X16236Y38231D01*
X16435Y38365D01*
X16559Y38550D01*
X16000D01*
Y39050D01*
X16559D01*
X16435Y39235D01*
X16236Y39369D01*
X16215Y39373D01*
X16228Y39500D01*
X17750D01*
X17840Y39373D01*
D02*
G37*
G36*
X15785Y39373D02*
X15764Y39369D01*
X15565Y39235D01*
X15431Y39036D01*
X15410Y38932D01*
X15273Y38890D01*
X15056Y39106D01*
X14879Y39242D01*
X14672Y39328D01*
X14450Y39357D01*
X10106D01*
X9884Y39328D01*
X9678Y39242D01*
X9500Y39106D01*
X7894Y37500D01*
X7758Y37322D01*
X7672Y37116D01*
X7643Y36894D01*
Y32980D01*
X5950Y31287D01*
X3160D01*
Y31330D01*
X3121Y31525D01*
X3010Y31690D01*
X2845Y31801D01*
X2650Y31840D01*
X850D01*
X655Y31801D01*
X612Y31772D01*
X500Y31832D01*
Y32846D01*
X528Y32986D01*
X583Y33118D01*
X662Y33237D01*
X763Y33338D01*
X882Y33417D01*
X1014Y33472D01*
X1154Y33500D01*
X3000Y33500D01*
X3229Y33507D01*
X3682Y33567D01*
X4124Y33686D01*
X4547Y33861D01*
X4943Y34090D01*
X5306Y34368D01*
X5630Y34692D01*
X5908Y35055D01*
X6137Y35451D01*
X6312Y35874D01*
X6431Y36316D01*
X6491Y36769D01*
X6498Y36998D01*
X6498Y36998D01*
X6498Y38148D01*
X6556Y38438D01*
X6669Y38711D01*
X6833Y38956D01*
X7042Y39165D01*
X7287Y39329D01*
X7560Y39442D01*
X7850Y39500D01*
X15772D01*
X15785Y39373D01*
D02*
G37*
G36*
X78754Y-7054D02*
X78772Y-7056D01*
X78793Y-7060D01*
X78814Y-7064D01*
X78840Y-7070D01*
X78867Y-7077D01*
X78894Y-7085D01*
X78924Y-7097D01*
X78951Y-7110D01*
X78980Y-7126D01*
X79010Y-7146D01*
X79037Y-7165D01*
X79062Y-7190D01*
X79064Y-7192D01*
X79068Y-7196D01*
X79074Y-7204D01*
X79084Y-7216D01*
X79093Y-7228D01*
X79105Y-7245D01*
X79117Y-7263D01*
X79130Y-7284D01*
X79142Y-7309D01*
X79154Y-7335D01*
X79166Y-7364D01*
X79175Y-7393D01*
X79185Y-7426D01*
X79191Y-7462D01*
X79195Y-7497D01*
X79197Y-7536D01*
Y-7538D01*
Y-7545D01*
Y-7555D01*
X79195Y-7571D01*
X79193Y-7588D01*
X79189Y-7610D01*
X79185Y-7633D01*
X79179Y-7659D01*
X79173Y-7686D01*
X79164Y-7713D01*
X79152Y-7742D01*
X79140Y-7772D01*
X79123Y-7801D01*
X79105Y-7830D01*
X79084Y-7858D01*
X79060Y-7885D01*
X79058Y-7887D01*
X79054Y-7891D01*
X79047Y-7899D01*
X79037Y-7906D01*
X79023Y-7916D01*
X79008Y-7928D01*
X78988Y-7941D01*
X78967Y-7953D01*
X78943Y-7967D01*
X78918Y-7980D01*
X78891Y-7992D01*
X78859Y-8002D01*
X78828Y-8010D01*
X78793Y-8018D01*
X78756Y-8021D01*
X78719Y-8023D01*
X78697D01*
X78686Y-8021D01*
X78672Y-8020D01*
X78641Y-8016D01*
X78604Y-8010D01*
X78563Y-8000D01*
X78520Y-7986D01*
X78477Y-7967D01*
X78475D01*
X78471Y-7965D01*
X78465Y-7961D01*
X78457Y-7955D01*
X78438Y-7941D01*
X78413Y-7924D01*
X78383Y-7901D01*
X78354Y-7871D01*
X78327Y-7836D01*
X78301Y-7797D01*
Y-7795D01*
X78299Y-7791D01*
X78296Y-7785D01*
X78292Y-7778D01*
X78288Y-7766D01*
X78284Y-7754D01*
X78278Y-7739D01*
X78272Y-7721D01*
X78262Y-7682D01*
X78253Y-7635D01*
X78245Y-7583D01*
X78243Y-7526D01*
Y-7524D01*
Y-7520D01*
Y-7514D01*
X78245Y-7505D01*
Y-7495D01*
X78247Y-7481D01*
X78251Y-7450D01*
X78257Y-7413D01*
X78268Y-7374D01*
X78282Y-7331D01*
X78301Y-7288D01*
Y-7286D01*
X78303Y-7282D01*
X78307Y-7276D01*
X78313Y-7268D01*
X78327Y-7249D01*
X78346Y-7224D01*
X78370Y-7194D01*
X78399Y-7165D01*
X78432Y-7138D01*
X78471Y-7112D01*
X78473D01*
X78477Y-7110D01*
X78483Y-7107D01*
X78491Y-7103D01*
X78500Y-7099D01*
X78514Y-7093D01*
X78543Y-7081D01*
X78580Y-7071D01*
X78623Y-7062D01*
X78668Y-7054D01*
X78719Y-7052D01*
X78738D01*
X78754Y-7054D01*
D02*
G37*
G36*
X13715Y37299D02*
X13588Y37227D01*
X13425Y37260D01*
X12025D01*
X11830Y37221D01*
X11665Y37110D01*
X11554Y36945D01*
X11515Y36750D01*
Y35750D01*
X11554Y35555D01*
X11665Y35390D01*
X11830Y35279D01*
X11969Y35251D01*
Y34155D01*
X11994Y33959D01*
X12068Y33781D01*
X12064Y33771D01*
X12061Y33766D01*
X11986Y33678D01*
X11825Y33710D01*
X11270D01*
X11258Y33837D01*
X11283Y33842D01*
X11483Y33975D01*
X11607Y34161D01*
X10488D01*
X10612Y33975D01*
X10812Y33842D01*
X10875Y33829D01*
Y33700D01*
X10730Y33671D01*
X10565Y33560D01*
X10543Y33528D01*
X10422Y33578D01*
X10200Y33607D01*
X9978Y33578D01*
X9771Y33492D01*
X9594Y33356D01*
X9484Y33214D01*
X9357Y33257D01*
Y36539D01*
X9997Y37178D01*
X10114Y37116D01*
X10156Y36905D01*
X10290Y36705D01*
X10475Y36581D01*
Y37141D01*
X10725D01*
Y37391D01*
X11284D01*
X11201Y37516D01*
X11269Y37643D01*
X13715D01*
Y37299D01*
D02*
G37*
G36*
X83576Y-7965D02*
X83516Y-8127D01*
X83514Y-8131D01*
X83510Y-8140D01*
X83504Y-8154D01*
X83496Y-8174D01*
X83486Y-8193D01*
X83477Y-8215D01*
X83467Y-8234D01*
X83455Y-8252D01*
X83453Y-8254D01*
X83449Y-8259D01*
X83444Y-8267D01*
X83436Y-8277D01*
X83414Y-8298D01*
X83387Y-8320D01*
X83385Y-8322D01*
X83381Y-8324D01*
X83371Y-8330D01*
X83362Y-8336D01*
X83348Y-8341D01*
X83332Y-8349D01*
X83313Y-8357D01*
X83293Y-8363D01*
X83291D01*
X83284Y-8365D01*
X83272Y-8367D01*
X83258Y-8371D01*
X83239Y-8373D01*
X83217Y-8376D01*
X83194Y-8378D01*
X83143D01*
X83126Y-8376D01*
X83104Y-8375D01*
X83081Y-8373D01*
X83030Y-8363D01*
X83009Y-8172D01*
X83010D01*
X83018Y-8174D01*
X83028Y-8176D01*
X83044Y-8178D01*
X83059Y-8179D01*
X83077Y-8181D01*
X83112Y-8183D01*
X83126D01*
X83141Y-8181D01*
X83161Y-8178D01*
X83180Y-8170D01*
X83202Y-8162D01*
X83221Y-8148D01*
X83239Y-8131D01*
X83241Y-8129D01*
X83245Y-8121D01*
X83252Y-8111D01*
X83262Y-8096D01*
X83272Y-8076D01*
X83282Y-8055D01*
X83291Y-8029D01*
X83301Y-8002D01*
X82950Y-7071D01*
X83211D01*
X83432Y-7731D01*
X83650Y-7071D01*
X83904D01*
X83576Y-7965D01*
D02*
G37*
G36*
X20793Y35661D02*
Y32175D01*
X20695Y32095D01*
X20640Y32106D01*
X20404Y32059D01*
X20205Y31925D01*
X20081Y31740D01*
X20640D01*
Y31240D01*
X20081D01*
X20205Y31055D01*
X20404Y30921D01*
X20640Y30874D01*
X20695Y30885D01*
X20793Y30805D01*
Y26725D01*
X20821Y26516D01*
X20901Y26322D01*
X21029Y26154D01*
X24151Y23033D01*
X24147Y23002D01*
X24082Y22906D01*
X16567D01*
X15936Y23538D01*
X15991Y23663D01*
X16179Y23741D01*
X16356Y23877D01*
X16492Y24054D01*
X16578Y24261D01*
X16607Y24483D01*
X16599Y24548D01*
X16683Y24643D01*
X19052D01*
X19103Y24622D01*
X19325Y24593D01*
X19547Y24622D01*
X19754Y24708D01*
X19931Y24844D01*
X20067Y25021D01*
X20153Y25228D01*
X20182Y25450D01*
X20153Y25672D01*
X20067Y25879D01*
X19931Y26056D01*
X19754Y26192D01*
X19547Y26278D01*
X19325Y26307D01*
X19103Y26278D01*
X19052Y26257D01*
X17143D01*
X17094Y26374D01*
X17643Y26924D01*
X17761D01*
X17816Y26901D01*
X18025Y26873D01*
X19625D01*
X19834Y26901D01*
X20028Y26981D01*
X20196Y27109D01*
X20324Y27277D01*
X20404Y27471D01*
X20432Y27680D01*
X20404Y27889D01*
X20324Y28083D01*
X20196Y28251D01*
X20194Y28251D01*
Y28378D01*
X20196Y28379D01*
X20324Y28547D01*
X20404Y28741D01*
X20432Y28950D01*
X20404Y29159D01*
X20324Y29353D01*
X20196Y29521D01*
X20194Y29521D01*
Y29649D01*
X20196Y29649D01*
X20324Y29817D01*
X20404Y30011D01*
X20432Y30220D01*
X20404Y30429D01*
X20324Y30623D01*
X20196Y30791D01*
X20028Y30919D01*
X19834Y30999D01*
X19625Y31027D01*
X18025D01*
X17816Y30999D01*
X17761Y30976D01*
X17000D01*
X16804Y30951D01*
X16622Y30875D01*
X16465Y30755D01*
X16465Y30755D01*
X16192Y30481D01*
X15622D01*
X15585Y30535D01*
X15491Y30598D01*
X15546Y30680D01*
X15585Y30875D01*
Y31775D01*
X15567Y31867D01*
X15671Y31994D01*
X17785D01*
X17816Y31981D01*
X18025Y31953D01*
X19625D01*
X19834Y31981D01*
X20028Y32061D01*
X20196Y32189D01*
X20324Y32357D01*
X20404Y32551D01*
X20432Y32760D01*
X20404Y32969D01*
X20324Y33163D01*
X20196Y33331D01*
X20194Y33332D01*
Y33458D01*
X20196Y33459D01*
X20324Y33627D01*
X20404Y33821D01*
X20432Y34030D01*
X20404Y34239D01*
X20324Y34433D01*
X20196Y34601D01*
X20194Y34602D01*
Y34729D01*
X20196Y34729D01*
X20324Y34897D01*
X20404Y35091D01*
X20432Y35300D01*
X20404Y35509D01*
X20352Y35636D01*
X20430Y35763D01*
X20691D01*
X20793Y35661D01*
D02*
G37*
G36*
X79928Y-7054D02*
X79942Y-7056D01*
X79958Y-7058D01*
X79997Y-7068D01*
X80040Y-7083D01*
X80063Y-7093D01*
X80086Y-7107D01*
X80108Y-7120D01*
X80131Y-7138D01*
X80155Y-7157D01*
X80176Y-7181D01*
X80178Y-7183D01*
X80182Y-7187D01*
X80186Y-7194D01*
X80194Y-7204D01*
X80201Y-7218D01*
X80211Y-7233D01*
X80223Y-7251D01*
X80233Y-7272D01*
X80242Y-7296D01*
X80254Y-7323D01*
X80264Y-7352D01*
X80272Y-7384D01*
X80279Y-7417D01*
X80285Y-7454D01*
X80287Y-7493D01*
X80289Y-7534D01*
Y-7536D01*
Y-7544D01*
Y-7555D01*
X80287Y-7573D01*
X80285Y-7592D01*
X80283Y-7614D01*
X80279Y-7639D01*
X80276Y-7666D01*
X80262Y-7723D01*
X80252Y-7754D01*
X80240Y-7783D01*
X80227Y-7813D01*
X80213Y-7842D01*
X80194Y-7869D01*
X80174Y-7895D01*
X80172Y-7897D01*
X80168Y-7901D01*
X80162Y-7906D01*
X80155Y-7914D01*
X80143Y-7924D01*
X80129Y-7936D01*
X80114Y-7947D01*
X80098Y-7959D01*
X80057Y-7982D01*
X80010Y-8004D01*
X79985Y-8012D01*
X79958Y-8018D01*
X79928Y-8021D01*
X79899Y-8023D01*
X79885D01*
X79872Y-8021D01*
X79854Y-8020D01*
X79833Y-8016D01*
X79809Y-8012D01*
X79784Y-8004D01*
X79761Y-7994D01*
X79759Y-7992D01*
X79749Y-7988D01*
X79737Y-7980D01*
X79722Y-7969D01*
X79702Y-7955D01*
X79679Y-7936D01*
X79655Y-7914D01*
X79630Y-7889D01*
Y-8355D01*
X79384D01*
Y-7071D01*
X79612D01*
Y-7208D01*
X79614Y-7204D01*
X79620Y-7196D01*
X79630Y-7185D01*
X79644Y-7169D01*
X79661Y-7151D01*
X79681Y-7132D01*
X79704Y-7114D01*
X79731Y-7097D01*
X79735Y-7095D01*
X79745Y-7089D01*
X79761Y-7083D01*
X79782Y-7073D01*
X79805Y-7066D01*
X79835Y-7060D01*
X79868Y-7054D01*
X79901Y-7052D01*
X79917D01*
X79928Y-7054D01*
D02*
G37*
G36*
X29662Y39442D02*
X29935Y39329D01*
X30180Y39166D01*
X30389Y38957D01*
X30553Y38711D01*
X30666Y38439D01*
X30723Y38149D01*
Y38002D01*
Y32554D01*
X30700Y32535D01*
X29800D01*
X29605Y32496D01*
X29439Y32385D01*
X29385Y32385D01*
X29220Y32496D01*
X29025Y32535D01*
X28125D01*
X27930Y32496D01*
X27764Y32385D01*
X27654Y32220D01*
X27615Y32025D01*
Y31125D01*
X27654Y30930D01*
X27764Y30765D01*
Y30730D01*
X27654Y30565D01*
X27615Y30370D01*
Y29470D01*
X27654Y29275D01*
X27764Y29110D01*
X27930Y28999D01*
X28125Y28960D01*
X29025D01*
X29117Y28979D01*
X29241Y28874D01*
Y28070D01*
X29279Y27875D01*
X29390Y27710D01*
X29555Y27599D01*
X29750Y27560D01*
X30650D01*
X30845Y27599D01*
X31011Y27710D01*
X31013Y27713D01*
X31257D01*
X31308Y27692D01*
X31530Y27663D01*
X31752Y27692D01*
X31959Y27778D01*
X32056Y27852D01*
X32085Y27847D01*
X32180Y27787D01*
Y26930D01*
X32193Y26864D01*
X32113Y26766D01*
X31439D01*
X31335Y26920D01*
X31170Y27031D01*
X30975Y27070D01*
X30075D01*
X29880Y27031D01*
X29715Y26920D01*
X29604Y26755D01*
X29565Y26560D01*
Y25737D01*
X29551Y25715D01*
X29449Y25643D01*
X29442Y25642D01*
X29300Y25670D01*
X28400D01*
X28258Y25642D01*
X28251Y25643D01*
X28149Y25715D01*
X28135Y25737D01*
Y26560D01*
X28096Y26755D01*
X27985Y26920D01*
X27940Y26951D01*
X28003Y27103D01*
X28032Y27325D01*
X28003Y27547D01*
X27917Y27754D01*
X27781Y27931D01*
X27604Y28067D01*
X27397Y28153D01*
X27175Y28182D01*
X26953Y28153D01*
X26746Y28067D01*
X26569Y27931D01*
X26433Y27754D01*
X26347Y27547D01*
X26318Y27325D01*
X26347Y27103D01*
X26410Y26951D01*
X26365Y26920D01*
X26254Y26755D01*
X26215Y26560D01*
Y25660D01*
X26254Y25465D01*
X26291Y25410D01*
X26254Y25355D01*
X26239Y25281D01*
X26101Y25239D01*
X25589Y25752D01*
X25642Y25821D01*
X25728Y26028D01*
X25757Y26250D01*
X25728Y26472D01*
X25642Y26679D01*
X25506Y26856D01*
X25329Y26992D01*
X25122Y27078D01*
X24900Y27107D01*
X24678Y27078D01*
X24471Y26992D01*
X24350Y26899D01*
X24229Y26992D01*
X24022Y27078D01*
X23800Y27107D01*
X23578Y27078D01*
X23371Y26992D01*
X23194Y26856D01*
X23058Y26679D01*
X23022Y26593D01*
X22898Y26569D01*
X22407Y27059D01*
Y29293D01*
X22502Y29377D01*
X22610Y29363D01*
X22832Y29392D01*
X23005Y29464D01*
X23361D01*
X23416Y29441D01*
X23625Y29413D01*
X25225D01*
X25434Y29441D01*
X25578Y29500D01*
X25638Y29388D01*
X25635Y29385D01*
X25511Y29200D01*
X25820D01*
Y29536D01*
X25759Y29621D01*
X25796Y29649D01*
X25924Y29817D01*
X26004Y30011D01*
X26032Y30220D01*
X26004Y30429D01*
X25954Y30551D01*
X25981Y30599D01*
X26047Y30658D01*
X26240Y30633D01*
X26462Y30662D01*
X26669Y30748D01*
X26846Y30884D01*
X26982Y31061D01*
X27068Y31268D01*
X27097Y31490D01*
X27068Y31712D01*
X26982Y31919D01*
X26846Y32096D01*
X26669Y32232D01*
X26462Y32318D01*
X26240Y32347D01*
X26047Y32322D01*
X25981Y32381D01*
X25954Y32429D01*
X26004Y32551D01*
X26032Y32760D01*
X26004Y32969D01*
X25924Y33163D01*
X25796Y33331D01*
X25628Y33459D01*
X25434Y33539D01*
X25225Y33567D01*
X23625D01*
X23416Y33539D01*
X23222Y33459D01*
X23054Y33331D01*
X22926Y33163D01*
X22846Y32969D01*
X22818Y32760D01*
X22846Y32551D01*
X22926Y32357D01*
X23054Y32189D01*
X23056Y32188D01*
Y32062D01*
X23054Y32061D01*
X22926Y31893D01*
X22846Y31699D01*
X22818Y31490D01*
X22846Y31281D01*
X22896Y31159D01*
X22869Y31111D01*
X22803Y31052D01*
X22610Y31077D01*
X22502Y31063D01*
X22407Y31147D01*
Y35661D01*
X22509Y35763D01*
X25225D01*
X25434Y35791D01*
X25628Y35871D01*
X25796Y35999D01*
X25924Y36167D01*
X26004Y36361D01*
X26032Y36570D01*
X26004Y36779D01*
X25924Y36973D01*
X25796Y37141D01*
X25628Y37269D01*
X25434Y37349D01*
X25225Y37377D01*
X19582D01*
Y37987D01*
X19585Y37990D01*
X19696Y38155D01*
X19735Y38350D01*
Y39250D01*
X19710Y39373D01*
X19800Y39500D01*
X29373D01*
X29662Y39442D01*
D02*
G37*
%LPC*%
G36*
X26479Y6800D02*
X25720D01*
Y6041D01*
X26220D01*
X26319Y6061D01*
X26403Y6117D01*
X26459Y6201D01*
X26479Y6300D01*
Y6800D01*
D02*
G37*
G36*
X2881Y20020D02*
X2000D01*
Y19139D01*
X2051Y19146D01*
X2332Y19262D01*
X2573Y19447D01*
X2758Y19688D01*
X2874Y19969D01*
X2881Y20020D01*
D02*
G37*
G36*
X9800Y8311D02*
X9474Y8268D01*
X9170Y8142D01*
X8908Y7942D01*
X8708Y7680D01*
X8582Y7376D01*
X8539Y7050D01*
X8582Y6724D01*
X8708Y6420D01*
X8908Y6158D01*
X9170Y5958D01*
X9474Y5832D01*
X9800Y5789D01*
X10126Y5832D01*
X10430Y5958D01*
X10692Y6158D01*
X10875Y6398D01*
X11015Y6424D01*
X11084Y6334D01*
X11294Y6173D01*
X11538Y6072D01*
X11550Y6070D01*
Y7050D01*
Y8030D01*
X11538Y8028D01*
X11294Y7927D01*
X11084Y7766D01*
X11015Y7676D01*
X10875Y7702D01*
X10692Y7942D01*
X10430Y8142D01*
X10126Y8268D01*
X9800Y8311D01*
D02*
G37*
G36*
X13800D02*
X13474Y8268D01*
X13170Y8142D01*
X12908Y7942D01*
X12725Y7702D01*
X12585Y7676D01*
X12516Y7766D01*
X12306Y7927D01*
X12062Y8028D01*
X12050Y8030D01*
Y7050D01*
Y6070D01*
X12062Y6072D01*
X12306Y6173D01*
X12516Y6334D01*
X12585Y6424D01*
X12725Y6398D01*
X12908Y6158D01*
X13170Y5958D01*
X13474Y5832D01*
X13800Y5789D01*
X14126Y5832D01*
X14430Y5958D01*
X14520Y6027D01*
X14645Y6006D01*
X14690Y5940D01*
X14855Y5829D01*
X15050Y5790D01*
X16550D01*
X16745Y5829D01*
X16910Y5940D01*
X17021Y6105D01*
X17060Y6300D01*
Y7800D01*
X17021Y7995D01*
X16910Y8160D01*
X16745Y8271D01*
X16550Y8310D01*
X15050D01*
X14855Y8271D01*
X14690Y8160D01*
X14645Y8094D01*
X14520Y8073D01*
X14430Y8142D01*
X14126Y8268D01*
X13800Y8311D01*
D02*
G37*
G36*
X26220Y8059D02*
X25720D01*
Y7300D01*
X26479D01*
Y7800D01*
X26459Y7899D01*
X26403Y7983D01*
X26319Y8039D01*
X26220Y8059D01*
D02*
G37*
G36*
X3873Y12850D02*
X3564D01*
X3688Y12665D01*
X3873Y12541D01*
Y12850D01*
D02*
G37*
G36*
X60950Y31559D02*
Y31250D01*
X61259D01*
X61135Y31435D01*
X60950Y31559D01*
D02*
G37*
G36*
X60450D02*
X60265Y31435D01*
X60141Y31250D01*
X60450D01*
Y31559D01*
D02*
G37*
G36*
X61259Y30750D02*
X60950D01*
Y30441D01*
X61135Y30565D01*
X61259Y30750D01*
D02*
G37*
G36*
X60450D02*
X60141D01*
X60265Y30565D01*
X60450Y30441D01*
Y30750D01*
D02*
G37*
G36*
X76245Y24456D02*
Y23575D01*
X77126D01*
X77119Y23626D01*
X77003Y23907D01*
X76818Y24148D01*
X76577Y24333D01*
X76296Y24449D01*
X76245Y24456D01*
D02*
G37*
G36*
Y21031D02*
Y20150D01*
X77126D01*
X77119Y20201D01*
X77003Y20482D01*
X76818Y20723D01*
X76577Y20908D01*
X76296Y21024D01*
X76245Y21031D01*
D02*
G37*
G36*
Y17606D02*
Y16725D01*
X77126D01*
X77119Y16776D01*
X77003Y17057D01*
X76818Y17298D01*
X76577Y17483D01*
X76296Y17599D01*
X76245Y17606D01*
D02*
G37*
G36*
X77126Y19650D02*
X76245D01*
Y18769D01*
X76296Y18776D01*
X76577Y18892D01*
X76818Y19077D01*
X77003Y19318D01*
X77119Y19599D01*
X77126Y19650D01*
D02*
G37*
G36*
Y23075D02*
X76245D01*
Y22194D01*
X76296Y22201D01*
X76577Y22317D01*
X76818Y22502D01*
X77003Y22743D01*
X77119Y23024D01*
X77126Y23075D01*
D02*
G37*
G36*
X39630Y23709D02*
Y23400D01*
X39939D01*
X39815Y23585D01*
X39630Y23709D01*
D02*
G37*
G36*
X40940D02*
X40755Y23585D01*
X40631Y23400D01*
X40940D01*
Y23709D01*
D02*
G37*
G36*
X41440D02*
Y23400D01*
X41749D01*
X41625Y23585D01*
X41440Y23709D01*
D02*
G37*
G36*
X39130D02*
X38944Y23585D01*
X38821Y23400D01*
X39130D01*
Y23709D01*
D02*
G37*
G36*
X42750Y22900D02*
X42441D01*
X42565Y22715D01*
X42750Y22591D01*
Y22900D01*
D02*
G37*
G36*
X43559D02*
X43250D01*
Y22591D01*
X43435Y22715D01*
X43559Y22900D01*
D02*
G37*
G36*
X42750Y23709D02*
X42565Y23585D01*
X42441Y23400D01*
X42750D01*
Y23709D01*
D02*
G37*
G36*
X40940Y24710D02*
X40631D01*
X40755Y24525D01*
X40940Y24401D01*
Y24710D01*
D02*
G37*
G36*
X39130D02*
X38821D01*
X38944Y24525D01*
X39130Y24401D01*
Y24710D01*
D02*
G37*
G36*
X39939D02*
X39630D01*
Y24401D01*
X39815Y24525D01*
X39939Y24710D01*
D02*
G37*
G36*
X42750D02*
X42441D01*
X42565Y24525D01*
X42750Y24401D01*
Y24710D01*
D02*
G37*
G36*
X41749D02*
X41440D01*
Y24401D01*
X41625Y24525D01*
X41749Y24710D01*
D02*
G37*
G36*
X43250Y23709D02*
Y23400D01*
X43559D01*
X43435Y23585D01*
X43250Y23709D01*
D02*
G37*
G36*
X41749Y22900D02*
X41440D01*
Y22591D01*
X41625Y22715D01*
X41749Y22900D01*
D02*
G37*
G36*
X39130D02*
X38821D01*
X38944Y22715D01*
X39130Y22591D01*
Y22900D01*
D02*
G37*
G36*
X40940D02*
X40631D01*
X40755Y22715D01*
X40940Y22591D01*
Y22900D01*
D02*
G37*
G36*
X39939D02*
X39630D01*
Y22591D01*
X39815Y22715D01*
X39939Y22900D01*
D02*
G37*
G36*
Y26520D02*
X39630D01*
Y26211D01*
X39815Y26335D01*
X39939Y26520D01*
D02*
G37*
G36*
X39130D02*
X38821D01*
X38944Y26335D01*
X39130Y26211D01*
Y26520D01*
D02*
G37*
G36*
X43250Y25519D02*
Y25210D01*
X43559D01*
X43435Y25395D01*
X43250Y25519D01*
D02*
G37*
G36*
X42750Y26520D02*
X42441D01*
X42565Y26335D01*
X42750Y26211D01*
Y26520D01*
D02*
G37*
G36*
X41749D02*
X41440D01*
Y26211D01*
X41625Y26335D01*
X41749Y26520D01*
D02*
G37*
G36*
X40940D02*
X40631D01*
X40755Y26335D01*
X40940Y26211D01*
Y26520D01*
D02*
G37*
G36*
X39630Y25519D02*
Y25210D01*
X39939D01*
X39815Y25395D01*
X39630Y25519D01*
D02*
G37*
G36*
X39130D02*
X38944Y25395D01*
X38821Y25210D01*
X39130D01*
Y25519D01*
D02*
G37*
G36*
X43559Y24710D02*
X43250D01*
Y24401D01*
X43435Y24525D01*
X43559Y24710D01*
D02*
G37*
G36*
X42750Y25519D02*
X42565Y25395D01*
X42441Y25210D01*
X42750D01*
Y25519D01*
D02*
G37*
G36*
X41440D02*
Y25210D01*
X41749D01*
X41625Y25395D01*
X41440Y25519D01*
D02*
G37*
G36*
X40940D02*
X40755Y25395D01*
X40631Y25210D01*
X40940D01*
Y25519D01*
D02*
G37*
G36*
X43559Y26520D02*
X43250D01*
Y26211D01*
X43435Y26335D01*
X43559Y26520D01*
D02*
G37*
G36*
X40940Y27329D02*
X40755Y27205D01*
X40631Y27020D01*
X40940D01*
Y27329D01*
D02*
G37*
G36*
X39630D02*
Y27020D01*
X39939D01*
X39815Y27205D01*
X39630Y27329D01*
D02*
G37*
G36*
X39130D02*
X38944Y27205D01*
X38821Y27020D01*
X39130D01*
Y27329D01*
D02*
G37*
G36*
X43250D02*
Y27020D01*
X43559D01*
X43435Y27205D01*
X43250Y27329D01*
D02*
G37*
G36*
X42750D02*
X42565Y27205D01*
X42441Y27020D01*
X42750D01*
Y27329D01*
D02*
G37*
G36*
X41440D02*
Y27020D01*
X41749D01*
X41625Y27205D01*
X41440Y27329D01*
D02*
G37*
G36*
X65559Y30634D02*
Y30325D01*
X65869D01*
X65745Y30510D01*
X65559Y30634D01*
D02*
G37*
G36*
X65059D02*
X64874Y30510D01*
X64750Y30325D01*
X65059D01*
Y30634D01*
D02*
G37*
G36*
X65869Y29825D02*
X65559D01*
Y29516D01*
X65745Y29640D01*
X65869Y29825D01*
D02*
G37*
G36*
X65059D02*
X64750D01*
X64874Y29640D01*
X65059Y29516D01*
Y29825D01*
D02*
G37*
G36*
X9925Y31000D02*
X9616D01*
X9740Y30815D01*
X9925Y30691D01*
Y31000D01*
D02*
G37*
G36*
X10734D02*
X10425D01*
Y30691D01*
X10610Y30815D01*
X10734Y31000D01*
D02*
G37*
G36*
X83917Y31884D02*
X83732Y31760D01*
X83608Y31575D01*
X83917D01*
Y31884D01*
D02*
G37*
G36*
X84417D02*
Y31575D01*
X84727D01*
X84603Y31760D01*
X84417Y31884D01*
D02*
G37*
G36*
X84727Y31075D02*
X84417D01*
Y30766D01*
X84603Y30890D01*
X84727Y31075D01*
D02*
G37*
G36*
X83917D02*
X83608D01*
X83732Y30890D01*
X83917Y30766D01*
Y31075D01*
D02*
G37*
G36*
X82585Y-7555D02*
X82583D01*
X82575Y-7559D01*
X82564Y-7561D01*
X82548Y-7567D01*
X82527Y-7573D01*
X82501Y-7579D01*
X82470Y-7586D01*
X82435Y-7594D01*
X82431D01*
X82419Y-7598D01*
X82402Y-7602D01*
X82380Y-7608D01*
X82359Y-7614D01*
X82336Y-7622D01*
X82318Y-7629D01*
X82302Y-7637D01*
X82300Y-7639D01*
X82295Y-7643D01*
X82287Y-7651D01*
X82279Y-7661D01*
X82271Y-7672D01*
X82263Y-7688D01*
X82257Y-7703D01*
X82256Y-7723D01*
Y-7725D01*
Y-7731D01*
X82257Y-7742D01*
X82259Y-7754D01*
X82265Y-7768D01*
X82271Y-7783D01*
X82281Y-7799D01*
X82293Y-7813D01*
X82295Y-7815D01*
X82300Y-7819D01*
X82308Y-7824D01*
X82320Y-7830D01*
X82334Y-7838D01*
X82351Y-7844D01*
X82369Y-7848D01*
X82390Y-7850D01*
X82402D01*
X82414Y-7848D01*
X82431Y-7844D01*
X82451Y-7840D01*
X82472Y-7832D01*
X82494Y-7821D01*
X82517Y-7807D01*
X82519Y-7805D01*
X82525Y-7801D01*
X82531Y-7793D01*
X82540Y-7783D01*
X82550Y-7772D01*
X82560Y-7758D01*
X82568Y-7742D01*
X82575Y-7725D01*
Y-7723D01*
X82577Y-7719D01*
X82579Y-7711D01*
X82581Y-7698D01*
Y-7682D01*
X82583Y-7661D01*
X82585Y-7637D01*
Y-7606D01*
Y-7555D01*
D02*
G37*
G36*
X84431Y-7239D02*
X84417D01*
X84403Y-7243D01*
X84384Y-7247D01*
X84362Y-7255D01*
X84341Y-7265D01*
X84319Y-7280D01*
X84298Y-7300D01*
X84296Y-7302D01*
X84290Y-7309D01*
X84282Y-7323D01*
X84273Y-7341D01*
X84263Y-7364D01*
X84255Y-7391D01*
X84249Y-7423D01*
X84247Y-7458D01*
X84614D01*
Y-7456D01*
Y-7454D01*
Y-7448D01*
X84612Y-7440D01*
X84610Y-7421D01*
X84606Y-7397D01*
X84598Y-7372D01*
X84589Y-7345D01*
X84575Y-7319D01*
X84557Y-7296D01*
X84555Y-7294D01*
X84548Y-7286D01*
X84538Y-7278D01*
X84522Y-7267D01*
X84505Y-7257D01*
X84483Y-7247D01*
X84458Y-7241D01*
X84431Y-7239D01*
D02*
G37*
G36*
X3649Y32301D02*
X3339D01*
Y31992D01*
X3525Y32116D01*
X3649Y32301D01*
D02*
G37*
G36*
X2839D02*
X2530D01*
X2654Y32116D01*
X2839Y31992D01*
Y32301D01*
D02*
G37*
G36*
X5618Y32369D02*
X5309D01*
X5433Y32184D01*
X5618Y32060D01*
Y32369D01*
D02*
G37*
G36*
X6118Y33178D02*
Y32869D01*
X6427D01*
X6304Y33054D01*
X6118Y33178D01*
D02*
G37*
G36*
X6427Y32369D02*
X6118D01*
Y32060D01*
X6304Y32184D01*
X6427Y32369D01*
D02*
G37*
G36*
X5618Y33178D02*
X5433Y33054D01*
X5309Y32869D01*
X5618D01*
Y33178D01*
D02*
G37*
G36*
X3339Y33111D02*
Y32801D01*
X3649D01*
X3525Y32987D01*
X3339Y33111D01*
D02*
G37*
G36*
X2839D02*
X2654Y32987D01*
X2530Y32801D01*
X2839D01*
Y33111D01*
D02*
G37*
G36*
X78719Y-7253D02*
X78715D01*
X78703Y-7255D01*
X78686Y-7257D01*
X78662Y-7263D01*
X78637Y-7270D01*
X78612Y-7284D01*
X78584Y-7302D01*
X78559Y-7327D01*
X78557Y-7331D01*
X78549Y-7341D01*
X78539Y-7358D01*
X78528Y-7382D01*
X78514Y-7411D01*
X78504Y-7448D01*
X78496Y-7489D01*
X78495Y-7538D01*
Y-7540D01*
Y-7544D01*
Y-7551D01*
X78496Y-7561D01*
Y-7573D01*
X78498Y-7584D01*
X78502Y-7616D01*
X78510Y-7651D01*
X78522Y-7686D01*
X78537Y-7719D01*
X78559Y-7750D01*
X78563Y-7754D01*
X78571Y-7762D01*
X78584Y-7774D01*
X78604Y-7785D01*
X78627Y-7799D01*
X78655Y-7811D01*
X78684Y-7819D01*
X78719Y-7822D01*
X78723D01*
X78734Y-7821D01*
X78752Y-7819D01*
X78775Y-7813D01*
X78801Y-7805D01*
X78826Y-7791D01*
X78853Y-7774D01*
X78879Y-7750D01*
X78881Y-7746D01*
X78889Y-7737D01*
X78900Y-7719D01*
X78912Y-7696D01*
X78924Y-7666D01*
X78935Y-7629D01*
X78943Y-7586D01*
X78945Y-7538D01*
Y-7536D01*
Y-7532D01*
Y-7524D01*
Y-7514D01*
X78943Y-7505D01*
X78941Y-7491D01*
X78937Y-7460D01*
X78930Y-7426D01*
X78918Y-7391D01*
X78900Y-7358D01*
X78879Y-7327D01*
X78877Y-7323D01*
X78867Y-7315D01*
X78853Y-7304D01*
X78834Y-7290D01*
X78813Y-7276D01*
X78785Y-7265D01*
X78754Y-7257D01*
X78719Y-7253D01*
D02*
G37*
G36*
X11284Y36891D02*
X10975D01*
Y36581D01*
X11160Y36705D01*
X11284Y36891D01*
D02*
G37*
G36*
X11297Y34970D02*
Y34661D01*
X11607D01*
X11483Y34846D01*
X11297Y34970D01*
D02*
G37*
G36*
X10797D02*
X10612Y34846D01*
X10488Y34661D01*
X10797D01*
Y34970D01*
D02*
G37*
G36*
X79833Y-7245D02*
X79829D01*
X79817Y-7247D01*
X79802Y-7249D01*
X79780Y-7253D01*
X79757Y-7263D01*
X79733Y-7274D01*
X79708Y-7292D01*
X79684Y-7315D01*
X79683Y-7319D01*
X79675Y-7329D01*
X79667Y-7345D01*
X79655Y-7368D01*
X79645Y-7397D01*
X79636Y-7432D01*
X79628Y-7473D01*
X79626Y-7522D01*
Y-7524D01*
Y-7530D01*
Y-7538D01*
X79628Y-7547D01*
Y-7561D01*
X79630Y-7577D01*
X79634Y-7610D01*
X79642Y-7649D01*
X79651Y-7686D01*
X79667Y-7723D01*
X79677Y-7739D01*
X79686Y-7754D01*
X79688Y-7758D01*
X79698Y-7766D01*
X79712Y-7778D01*
X79729Y-7791D01*
X79751Y-7805D01*
X79776Y-7817D01*
X79805Y-7824D01*
X79839Y-7828D01*
X79842D01*
X79852Y-7826D01*
X79868Y-7824D01*
X79887Y-7821D01*
X79911Y-7811D01*
X79934Y-7799D01*
X79958Y-7783D01*
X79979Y-7760D01*
X79981Y-7756D01*
X79989Y-7746D01*
X79999Y-7731D01*
X80008Y-7705D01*
X80020Y-7674D01*
X80024Y-7657D01*
X80028Y-7635D01*
X80032Y-7614D01*
X80036Y-7588D01*
X80038Y-7563D01*
Y-7534D01*
Y-7532D01*
Y-7528D01*
Y-7520D01*
Y-7510D01*
X80036Y-7497D01*
X80034Y-7483D01*
X80030Y-7452D01*
X80024Y-7417D01*
X80012Y-7380D01*
X79999Y-7347D01*
X79979Y-7317D01*
X79977Y-7313D01*
X79969Y-7306D01*
X79956Y-7294D01*
X79938Y-7280D01*
X79919Y-7268D01*
X79893Y-7257D01*
X79864Y-7249D01*
X79833Y-7245D01*
D02*
G37*
G36*
X27375Y33634D02*
Y33325D01*
X27684D01*
X27560Y33510D01*
X27375Y33634D01*
D02*
G37*
G36*
X26875D02*
X26690Y33510D01*
X26566Y33325D01*
X26875D01*
Y33634D01*
D02*
G37*
G36*
X27684Y32825D02*
X27375D01*
Y32516D01*
X27560Y32640D01*
X27684Y32825D01*
D02*
G37*
G36*
X26875D02*
X26566D01*
X26690Y32640D01*
X26875Y32516D01*
Y32825D01*
D02*
G37*
G36*
X26320Y29509D02*
Y29200D01*
X26629D01*
X26505Y29385D01*
X26320Y29509D01*
D02*
G37*
G36*
X26629Y28700D02*
X26320D01*
Y28391D01*
X26505Y28515D01*
X26629Y28700D01*
D02*
G37*
G36*
X25820D02*
X25511D01*
X25635Y28515D01*
X25820Y28391D01*
Y28700D01*
D02*
G37*
%LPD*%
D10*
X60700Y32950D02*
D03*
X65800D02*
D03*
D11*
X71050Y30325D02*
D03*
D12*
X74150Y31825D02*
D03*
Y28825D02*
D03*
Y30325D02*
D03*
D13*
X57225Y15500D02*
D03*
X56275Y17900D02*
D03*
X58175D02*
D03*
Y15500D02*
D03*
X56275D02*
D03*
D14*
X11175Y20275D02*
D03*
D15*
X8201Y22174D02*
D03*
Y20904D02*
D03*
Y19634D02*
D03*
Y18364D02*
D03*
X14145Y22174D02*
D03*
Y20904D02*
D03*
Y19634D02*
D03*
Y18364D02*
D03*
D16*
X27025Y11325D02*
D03*
Y11975D02*
D03*
Y12625D02*
D03*
Y13275D02*
D03*
X21275Y11325D02*
D03*
Y11975D02*
D03*
Y12625D02*
D03*
Y13275D02*
D03*
D17*
X30525Y26110D02*
D03*
Y24710D02*
D03*
X14825Y26700D02*
D03*
Y28200D02*
D03*
X11375Y31250D02*
D03*
Y32750D02*
D03*
X30250Y33075D02*
D03*
Y31575D02*
D03*
X28575Y33075D02*
D03*
Y31575D02*
D03*
X30200Y29920D02*
D03*
Y28520D02*
D03*
X28575Y28420D02*
D03*
Y29920D02*
D03*
X28850Y26110D02*
D03*
Y24710D02*
D03*
X27175D02*
D03*
Y26110D02*
D03*
X5998Y19425D02*
D03*
Y17925D02*
D03*
X5998Y20904D02*
D03*
Y22304D02*
D03*
X28275Y21550D02*
D03*
Y20050D02*
D03*
D18*
X13225Y31325D02*
D03*
X14625D02*
D03*
Y32750D02*
D03*
X13225D02*
D03*
X13200Y26700D02*
D03*
X11800D02*
D03*
X13200Y28200D02*
D03*
X11800D02*
D03*
X14775Y29725D02*
D03*
X13275D02*
D03*
X17275Y38800D02*
D03*
X18775D02*
D03*
X61500Y22950D02*
D03*
X62900D02*
D03*
X70100Y16475D02*
D03*
X68700D02*
D03*
X70100Y23320D02*
D03*
X68700D02*
D03*
X70100Y19900D02*
D03*
X68700D02*
D03*
X3050Y15125D02*
D03*
X1650D02*
D03*
X3050Y11075D02*
D03*
X1650D02*
D03*
Y13100D02*
D03*
X3050D02*
D03*
X16473Y20919D02*
D03*
X17873D02*
D03*
X16523Y19419D02*
D03*
X17923D02*
D03*
X24575Y16900D02*
D03*
X23175D02*
D03*
X28025Y16900D02*
D03*
X26625D02*
D03*
X21100D02*
D03*
X19600D02*
D03*
X57800Y19975D02*
D03*
X56300D02*
D03*
X57225Y13350D02*
D03*
X58725D02*
D03*
X62900Y15300D02*
D03*
X61500D02*
D03*
Y19925D02*
D03*
X62900D02*
D03*
X61400Y17662D02*
D03*
X62900D02*
D03*
D19*
X14925Y37200D02*
D03*
Y35300D02*
D03*
X12725Y36250D02*
D03*
D20*
X18825Y36570D02*
D03*
Y35300D02*
D03*
Y34030D02*
D03*
Y32760D02*
D03*
Y31490D02*
D03*
Y30220D02*
D03*
Y28950D02*
D03*
Y27680D02*
D03*
X24425D02*
D03*
Y28950D02*
D03*
Y30220D02*
D03*
Y31490D02*
D03*
Y32760D02*
D03*
Y34030D02*
D03*
Y35300D02*
D03*
Y36570D02*
D03*
D21*
X41190Y24960D02*
D03*
D22*
X33690Y32460D02*
D03*
Y31190D02*
D03*
Y29920D02*
D03*
Y28650D02*
D03*
Y27380D02*
D03*
Y26110D02*
D03*
Y15950D02*
D03*
Y17220D02*
D03*
Y18490D02*
D03*
Y19760D02*
D03*
Y21030D02*
D03*
Y22300D02*
D03*
Y23570D02*
D03*
Y24840D02*
D03*
X50690D02*
D03*
Y23570D02*
D03*
Y22300D02*
D03*
Y21030D02*
D03*
Y19760D02*
D03*
Y18490D02*
D03*
Y17220D02*
D03*
Y15950D02*
D03*
Y26110D02*
D03*
Y27380D02*
D03*
Y28650D02*
D03*
Y29920D02*
D03*
Y31190D02*
D03*
Y32460D02*
D03*
D23*
X42825Y14950D02*
D03*
X44095D02*
D03*
X45365D02*
D03*
X46635D02*
D03*
X47905D02*
D03*
X41555D02*
D03*
X40285D02*
D03*
X39015D02*
D03*
X37745D02*
D03*
X36475D02*
D03*
D24*
X23075Y21150D02*
D03*
Y19250D02*
D03*
X25775D02*
D03*
Y21150D02*
D03*
X23075Y20200D02*
D03*
X25775D02*
D03*
D25*
X70425Y36000D02*
D03*
X74725D02*
D03*
D26*
X78175Y31325D02*
D03*
X82025D02*
D03*
D27*
X33079Y11775D02*
X37625D01*
X31179Y9875D02*
X33079Y11775D01*
X27050Y9875D02*
X31179D01*
X6422Y25450D02*
X19325D01*
X3982Y27890D02*
X6422Y25450D01*
X1750Y27890D02*
X3982D01*
X55250Y19975D02*
X56300D01*
X38300Y11100D02*
X44200D01*
X37625Y11775D02*
X38300Y11100D01*
X21600Y26725D02*
X24925Y23400D01*
X21600Y26725D02*
Y35995D01*
X21025Y36570D02*
X22175D01*
X18825D02*
X21025D01*
X21600Y35995D01*
X22175Y36570D02*
X24425D01*
X21600Y35995D02*
X22175Y36570D01*
X56275Y17900D02*
Y19950D01*
Y17700D02*
Y17900D01*
Y19950D02*
X56300Y19975D01*
X18775Y36620D02*
X18825Y36570D01*
X18775Y36620D02*
Y38800D01*
X16580Y36570D02*
X18825D01*
X15950Y37200D02*
X16580Y36570D01*
X14925Y37200D02*
X15950D01*
X31530Y31565D02*
X31905Y31190D01*
X31520Y31575D02*
X31530Y31565D01*
X31905Y31190D02*
X33690D01*
X30250Y31575D02*
X31520D01*
X30200Y28520D02*
X31530D01*
X30250Y31575D02*
X30250Y31575D01*
X28575Y31575D02*
X30250D01*
X44200Y11100D02*
X45775Y9525D01*
X52575D02*
X54800Y7300D01*
X57150D01*
X51510Y9035D02*
X52000Y9525D01*
X51510Y7050D02*
Y9035D01*
X52000Y9525D02*
X52575D01*
X51020D02*
X51510Y9035D01*
X45775Y9525D02*
X51020D01*
X52000D01*
D28*
X37450Y9000D02*
X38400Y8050D01*
X20798Y9000D02*
X37450D01*
X18723Y11075D02*
X20798Y9000D01*
X3050Y11075D02*
X18723D01*
X20625Y10275D02*
X24025D01*
X66744Y25712D02*
X80358D01*
X65757Y24725D02*
X66744Y25712D01*
X59748Y24725D02*
X65757D01*
X65478Y25279D02*
X66599Y26400D01*
X59519Y25279D02*
X65478D01*
X66592Y21925D02*
X71300D01*
X66275Y16475D02*
X68700D01*
X64524Y18226D02*
X66275Y16475D01*
X64524Y18226D02*
Y20847D01*
X64100Y21271D02*
X64524Y20847D01*
X52671Y21271D02*
X64100D01*
X80358Y25712D02*
X82210Y23860D01*
X58039Y23016D02*
X59748Y24725D01*
X41425Y3038D02*
X75846D01*
X40475Y3988D02*
X41425Y3038D01*
X40944Y4846D02*
X42198Y3592D01*
X39854Y4846D02*
X40944D01*
X39475Y4467D02*
X39854Y4846D01*
X38910Y5400D02*
X41174D01*
X38485Y4975D02*
X38910Y5400D01*
X42198Y3592D02*
X75617D01*
X41174Y5400D02*
X42428Y4146D01*
X75321D01*
X38400Y8050D02*
X42300D01*
X53550Y24510D02*
Y25400D01*
Y24510D02*
X54490Y23570D01*
X52750Y24050D02*
Y24625D01*
X51915Y31190D02*
X52400Y31675D01*
X50690Y31190D02*
X51915D01*
X37745Y13400D02*
X38920Y12225D01*
X37745Y13400D02*
Y14950D01*
X40269Y12075D02*
X41850D01*
X39015Y13329D02*
Y14950D01*
Y13329D02*
X40269Y12075D01*
X36250Y10275D02*
X44029D01*
X35800Y10725D02*
X36250Y10275D01*
X34740Y9675D02*
X43846D01*
X39500Y8850D02*
X43710D01*
X44029Y10275D02*
X45483Y8821D01*
X43846Y9675D02*
X45254Y8267D01*
X43710Y8850D02*
X45510Y7050D01*
X25075Y11325D02*
X27025D01*
X24025Y10275D02*
X25075Y11325D01*
X19775D02*
X21275D01*
X10675Y28200D02*
X11800D01*
X10675Y26700D02*
X11800D01*
X57810Y23570D02*
X59519Y25279D01*
X54490Y23570D02*
X57810D01*
X26780Y22850D02*
X29067D01*
X23800Y25830D02*
X26780Y22850D01*
X23800Y25830D02*
Y26250D01*
X26864Y23550D02*
X29150D01*
X24900Y25514D02*
Y26250D01*
Y25514D02*
X26864Y23550D01*
X33690Y10725D02*
X34740Y9675D01*
X81200Y15759D02*
Y21500D01*
X82625Y22925D01*
Y25120D02*
X87120D01*
X82346Y15338D02*
Y19246D01*
X82900Y17075D02*
X83325Y17500D01*
X82900Y15108D02*
Y17075D01*
X78149Y12708D02*
X81200Y15759D01*
X78379Y12154D02*
X81792Y15567D01*
X78608Y11600D02*
X82346Y15338D01*
X78617Y10825D02*
X82900Y15108D01*
X59967Y15300D02*
X61500D01*
X59767Y15500D02*
X59967Y15300D01*
X59175Y15500D02*
X59767D01*
X59471Y15796D02*
X59767Y15500D01*
X59175D02*
X59471Y15796D01*
X58175Y15500D02*
X59175D01*
X59471Y15796D02*
Y19246D01*
X60150Y19925D01*
X61500D01*
X20025Y14050D02*
X20275Y14300D01*
X20025Y12900D02*
Y14050D01*
Y12900D02*
X20300Y12625D01*
X21275D01*
X20275Y14300D02*
X28850D01*
X19025Y18675D02*
Y20725D01*
X16821Y16471D02*
X19025Y18675D01*
X14671Y16471D02*
X16821D01*
X17923Y18598D02*
Y19419D01*
X16350Y17025D02*
X17923Y18598D01*
X8125Y17025D02*
X16350D01*
X21275Y11975D02*
X22255D01*
X22400Y12120D01*
Y12450D01*
X22225Y12625D02*
X22400Y12450D01*
X21275Y12625D02*
X22225D01*
X25450Y12300D02*
X25775Y11975D01*
X27025D01*
X25450Y12300D02*
X25775Y12625D01*
X27025D01*
X21275Y13275D02*
X27025D01*
X24575Y16900D02*
Y17600D01*
X24150Y18025D02*
X24575Y17600D01*
X21350Y18025D02*
X24150D01*
X20800Y18575D02*
X21350Y18025D01*
X20800Y18575D02*
Y19630D01*
X21370Y20200D01*
X23075D01*
X21750Y19250D02*
X23075D01*
X21750Y21150D02*
X23075D01*
X3825Y21400D02*
Y22275D01*
X4775Y23225D01*
X12073D01*
X13124Y22174D01*
X14145D01*
X29067Y22850D02*
X32157Y19760D01*
X33690D01*
X29150Y23550D02*
X31670Y21030D01*
X33690D01*
X29671Y2529D02*
X31378Y822D01*
X78817Y2875D02*
X80275D01*
X76764Y822D02*
X78817Y2875D01*
X31378Y822D02*
X76764D01*
X30425Y2725D02*
X31774Y1376D01*
X30425Y2725D02*
Y3750D01*
X76535Y1376D02*
X78909Y3750D01*
X31774Y1376D02*
X76535D01*
X32570Y1930D02*
X76305D01*
X31800Y2700D02*
X32570Y1930D01*
X76305D02*
X78950Y4575D01*
X33266Y2484D02*
X76076D01*
X31960Y3790D02*
X33266Y2484D01*
X76076D02*
X79017Y5425D01*
X47510Y7050D02*
Y7915D01*
X49510Y7050D02*
Y8240D01*
X79017Y5425D02*
X81850D01*
X75846Y3038D02*
X79183Y6375D01*
X75617Y3592D02*
X79200Y7175D01*
X75321Y4146D02*
X79795Y8620D01*
X78909Y3750D02*
X79500D01*
X83325Y17500D02*
X87120D01*
X82346Y19246D02*
X83140Y20040D01*
X79183Y6375D02*
X82625D01*
X78950Y4575D02*
X81050D01*
X83535Y14960D02*
X87120D01*
X78634Y10059D02*
X83535Y14960D01*
X33690Y14675D02*
Y15950D01*
X79200Y7175D02*
X85550D01*
X18831Y20919D02*
X19025Y20725D01*
X17873Y20919D02*
X18831D01*
X45162Y11238D02*
X52641D01*
X42825Y13575D02*
X45162Y11238D01*
X42825Y13575D02*
Y14950D01*
X45683Y11792D02*
X52871D01*
X44095Y13380D02*
X45683Y11792D01*
X44095Y13380D02*
Y14950D01*
X40285Y13125D02*
Y14950D01*
X80032Y9890D02*
X87130D01*
X79093Y8951D02*
X80032Y9890D01*
X54928Y8951D02*
X79093D01*
X81778Y12420D02*
X87120D01*
X78863Y9505D02*
X81778Y12420D01*
X55158Y9505D02*
X78863D01*
X45254Y8267D02*
X47158D01*
X47510Y7915D01*
X48929Y8821D02*
X49510Y8240D01*
X45483Y8821D02*
X48929D01*
X41555Y13125D02*
Y14950D01*
X14130Y15930D02*
X14671Y16471D01*
X14130Y13900D02*
Y15930D01*
X7330Y16230D02*
X8125Y17025D01*
X7330Y13900D02*
Y16230D01*
X28850Y24710D02*
X30525D01*
X27175D02*
X28850D01*
X30525Y26110D02*
X30525Y26110D01*
X33690D01*
X54699Y8397D02*
X68803D01*
X52656Y10440D02*
X54699Y8397D01*
X46635Y10440D02*
X52656D01*
X52641Y11238D02*
X54928Y8951D01*
X52871Y11792D02*
X55158Y9505D01*
X55387Y10059D02*
X78634D01*
X53100Y12346D02*
X55387Y10059D01*
X46079Y12346D02*
X53100D01*
X55617Y10613D02*
X73763D01*
X53330Y12900D02*
X55617Y10613D01*
X48325Y12900D02*
X53330D01*
X55846Y11167D02*
X73534D01*
X53492Y13521D02*
X55846Y11167D01*
X53492Y13521D02*
Y16583D01*
X56076Y11721D02*
X73304D01*
X54046Y13751D02*
X56076Y11721D01*
X54046Y13751D02*
Y17904D01*
X56305Y12275D02*
X73075D01*
X54600Y13980D02*
X56305Y12275D01*
X54600Y13980D02*
Y18950D01*
X85550Y7175D02*
X86995Y8620D01*
X88400D01*
X65567Y22950D02*
X66592Y21925D01*
X62900Y22950D02*
X65567D01*
X74291Y12708D02*
X78149D01*
X87120Y25120D02*
X88400Y26400D01*
X83140Y20040D02*
X87120D01*
X74300Y13500D02*
X75750D01*
X73075Y12275D02*
X74300Y13500D01*
X73304Y11721D02*
X74291Y12708D01*
X74521Y12154D02*
X78379D01*
X73534Y11167D02*
X74521Y12154D01*
X74750Y11600D02*
X78608D01*
X73763Y10613D02*
X74750Y11600D01*
X75750Y10825D02*
X78617D01*
X87120Y17500D02*
X88400Y18780D01*
X87120Y14960D02*
X88400Y16240D01*
X87120Y12420D02*
X88400Y13700D01*
X87130Y9890D02*
X88400Y11160D01*
X87120Y22580D02*
X88400Y23860D01*
X87120Y20040D02*
X88400Y21320D01*
X68803Y8397D02*
X70150Y7050D01*
X45365Y13060D02*
X46079Y12346D01*
X45365Y13060D02*
Y14950D01*
X46635Y13340D02*
Y14950D01*
X47905Y13320D02*
Y14950D01*
Y13320D02*
X48325Y12900D01*
X58175Y14575D02*
Y15500D01*
Y14575D02*
X58725Y14025D01*
Y13350D02*
Y14025D01*
X52430Y21030D02*
X52671Y21271D01*
X50690Y21030D02*
X52430D01*
X65575Y21825D02*
X67500Y19900D01*
X52700Y21825D02*
X65575D01*
X52225Y22300D02*
X52700Y21825D01*
X50690Y15950D02*
X52325D01*
X52855Y17220D02*
X53492Y16583D01*
X50690Y17220D02*
X52855D01*
X58175Y15500D02*
Y16375D01*
X57875Y16675D02*
X58175Y16375D01*
X56600Y16675D02*
X57875D01*
X56275Y16350D02*
X56600Y16675D01*
X56275Y15500D02*
Y16350D01*
X53460Y18490D02*
X54046Y17904D01*
X50690Y18490D02*
X53460D01*
X53790Y19760D02*
X54600Y18950D01*
X50690Y19760D02*
X53790D01*
X67500Y19900D02*
X68700D01*
X50690Y22300D02*
X52225D01*
X59871Y24050D02*
X65250D01*
X58221Y22400D02*
X59871Y24050D01*
X53400Y22400D02*
X58221D01*
X50690Y23570D02*
X52230D01*
X53400Y22400D01*
X65250Y24050D02*
X65980Y23320D01*
X68700D01*
X73455Y16475D02*
X73455Y16475D01*
X70100Y16475D02*
X73455D01*
X70100Y19900D02*
X73455D01*
X70100Y23320D02*
X70105Y23325D01*
X73455D01*
X53784Y23016D02*
X58039D01*
X52750Y24050D02*
X53784Y23016D01*
X58950Y27075D02*
X83200D01*
X58220Y26345D02*
X58950Y27075D01*
X52435Y26345D02*
X58220D01*
X59021Y27629D02*
X82904D01*
X57775Y28875D02*
X59021Y27629D01*
X54890Y33965D02*
X57335D01*
X86755Y31480D02*
X88400D01*
X82904Y27629D02*
X86755Y31480D01*
X57775Y28875D02*
Y33525D01*
X57335Y33965D02*
X57775Y33525D01*
X85065Y28940D02*
X88400D01*
X83200Y27075D02*
X85065Y28940D01*
X53975Y33050D02*
X54890Y33965D01*
X53975Y30525D02*
Y33050D01*
X53370Y29920D02*
X53975Y30525D01*
X50690Y29920D02*
X53370D01*
X50690Y26110D02*
X52200D01*
X52435Y26345D01*
X82210Y23860D02*
X84475D01*
X79795Y8620D02*
X84475D01*
X66599Y26400D02*
X84475D01*
X81792Y15567D02*
Y20742D01*
X83630Y22580D01*
X87120D01*
D29*
X21775Y7050D02*
X23470D01*
X18625Y10200D02*
X21775Y7050D01*
X16670Y10200D02*
X18625D01*
X10240Y11975D02*
X16170D01*
X16670Y12475D02*
Y13900D01*
X16170Y11975D02*
X16670Y12475D01*
X5950Y11975D02*
X9500D01*
X5075Y12850D02*
Y14775D01*
Y12850D02*
X5950Y11975D01*
X9870Y12345D02*
Y13900D01*
X27150Y21550D02*
X28275D01*
X26500Y22200D02*
X27150Y21550D01*
X26125Y22200D02*
X26500D01*
X28275Y18300D02*
Y20050D01*
X28025Y18050D02*
X28275Y18300D01*
X28025Y16900D02*
Y18050D01*
X27075Y20200D02*
X27225Y20050D01*
X28275D01*
X25775Y20200D02*
X27075D01*
X25425Y22200D02*
X26125D01*
X25775Y21850D02*
X26125Y22200D01*
X16275D02*
X25425D01*
X25775Y21850D01*
Y21150D02*
Y21850D01*
X5992Y24483D02*
X15750D01*
X5125Y25350D02*
X5992Y24483D01*
X15361Y18364D02*
X15750Y17975D01*
X14145Y18364D02*
X15361D01*
X1750Y22810D02*
X3060D01*
X5075Y15475D02*
Y15925D01*
X3825Y17175D02*
X5075Y15925D01*
X3825Y17175D02*
Y17625D01*
Y18225D01*
Y17625D02*
X4125Y17925D01*
X3825Y18225D02*
Y21400D01*
Y18225D02*
X4125Y17925D01*
X5998D01*
X6625D01*
X7064Y18364D01*
X8201D01*
X5075Y14775D02*
Y15475D01*
X4725Y15125D02*
X5075Y14775D01*
X4725Y15125D02*
X5075Y15475D01*
X3050Y15125D02*
X4725D01*
X9500Y11975D02*
X10240D01*
X9870Y12345D02*
X10240Y11975D01*
X9500D02*
X9870Y12345D01*
X1750Y25350D02*
X5125D01*
X14646Y23829D02*
X16275Y22200D01*
X3060Y22810D02*
X4079Y23829D01*
X14646D01*
D30*
X10106Y38500D02*
X14450D01*
X8500Y36894D02*
X10106Y38500D01*
X8500Y32625D02*
Y36894D01*
X6305Y30430D02*
X8500Y32625D01*
X62900Y13950D02*
Y15300D01*
X1750Y30430D02*
X6305D01*
X14450Y38500D02*
X14925Y38025D01*
Y37200D02*
Y38025D01*
D31*
X41434Y6065D02*
X42699Y4800D01*
X61100D01*
X41565Y7000D02*
X42965Y5600D01*
X59200D01*
X38210Y6065D02*
X41434D01*
X38000Y7000D02*
X41565D01*
X36820Y4675D02*
X38210Y6065D01*
X28850Y4675D02*
X36820D01*
X36575Y5575D02*
X38000Y7000D01*
X36030Y5575D02*
X36575D01*
X57225Y14375D02*
Y15500D01*
Y13350D02*
Y14375D01*
X60700Y32950D02*
Y38075D01*
X59525Y39250D02*
X60700Y38075D01*
X54850Y39250D02*
X59525D01*
X54075Y38475D02*
X54850Y39250D01*
X54075Y36200D02*
Y38475D01*
X52450Y34575D02*
X54075Y36200D01*
X52450Y33000D02*
Y34575D01*
X51910Y32460D02*
X52450Y33000D01*
X50690Y32460D02*
X51910D01*
X54685Y35235D02*
X56200D01*
X53321Y33871D02*
X54685Y35235D01*
X53321Y31166D02*
Y33871D01*
X52855Y30700D02*
X53321Y31166D01*
X33690Y17220D02*
X35800D01*
X33690Y27380D02*
X36520D01*
X33690Y28650D02*
X36520D01*
X24425Y31490D02*
X26240D01*
X26070Y28950D02*
X26600Y28420D01*
X24425Y28950D02*
X26070D01*
X78638Y14775D02*
X80050Y16187D01*
X66850Y14775D02*
X78638D01*
X63963Y17662D02*
X66850Y14775D01*
X10175Y31250D02*
X11375D01*
X59250Y26175D02*
X65059D01*
X58150Y25075D02*
X59250Y26175D01*
X56200Y25075D02*
X58150D01*
X62900Y17662D02*
X63963D01*
X80050Y16187D02*
Y21525D01*
X81425Y22900D01*
X82025Y31325D02*
X84167D01*
X62900Y17662D02*
X62900Y17662D01*
Y19925D01*
X60225Y17662D02*
X61400D01*
X22610Y30220D02*
X24425D01*
X19950Y15650D02*
X26225D01*
X19600Y16000D02*
X19950Y15650D01*
X26625Y16050D02*
Y16900D01*
X27025Y15650D02*
X27025Y15650D01*
X26625Y16050D02*
X27025Y15650D01*
X27975D01*
X26225D02*
X27025D01*
X26225D02*
X26625Y16050D01*
X19600Y16000D02*
Y16900D01*
X18325D02*
X19600D01*
X35050Y5575D02*
X36030D01*
X35540Y6065D02*
X36030Y5575D01*
X27975D02*
X35050D01*
X35540Y6065D01*
Y7050D01*
X16350Y26700D02*
X17330Y27680D01*
X14825Y26700D02*
X16350D01*
X14825Y26700D02*
X14825Y26700D01*
X13200Y26700D02*
X14825D01*
X16300Y28200D02*
X17050Y28950D01*
X14825Y28200D02*
X16300D01*
X13200D02*
X14825D01*
X10200Y32750D02*
X11375D01*
X22138Y16900D02*
X23175D01*
X21100D02*
X22138D01*
X23175D02*
X23175Y16900D01*
X7084Y19634D02*
X8201D01*
X6875Y19425D02*
X7084Y19634D01*
X5998Y19425D02*
X6875D01*
X4925D02*
X5998D01*
X3050Y13100D02*
X4123D01*
X6899Y22175D02*
X8200D01*
X6770Y22304D02*
X6899Y22175D01*
X4925Y22304D02*
X5998D01*
X59580Y5980D02*
Y7050D01*
X59200Y5600D02*
X59580Y5980D01*
X31960Y23570D02*
X33690D01*
X31960Y18490D02*
X33690D01*
X31960Y24840D02*
X33690D01*
X31960Y22300D02*
X33690D01*
X61100Y4800D02*
X61580Y5280D01*
X15506Y19419D02*
X16523D01*
X15291Y19634D02*
X15506Y19419D01*
X14145Y19634D02*
X15291D01*
X16458Y20904D02*
X16473Y20919D01*
X14145Y20904D02*
X16458D01*
X1650Y11075D02*
Y13100D01*
Y15125D01*
X8200Y22175D02*
X8201Y22174D01*
X5998Y22304D02*
X6770D01*
X5998Y20904D02*
X5998Y20904D01*
X8201D01*
X13225Y29775D02*
X13275Y29725D01*
X13225Y29775D02*
Y31325D01*
X13150Y31250D02*
X13225Y31325D01*
X11375Y31250D02*
X13150D01*
X18825Y31490D02*
X20640D01*
X17330Y27680D02*
X18825D01*
X17050Y28950D02*
X18825D01*
X17000Y30220D02*
X18825D01*
X16505Y29725D02*
X17000Y30220D01*
X14775Y29725D02*
X16505D01*
X16000Y38800D02*
X17275D01*
X23045Y34030D02*
X24425D01*
X22700Y34375D02*
X23045Y34030D01*
X22700Y34375D02*
Y35050D01*
X22950Y35300D01*
X24425D01*
X18825Y35300D02*
X18825Y35300D01*
X14925Y35300D02*
X18825D01*
X12850Y34030D02*
X13600D01*
X12725Y34155D02*
X12850Y34030D01*
X12725Y34155D02*
Y36250D01*
X12850Y34030D02*
X13225Y33655D01*
X13600Y34030D02*
X18825D01*
X13225Y33655D02*
X13600Y34030D01*
X13225Y32750D02*
Y33655D01*
X11375Y32750D02*
X11375Y32750D01*
X13225D01*
X14625Y31325D02*
Y32750D01*
X18815D02*
X18825Y32760D01*
X14625Y32750D02*
X18815D01*
X27175Y26110D02*
Y27325D01*
X26600Y28420D02*
X28575D01*
Y27350D02*
Y28420D01*
Y27350D02*
X28850Y27075D01*
Y26110D02*
Y27075D01*
X25860Y27680D02*
X26600Y28420D01*
X24425Y27680D02*
X25860D01*
X61580Y5280D02*
Y7050D01*
X57225Y13150D02*
X57225Y13150D01*
X57800Y19975D02*
X58975D01*
X60325Y22950D02*
X61500D01*
X74150Y28825D02*
X75625D01*
X54875Y31370D02*
X56200Y32695D01*
X54875Y30125D02*
Y31370D01*
X53400Y28650D02*
X54875Y30125D01*
X50690Y28650D02*
X53400D01*
X53425Y27380D02*
X56200Y30155D01*
X50690Y27380D02*
X53425D01*
X33690Y29920D02*
X36520D01*
X33690Y29920D02*
X33690Y29920D01*
X30200Y29920D02*
X33690D01*
X28575D02*
X30200D01*
X24425Y34030D02*
X26170D01*
X27125Y33075D01*
X28575D01*
X28575Y33075D01*
X30250D01*
X31425D01*
X32040Y32460D01*
X33690D01*
D32*
X60700Y31000D02*
Y32950D01*
D33*
X84475Y26400D02*
D03*
Y21320D02*
D03*
Y18780D02*
D03*
Y11160D02*
D03*
Y13700D02*
D03*
Y16240D02*
D03*
Y23860D02*
D03*
X56200Y30155D02*
D03*
Y32695D02*
D03*
Y35235D02*
D03*
Y27615D02*
D03*
Y25075D02*
D03*
D34*
X84475Y8620D02*
D03*
X56200Y37775D02*
D03*
D35*
X15800Y7050D02*
D03*
X61580D02*
D03*
X25470D02*
D03*
X35540D02*
D03*
X72150D02*
D03*
X51510D02*
D03*
D36*
X13800D02*
D03*
X11800D02*
D03*
X9800D02*
D03*
X59580D02*
D03*
X23470D02*
D03*
X33540D02*
D03*
X70150D02*
D03*
X43510D02*
D03*
X45510D02*
D03*
X47510D02*
D03*
X49510D02*
D03*
D37*
X87000Y3000D02*
D03*
Y37000D02*
D03*
X3000D02*
D03*
Y3000D02*
D03*
D38*
X75995Y23325D02*
D03*
Y16475D02*
D03*
Y19900D02*
D03*
X7330Y13900D02*
D03*
X14130D02*
D03*
X88400Y26400D02*
D03*
Y23860D02*
D03*
Y21320D02*
D03*
Y18780D02*
D03*
Y16240D02*
D03*
Y13700D02*
D03*
Y11160D02*
D03*
Y28940D02*
D03*
Y8620D02*
D03*
X1750Y22810D02*
D03*
Y25350D02*
D03*
Y27890D02*
D03*
Y20270D02*
D03*
D39*
X73455Y23325D02*
D03*
Y16475D02*
D03*
Y19900D02*
D03*
X9870Y13900D02*
D03*
X16670D02*
D03*
D40*
X88400Y31480D02*
D03*
X1750Y30430D02*
D03*
D41*
X10725Y37141D02*
D03*
X11047Y34411D02*
D03*
X5868Y32619D02*
D03*
X3089Y32551D02*
D03*
X40475Y3988D02*
D03*
X16670Y10200D02*
D03*
X42300Y8050D02*
D03*
X52400Y31675D02*
D03*
X39500Y8850D02*
D03*
X41850Y12075D02*
D03*
X20625Y10275D02*
D03*
X19775Y11325D02*
D03*
X26240Y31490D02*
D03*
X26070Y28950D02*
D03*
X19325Y25450D02*
D03*
X66850Y14775D02*
D03*
X10175Y31250D02*
D03*
X10675Y28200D02*
D03*
Y26700D02*
D03*
X55250Y19975D02*
D03*
X65059Y26175D02*
D03*
X24925Y23400D02*
D03*
X27050Y9875D02*
D03*
X33690Y10725D02*
D03*
X57150Y7300D02*
D03*
X65309Y30075D02*
D03*
X62900Y13950D02*
D03*
X84167Y31325D02*
D03*
X81425Y22900D02*
D03*
X60225Y17662D02*
D03*
X23800Y26250D02*
D03*
X24900D02*
D03*
X22610Y30220D02*
D03*
X18325Y16900D02*
D03*
X27975Y15650D02*
D03*
Y5575D02*
D03*
X28850Y14300D02*
D03*
X27150Y21550D02*
D03*
X28850Y4675D02*
D03*
X10200Y32750D02*
D03*
X25450Y12300D02*
D03*
X21750Y19250D02*
D03*
Y21150D02*
D03*
X22138Y16900D02*
D03*
X15750Y24483D02*
D03*
Y17975D02*
D03*
X4925Y19425D02*
D03*
X4123Y13100D02*
D03*
X4925Y22304D02*
D03*
X80275Y2875D02*
D03*
X39475Y4467D02*
D03*
X38485Y4975D02*
D03*
X29671Y2529D02*
D03*
X31960Y23570D02*
D03*
X30425Y3750D02*
D03*
X31800Y2700D02*
D03*
X79500Y3750D02*
D03*
X31960Y3790D02*
D03*
Y18490D02*
D03*
X81050Y4575D02*
D03*
X33690Y14675D02*
D03*
X31960Y24840D02*
D03*
Y22300D02*
D03*
X81850Y5425D02*
D03*
X35800Y10725D02*
D03*
Y17220D02*
D03*
X38920Y12225D02*
D03*
X40285Y13125D02*
D03*
X82625Y6375D02*
D03*
X41555Y13125D02*
D03*
X20640Y31490D02*
D03*
X16000Y38800D02*
D03*
X27175Y27325D02*
D03*
X31530Y31565D02*
D03*
Y28520D02*
D03*
X71300Y21925D02*
D03*
X82625Y25120D02*
D03*
Y22925D02*
D03*
X75750Y13500D02*
D03*
Y10825D02*
D03*
X46635Y10440D02*
D03*
Y13340D02*
D03*
X57225Y14375D02*
D03*
X52325Y15950D02*
D03*
X58975Y19975D02*
D03*
X60325Y22950D02*
D03*
X52750Y24625D02*
D03*
X53550Y25400D02*
D03*
X43000Y23150D02*
D03*
X41190D02*
D03*
X39380D02*
D03*
X43000Y26770D02*
D03*
X39380D02*
D03*
X41190D02*
D03*
X39380Y24960D02*
D03*
X43000D02*
D03*
X41190D02*
D03*
X36520Y27380D02*
D03*
Y28650D02*
D03*
X60700Y31000D02*
D03*
X75625Y28825D02*
D03*
X52855Y30700D02*
D03*
X36520Y29920D02*
D03*
X27125Y33075D02*
D03*
M02*
