G04 Layer_Color=32768*
%FSLAX43Y43*%
%MOMM*%
G71*
G01*
G75*
%ADD45C,0.100*%
D45*
X11175Y19775D02*
Y20775D01*
X10675Y20275D02*
X11675D01*
X7224Y17575D02*
X15054D01*
X7224Y22975D02*
X15054D01*
Y17575D02*
Y22975D01*
X7224Y17575D02*
Y22975D01*
X23650Y12300D02*
X24650D01*
X24150Y11800D02*
Y12800D01*
X20250Y10425D02*
X28050D01*
X20250Y14125D02*
X28050D01*
Y10425D02*
Y14125D01*
X20250Y10425D02*
Y14125D01*
X14325Y27450D02*
X15325D01*
X14825Y26950D02*
Y27950D01*
X21620Y31619D02*
Y32619D01*
X21120Y32119D02*
X22120D01*
X17692Y27014D02*
X25681D01*
X17692Y37211D02*
X25681D01*
Y27014D02*
Y37211D01*
X17692Y27014D02*
Y37211D01*
X14025Y29225D02*
Y30225D01*
X13525Y29725D02*
X14525D01*
X18025Y38300D02*
Y39300D01*
X17525Y38800D02*
X18525D01*
X10875Y32000D02*
X11875D01*
X11375Y31500D02*
Y32500D01*
X29750Y32325D02*
X30750D01*
X30250Y31825D02*
Y32825D01*
X28075Y32325D02*
X29075D01*
X28575Y31825D02*
Y32825D01*
X28075Y29170D02*
X29075D01*
X28575Y28670D02*
Y29670D01*
X5498Y18675D02*
X6498D01*
X5998Y18175D02*
Y19175D01*
X27775Y20800D02*
X28775D01*
X28275Y20300D02*
Y21300D01*
X20350Y16400D02*
Y17400D01*
X19850Y16900D02*
X20850D01*
X57050Y19475D02*
Y20475D01*
X56550Y19975D02*
X57550D01*
X57975Y12850D02*
Y13850D01*
X57475Y13350D02*
X58475D01*
X62150Y17162D02*
Y18162D01*
X61650Y17662D02*
X62650D01*
M02*
