G04 Layer_Color=128*
%FSLAX43Y43*%
%MOMM*%
G71*
G01*
G75*
%ADD44C,0.051*%
D44*
X83925Y26400D02*
X85025D01*
X84475Y25850D02*
Y26950D01*
X83925Y21320D02*
X85025D01*
X84475Y20770D02*
Y21870D01*
X83925Y18780D02*
X85025D01*
X84475Y18230D02*
Y19330D01*
X83925Y8620D02*
X85025D01*
X84475Y8070D02*
Y9170D01*
X83925Y11160D02*
X85025D01*
X84475Y10610D02*
Y11710D01*
X83925Y13700D02*
X85025D01*
X84475Y13150D02*
Y14250D01*
X83925Y16240D02*
X85025D01*
X84475Y15690D02*
Y16790D01*
X83925Y23860D02*
X85025D01*
X84475Y23310D02*
Y24410D01*
X55650Y30155D02*
X56750D01*
X56200Y29605D02*
Y30705D01*
X55650Y32695D02*
X56750D01*
X56200Y32145D02*
Y33245D01*
X55650Y35235D02*
X56750D01*
X56200Y34685D02*
Y35785D01*
X55650Y37775D02*
X56750D01*
X56200Y37225D02*
Y38325D01*
X55650Y27615D02*
X56750D01*
X56200Y27065D02*
Y28165D01*
X55650Y25075D02*
X56750D01*
X56200Y24525D02*
Y25625D01*
X15400Y7050D02*
X16200D01*
X15800Y6650D02*
Y7450D01*
X13400Y7050D02*
X14200D01*
X13800Y6650D02*
Y7450D01*
X11400Y7050D02*
X12200D01*
X11800Y6650D02*
Y7450D01*
X9400Y7050D02*
X10200D01*
X9800Y6650D02*
Y7450D01*
X61180Y7050D02*
X61980D01*
X61580Y6650D02*
Y7450D01*
X59180Y7050D02*
X59980D01*
X59580Y6650D02*
Y7450D01*
X23070Y7050D02*
X23870D01*
X23470Y6650D02*
Y7450D01*
X25070Y7050D02*
X25870D01*
X25470Y6650D02*
Y7450D01*
X33140Y7050D02*
X33940D01*
X33540Y6650D02*
Y7450D01*
X35140Y7050D02*
X35940D01*
X35540Y6650D02*
Y7450D01*
X71750Y7050D02*
X72550D01*
X72150Y6650D02*
Y7450D01*
X69750Y7050D02*
X70550D01*
X70150Y6650D02*
Y7450D01*
X43110Y7050D02*
X43910D01*
X43510Y6650D02*
Y7450D01*
X45110Y7050D02*
X45910D01*
X45510Y6650D02*
Y7450D01*
X47110Y7050D02*
X47910D01*
X47510Y6650D02*
Y7450D01*
X49110Y7050D02*
X49910D01*
X49510Y6650D02*
Y7450D01*
X51110Y7050D02*
X51910D01*
X51510Y6650D02*
Y7450D01*
X85500Y3000D02*
X88500D01*
X87000Y1500D02*
Y4500D01*
X85500Y37000D02*
X88500D01*
X87000Y35500D02*
Y38500D01*
X1500Y37000D02*
X4500D01*
X3000Y35500D02*
Y38500D01*
X1500Y3000D02*
X4500D01*
X3000Y1500D02*
Y4500D01*
X75445Y23325D02*
X76545D01*
X75995Y22775D02*
Y23875D01*
X72905Y23325D02*
X74005D01*
X73455Y22775D02*
Y23875D01*
X75445Y16475D02*
X76545D01*
X75995Y15925D02*
Y17025D01*
X72905Y16475D02*
X74005D01*
X73455Y15925D02*
Y17025D01*
X75445Y19900D02*
X76545D01*
X75995Y19350D02*
Y20450D01*
X72905Y19900D02*
X74005D01*
X73455Y19350D02*
Y20450D01*
X6780Y13900D02*
X7880D01*
X7330Y13350D02*
Y14450D01*
X9320Y13900D02*
X10420D01*
X9870Y13350D02*
Y14450D01*
X13580Y13900D02*
X14680D01*
X14130Y13350D02*
Y14450D01*
X16120Y13900D02*
X17220D01*
X16670Y13350D02*
Y14450D01*
X87850Y31480D02*
X88950D01*
X88400Y30930D02*
Y32030D01*
X87850Y26400D02*
X88950D01*
X88400Y25850D02*
Y26950D01*
X87850Y23860D02*
X88950D01*
X88400Y23310D02*
Y24410D01*
X87850Y21320D02*
X88950D01*
X88400Y20770D02*
Y21870D01*
X87850Y18780D02*
X88950D01*
X88400Y18230D02*
Y19330D01*
X87850Y16240D02*
X88950D01*
X88400Y15690D02*
Y16790D01*
X87850Y13700D02*
X88950D01*
X88400Y13150D02*
Y14250D01*
X87850Y11160D02*
X88950D01*
X88400Y10610D02*
Y11710D01*
X87850Y28940D02*
X88950D01*
X88400Y28390D02*
Y29490D01*
X87850Y8620D02*
X88950D01*
X88400Y8070D02*
Y9170D01*
X1200Y22810D02*
X2300D01*
X1750Y22260D02*
Y23360D01*
X1200Y25350D02*
X2300D01*
X1750Y24800D02*
Y25900D01*
X1200Y27890D02*
X2300D01*
X1750Y27340D02*
Y28440D01*
X1200Y30430D02*
X2300D01*
X1750Y29880D02*
Y30980D01*
X1200Y20270D02*
X2300D01*
X1750Y19720D02*
Y20820D01*
X10575Y37141D02*
X10875D01*
X10725Y36991D02*
Y37291D01*
X10897Y34411D02*
X11197D01*
X11047Y34261D02*
Y34561D01*
X5718Y32619D02*
X6018D01*
X5868Y32469D02*
Y32769D01*
X2939Y32551D02*
X3239D01*
X3089Y32401D02*
Y32701D01*
X40325Y3988D02*
X40625D01*
X40475Y3838D02*
Y4138D01*
X16520Y10200D02*
X16820D01*
X16670Y10050D02*
Y10350D01*
X42150Y8050D02*
X42450D01*
X42300Y7900D02*
Y8200D01*
X52250Y31675D02*
X52550D01*
X52400Y31525D02*
Y31825D01*
X39350Y8850D02*
X39650D01*
X39500Y8700D02*
Y9000D01*
X41700Y12075D02*
X42000D01*
X41850Y11925D02*
Y12225D01*
X20475Y10275D02*
X20775D01*
X20625Y10125D02*
Y10425D01*
X19625Y11325D02*
X19925D01*
X19775Y11175D02*
Y11475D01*
X26090Y31490D02*
X26390D01*
X26240Y31340D02*
Y31640D01*
X25920Y28950D02*
X26220D01*
X26070Y28800D02*
Y29100D01*
X19175Y25450D02*
X19475D01*
X19325Y25300D02*
Y25600D01*
X66700Y14775D02*
X67000D01*
X66850Y14625D02*
Y14925D01*
X10025Y31250D02*
X10325D01*
X10175Y31100D02*
Y31400D01*
X10525Y28200D02*
X10825D01*
X10675Y28050D02*
Y28350D01*
X10525Y26700D02*
X10825D01*
X10675Y26550D02*
Y26850D01*
X55100Y19975D02*
X55400D01*
X55250Y19825D02*
Y20125D01*
X64909Y26175D02*
X65209D01*
X65059Y26025D02*
Y26325D01*
X24775Y23400D02*
X25075D01*
X24925Y23250D02*
Y23550D01*
X26900Y9875D02*
X27200D01*
X27050Y9725D02*
Y10025D01*
X33540Y10725D02*
X33840D01*
X33690Y10575D02*
Y10875D01*
X57000Y7300D02*
X57300D01*
X57150Y7150D02*
Y7450D01*
X65159Y30075D02*
X65459D01*
X65309Y29925D02*
Y30225D01*
X62750Y13950D02*
X63050D01*
X62900Y13800D02*
Y14100D01*
X84017Y31325D02*
X84317D01*
X84167Y31175D02*
Y31475D01*
X81275Y22900D02*
X81575D01*
X81425Y22750D02*
Y23050D01*
X60075Y17662D02*
X60375D01*
X60225Y17512D02*
Y17812D01*
X23650Y26250D02*
X23950D01*
X23800Y26100D02*
Y26400D01*
X24750Y26250D02*
X25050D01*
X24900Y26100D02*
Y26400D01*
X22460Y30220D02*
X22760D01*
X22610Y30070D02*
Y30370D01*
X18175Y16900D02*
X18475D01*
X18325Y16750D02*
Y17050D01*
X27825Y15650D02*
X28125D01*
X27975Y15500D02*
Y15800D01*
X27825Y5575D02*
X28125D01*
X27975Y5425D02*
Y5725D01*
X28700Y14300D02*
X29000D01*
X28850Y14150D02*
Y14450D01*
X27000Y21550D02*
X27300D01*
X27150Y21400D02*
Y21700D01*
X28700Y4675D02*
X29000D01*
X28850Y4525D02*
Y4825D01*
X10050Y32750D02*
X10350D01*
X10200Y32600D02*
Y32900D01*
X25300Y12300D02*
X25600D01*
X25450Y12150D02*
Y12450D01*
X21600Y19250D02*
X21900D01*
X21750Y19100D02*
Y19400D01*
X21600Y21150D02*
X21900D01*
X21750Y21000D02*
Y21300D01*
X21987Y16900D02*
X22288D01*
X22138Y16750D02*
Y17050D01*
X15600Y24483D02*
X15900D01*
X15750Y24333D02*
Y24633D01*
X15600Y17975D02*
X15900D01*
X15750Y17825D02*
Y18125D01*
X4775Y19425D02*
X5075D01*
X4925Y19275D02*
Y19575D01*
X3973Y13100D02*
X4273D01*
X4123Y12950D02*
Y13250D01*
X4775Y22304D02*
X5075D01*
X4925Y22154D02*
Y22454D01*
X80125Y2875D02*
X80425D01*
X80275Y2725D02*
Y3025D01*
X39325Y4467D02*
X39625D01*
X39475Y4317D02*
Y4617D01*
X38335Y4975D02*
X38635D01*
X38485Y4825D02*
Y5125D01*
X29521Y2529D02*
X29821D01*
X29671Y2379D02*
Y2679D01*
X31810Y23570D02*
X32110D01*
X31960Y23420D02*
Y23720D01*
X30275Y3750D02*
X30575D01*
X30425Y3600D02*
Y3900D01*
X31650Y2700D02*
X31950D01*
X31800Y2550D02*
Y2850D01*
X79350Y3750D02*
X79650D01*
X79500Y3600D02*
Y3900D01*
X31810Y3790D02*
X32110D01*
X31960Y3640D02*
Y3940D01*
X31810Y18490D02*
X32110D01*
X31960Y18340D02*
Y18640D01*
X80900Y4575D02*
X81200D01*
X81050Y4425D02*
Y4725D01*
X33540Y14675D02*
X33840D01*
X33690Y14525D02*
Y14825D01*
X31810Y24840D02*
X32110D01*
X31960Y24690D02*
Y24990D01*
X31810Y22300D02*
X32110D01*
X31960Y22150D02*
Y22450D01*
X81700Y5425D02*
X82000D01*
X81850Y5275D02*
Y5575D01*
X35650Y10725D02*
X35950D01*
X35800Y10575D02*
Y10875D01*
X35650Y17220D02*
X35950D01*
X35800Y17070D02*
Y17370D01*
X38770Y12225D02*
X39070D01*
X38920Y12075D02*
Y12375D01*
X40135Y13125D02*
X40435D01*
X40285Y12975D02*
Y13275D01*
X82475Y6375D02*
X82775D01*
X82625Y6225D02*
Y6525D01*
X41405Y13125D02*
X41705D01*
X41555Y12975D02*
Y13275D01*
X20490Y31490D02*
X20790D01*
X20640Y31340D02*
Y31640D01*
X15850Y38800D02*
X16150D01*
X16000Y38650D02*
Y38950D01*
X27025Y27325D02*
X27325D01*
X27175Y27175D02*
Y27475D01*
X31380Y31565D02*
X31680D01*
X31530Y31415D02*
Y31715D01*
X31380Y28520D02*
X31680D01*
X31530Y28370D02*
Y28670D01*
X71150Y21925D02*
X71450D01*
X71300Y21775D02*
Y22075D01*
X82475Y25120D02*
X82775D01*
X82625Y24970D02*
Y25270D01*
X82475Y22925D02*
X82775D01*
X82625Y22775D02*
Y23075D01*
X75600Y13500D02*
X75900D01*
X75750Y13350D02*
Y13650D01*
X75600Y10825D02*
X75900D01*
X75750Y10675D02*
Y10975D01*
X46485Y10440D02*
X46785D01*
X46635Y10290D02*
Y10590D01*
X46485Y13340D02*
X46785D01*
X46635Y13190D02*
Y13490D01*
X57075Y14375D02*
X57375D01*
X57225Y14225D02*
Y14525D01*
X52175Y15950D02*
X52475D01*
X52325Y15800D02*
Y16100D01*
X58825Y19975D02*
X59125D01*
X58975Y19825D02*
Y20125D01*
X60175Y22950D02*
X60475D01*
X60325Y22800D02*
Y23100D01*
X52600Y24625D02*
X52900D01*
X52750Y24475D02*
Y24775D01*
X53400Y25400D02*
X53700D01*
X53550Y25250D02*
Y25550D01*
X42850Y23150D02*
X43150D01*
X43000Y23000D02*
Y23300D01*
X41040Y23150D02*
X41340D01*
X41190Y23000D02*
Y23300D01*
X39230Y23150D02*
X39530D01*
X39380Y23000D02*
Y23300D01*
X42850Y26770D02*
X43150D01*
X43000Y26620D02*
Y26920D01*
X39230Y26770D02*
X39530D01*
X39380Y26620D02*
Y26920D01*
X41040Y26770D02*
X41340D01*
X41190Y26620D02*
Y26920D01*
X39230Y24960D02*
X39530D01*
X39380Y24810D02*
Y25110D01*
X42850Y24960D02*
X43150D01*
X43000Y24810D02*
Y25110D01*
X41040Y24960D02*
X41340D01*
X41190Y24810D02*
Y25110D01*
X36370Y27380D02*
X36670D01*
X36520Y27230D02*
Y27530D01*
X36370Y28650D02*
X36670D01*
X36520Y28500D02*
Y28800D01*
X60550Y31000D02*
X60850D01*
X60700Y30850D02*
Y31150D01*
X75475Y28825D02*
X75775D01*
X75625Y28675D02*
Y28975D01*
X52705Y30700D02*
X53005D01*
X52855Y30550D02*
Y30850D01*
X36370Y29920D02*
X36670D01*
X36520Y29770D02*
Y30070D01*
X26975Y33075D02*
X27275D01*
X27125Y32925D02*
Y33225D01*
M02*
