%TF.GenerationSoftware,KiCad,Pcbnew,5.1.7-a382d34a8~87~ubuntu18.04.1*%
%TF.CreationDate,2021-06-03T09:48:45+05:30*%
%TF.ProjectId,Single_scale_v3_kicad,53696e67-6c65-45f7-9363-616c655f7633,rev?*%
%TF.SameCoordinates,Original*%
%TF.FileFunction,Soldermask,Bot*%
%TF.FilePolarity,Negative*%
%FSLAX46Y46*%
G04 Gerber Fmt 4.6, Leading zero omitted, Abs format (unit mm)*
G04 Created by KiCad (PCBNEW 5.1.7-a382d34a8~87~ubuntu18.04.1) date 2021-06-03 09:48:45*
%MOMM*%
%LPD*%
G01*
G04 APERTURE LIST*
%ADD10O,1.700000X2.000000*%
%ADD11O,1.200000X1.750000*%
%ADD12O,1.750000X1.200000*%
%ADD13R,1.700000X1.700000*%
%ADD14O,1.700000X1.700000*%
%ADD15C,0.300000*%
G04 APERTURE END LIST*
D10*
%TO.C,J15*%
X140700000Y-99000000D03*
G36*
G01*
X137350000Y-99750000D02*
X137350000Y-98250000D01*
G75*
G02*
X137600000Y-98000000I250000J0D01*
G01*
X138800000Y-98000000D01*
G75*
G02*
X139050000Y-98250000I0J-250000D01*
G01*
X139050000Y-99750000D01*
G75*
G02*
X138800000Y-100000000I-250000J0D01*
G01*
X137600000Y-100000000D01*
G75*
G02*
X137350000Y-99750000I0J250000D01*
G01*
G37*
%TD*%
%TO.C,J11*%
X114400000Y-99000000D03*
G36*
G01*
X111050000Y-99750000D02*
X111050000Y-98250000D01*
G75*
G02*
X111300000Y-98000000I250000J0D01*
G01*
X112500000Y-98000000D01*
G75*
G02*
X112750000Y-98250000I0J-250000D01*
G01*
X112750000Y-99750000D01*
G75*
G02*
X112500000Y-100000000I-250000J0D01*
G01*
X111300000Y-100000000D01*
G75*
G02*
X111050000Y-99750000I0J250000D01*
G01*
G37*
%TD*%
%TO.C,J10*%
X150600000Y-99060000D03*
G36*
G01*
X147250000Y-99810000D02*
X147250000Y-98310000D01*
G75*
G02*
X147500000Y-98060000I250000J0D01*
G01*
X148700000Y-98060000D01*
G75*
G02*
X148950000Y-98310000I0J-250000D01*
G01*
X148950000Y-99810000D01*
G75*
G02*
X148700000Y-100060000I-250000J0D01*
G01*
X147500000Y-100060000D01*
G75*
G02*
X147250000Y-99810000I0J250000D01*
G01*
G37*
%TD*%
D11*
%TO.C,J6*%
X121700000Y-100000000D03*
X123700000Y-100000000D03*
X125700000Y-100000000D03*
X127700000Y-100000000D03*
G36*
G01*
X130300000Y-99374999D02*
X130300000Y-100625001D01*
G75*
G02*
X130050001Y-100875000I-249999J0D01*
G01*
X129349999Y-100875000D01*
G75*
G02*
X129100000Y-100625001I0J249999D01*
G01*
X129100000Y-99374999D01*
G75*
G02*
X129349999Y-99125000I249999J0D01*
G01*
X130050001Y-99125000D01*
G75*
G02*
X130300000Y-99374999I0J-249999D01*
G01*
G37*
%TD*%
D10*
%TO.C,J2*%
X103600000Y-98900000D03*
G36*
G01*
X100250000Y-99650000D02*
X100250000Y-98150000D01*
G75*
G02*
X100500000Y-97900000I250000J0D01*
G01*
X101700000Y-97900000D01*
G75*
G02*
X101950000Y-98150000I0J-250000D01*
G01*
X101950000Y-99650000D01*
G75*
G02*
X101700000Y-99900000I-250000J0D01*
G01*
X100500000Y-99900000D01*
G75*
G02*
X100250000Y-99650000I0J250000D01*
G01*
G37*
%TD*%
D12*
%TO.C,J1*%
X82500000Y-73100000D03*
X82500000Y-75100000D03*
X82500000Y-77100000D03*
G36*
G01*
X83125001Y-79700000D02*
X81874999Y-79700000D01*
G75*
G02*
X81625000Y-79450001I0J249999D01*
G01*
X81625000Y-78749999D01*
G75*
G02*
X81874999Y-78500000I249999J0D01*
G01*
X83125001Y-78500000D01*
G75*
G02*
X83375000Y-78749999I0J-249999D01*
G01*
X83375000Y-79450001D01*
G75*
G02*
X83125001Y-79700000I-249999J0D01*
G01*
G37*
%TD*%
D13*
%TO.C,J3*%
X112450000Y-83520000D03*
D14*
X112450000Y-86060000D03*
X112450000Y-88600000D03*
X112450000Y-91140000D03*
X112450000Y-93680000D03*
%TD*%
D13*
%TO.C,J4*%
X88400000Y-92500000D03*
D14*
X85860000Y-92500000D03*
%TD*%
D13*
%TO.C,J5*%
X93200000Y-92500000D03*
D14*
X95740000Y-92500000D03*
%TD*%
D13*
%TO.C,J9*%
X150000000Y-66600000D03*
D14*
X150000000Y-69140000D03*
X150000000Y-71680000D03*
X150000000Y-74220000D03*
X150000000Y-76760000D03*
X150000000Y-79300000D03*
%TD*%
%TO.C,J12*%
X156972000Y-83700000D03*
D13*
X154432000Y-83700000D03*
%TD*%
%TO.C,J13*%
X154432000Y-87500000D03*
D14*
X156972000Y-87500000D03*
%TD*%
%TO.C,J14*%
X156900000Y-91500000D03*
D13*
X154360000Y-91500000D03*
%TD*%
D15*
%TO.C,U5*%
X134082500Y-77755000D03*
X135917500Y-77755000D03*
X133165000Y-78672500D03*
X135000000Y-78672500D03*
X136835000Y-78672500D03*
X134082500Y-79590000D03*
X135917500Y-79590000D03*
X133165000Y-80507500D03*
X135000000Y-80507500D03*
X136835000Y-80507500D03*
X134082500Y-81425000D03*
X135917500Y-81425000D03*
%TD*%
M02*
