M48
; DRILL file {KiCad 5.1.7-a382d34a8~87~ubuntu18.04.1} date Thu Jun  3 09:48:48 2021
; FORMAT={-:-/ absolute / inch / decimal}
; #@! TF.CreationDate,2021-06-03T09:48:48+05:30
; #@! TF.GenerationSoftware,Kicad,Pcbnew,5.1.7-a382d34a8~87~ubuntu18.04.1
FMAT,2
INCH
T1C0.0079
T2C0.0157
T3C0.0295
T4C0.0394
%
G90
G05
T1
X5.2427Y-3.0973
X5.2427Y-3.1696
X5.2788Y-3.0612
X5.2788Y-3.1335
X5.2788Y-3.2057
X5.315Y-3.0973
X5.315Y-3.1696
X5.3511Y-3.0612
X5.3511Y-3.1335
X5.3511Y-3.2057
X5.3872Y-3.0973
X5.3872Y-3.1696
T2
X3.3071Y-3.4528
X3.315Y-3.5354
X3.4193Y-3.3898
X3.752Y-3.4803
X4.0157Y-2.7421
X4.0315Y-3.2244
X4.0669Y-3.189
X4.1299Y-3.4449
X4.1791Y-3.5689
X4.2028Y-3.6634
X4.2992Y-3.2913
X4.6622Y-2.8827
X4.7126Y-2.8819
X4.7402Y-2.9488
X4.7579Y-2.8524
X4.7598Y-2.687
X4.8209Y-3.124
X4.937Y-3.3307
X4.9488Y-3.2756
X5.7539Y-3.4783
X5.7618Y-2.874
T3
X4.7913Y-3.937
X4.8701Y-3.937
X4.9488Y-3.937
X5.0276Y-3.937
X5.1063Y-3.937
X3.248Y-2.878
X3.248Y-2.9567
X3.248Y-3.0354
X3.248Y-3.1142
T4
X6.08Y-3.2953
X6.18Y-3.2953
X4.4055Y-3.8976
X4.5039Y-3.8976
X3.9803Y-3.8937
X4.0787Y-3.8937
X5.4409Y-3.8976
X5.5394Y-3.8976
X6.0772Y-3.6024
X6.1772Y-3.6024
X3.6693Y-3.6417
X3.7693Y-3.6417
X6.08Y-3.4449
X6.18Y-3.4449
X3.3803Y-3.6417
X3.4803Y-3.6417
X4.4272Y-3.2882
X4.4272Y-3.3882
X4.4272Y-3.4882
X4.4272Y-3.5882
X4.4272Y-3.6882
X5.9055Y-2.622
X5.9055Y-2.722
X5.9055Y-2.822
X5.9055Y-2.922
X5.9055Y-3.022
X5.9055Y-3.122
X5.8307Y-3.9
X5.9291Y-3.9
T0
M30
