%TF.GenerationSoftware,KiCad,Pcbnew,5.1.7-a382d34a8~87~ubuntu18.04.1*%
%TF.CreationDate,2021-06-03T09:48:45+05:30*%
%TF.ProjectId,Single_scale_v3_kicad,53696e67-6c65-45f7-9363-616c655f7633,rev?*%
%TF.SameCoordinates,Original*%
%TF.FileFunction,Paste,Top*%
%TF.FilePolarity,Positive*%
%FSLAX46Y46*%
G04 Gerber Fmt 4.6, Leading zero omitted, Abs format (unit mm)*
G04 Created by KiCad (PCBNEW 5.1.7-a382d34a8~87~ubuntu18.04.1) date 2021-06-03 09:48:45*
%MOMM*%
%LPD*%
G01*
G04 APERTURE LIST*
%ADD10R,1.300000X0.700000*%
%ADD11R,1.060000X0.650000*%
%ADD12R,0.650000X1.060000*%
%ADD13R,1.300000X0.900000*%
%ADD14C,0.100000*%
%ADD15R,2.000000X0.900000*%
%ADD16R,0.900000X2.000000*%
%ADD17R,1.330000X1.330000*%
%ADD18R,0.900000X0.800000*%
%ADD19R,2.500000X1.800000*%
%ADD20R,1.500000X4.200000*%
G04 APERTURE END LIST*
%TO.C,C1*%
G36*
G01*
X87250000Y-71975000D02*
X87750000Y-71975000D01*
G75*
G02*
X87975000Y-72200000I0J-225000D01*
G01*
X87975000Y-72650000D01*
G75*
G02*
X87750000Y-72875000I-225000J0D01*
G01*
X87250000Y-72875000D01*
G75*
G02*
X87025000Y-72650000I0J225000D01*
G01*
X87025000Y-72200000D01*
G75*
G02*
X87250000Y-71975000I225000J0D01*
G01*
G37*
G36*
G01*
X87250000Y-70425000D02*
X87750000Y-70425000D01*
G75*
G02*
X87975000Y-70650000I0J-225000D01*
G01*
X87975000Y-71100000D01*
G75*
G02*
X87750000Y-71325000I-225000J0D01*
G01*
X87250000Y-71325000D01*
G75*
G02*
X87025000Y-71100000I0J225000D01*
G01*
X87025000Y-70650000D01*
G75*
G02*
X87250000Y-70425000I225000J0D01*
G01*
G37*
%TD*%
%TO.C,C2*%
G36*
G01*
X88800000Y-74250000D02*
X88800000Y-73750000D01*
G75*
G02*
X89025000Y-73525000I225000J0D01*
G01*
X89475000Y-73525000D01*
G75*
G02*
X89700000Y-73750000I0J-225000D01*
G01*
X89700000Y-74250000D01*
G75*
G02*
X89475000Y-74475000I-225000J0D01*
G01*
X89025000Y-74475000D01*
G75*
G02*
X88800000Y-74250000I0J225000D01*
G01*
G37*
G36*
G01*
X90350000Y-74250000D02*
X90350000Y-73750000D01*
G75*
G02*
X90575000Y-73525000I225000J0D01*
G01*
X91025000Y-73525000D01*
G75*
G02*
X91250000Y-73750000I0J-225000D01*
G01*
X91250000Y-74250000D01*
G75*
G02*
X91025000Y-74475000I-225000J0D01*
G01*
X90575000Y-74475000D01*
G75*
G02*
X90350000Y-74250000I0J225000D01*
G01*
G37*
%TD*%
%TO.C,C3*%
G36*
G01*
X91850000Y-67325000D02*
X91350000Y-67325000D01*
G75*
G02*
X91125000Y-67100000I0J225000D01*
G01*
X91125000Y-66650000D01*
G75*
G02*
X91350000Y-66425000I225000J0D01*
G01*
X91850000Y-66425000D01*
G75*
G02*
X92075000Y-66650000I0J-225000D01*
G01*
X92075000Y-67100000D01*
G75*
G02*
X91850000Y-67325000I-225000J0D01*
G01*
G37*
G36*
G01*
X91850000Y-65775000D02*
X91350000Y-65775000D01*
G75*
G02*
X91125000Y-65550000I0J225000D01*
G01*
X91125000Y-65100000D01*
G75*
G02*
X91350000Y-64875000I225000J0D01*
G01*
X91850000Y-64875000D01*
G75*
G02*
X92075000Y-65100000I0J-225000D01*
G01*
X92075000Y-65550000D01*
G75*
G02*
X91850000Y-65775000I-225000J0D01*
G01*
G37*
%TD*%
%TO.C,C4*%
G36*
G01*
X85750000Y-88750000D02*
X85250000Y-88750000D01*
G75*
G02*
X85025000Y-88525000I0J225000D01*
G01*
X85025000Y-88075000D01*
G75*
G02*
X85250000Y-87850000I225000J0D01*
G01*
X85750000Y-87850000D01*
G75*
G02*
X85975000Y-88075000I0J-225000D01*
G01*
X85975000Y-88525000D01*
G75*
G02*
X85750000Y-88750000I-225000J0D01*
G01*
G37*
G36*
G01*
X85750000Y-87200000D02*
X85250000Y-87200000D01*
G75*
G02*
X85025000Y-86975000I0J225000D01*
G01*
X85025000Y-86525000D01*
G75*
G02*
X85250000Y-86300000I225000J0D01*
G01*
X85750000Y-86300000D01*
G75*
G02*
X85975000Y-86525000I0J-225000D01*
G01*
X85975000Y-86975000D01*
G75*
G02*
X85750000Y-87200000I-225000J0D01*
G01*
G37*
%TD*%
%TO.C,C5*%
G36*
G01*
X90400000Y-76725000D02*
X90900000Y-76725000D01*
G75*
G02*
X91125000Y-76950000I0J-225000D01*
G01*
X91125000Y-77400000D01*
G75*
G02*
X90900000Y-77625000I-225000J0D01*
G01*
X90400000Y-77625000D01*
G75*
G02*
X90175000Y-77400000I0J225000D01*
G01*
X90175000Y-76950000D01*
G75*
G02*
X90400000Y-76725000I225000J0D01*
G01*
G37*
G36*
G01*
X90400000Y-75175000D02*
X90900000Y-75175000D01*
G75*
G02*
X91125000Y-75400000I0J-225000D01*
G01*
X91125000Y-75850000D01*
G75*
G02*
X90900000Y-76075000I-225000J0D01*
G01*
X90400000Y-76075000D01*
G75*
G02*
X90175000Y-75850000I0J225000D01*
G01*
X90175000Y-75400000D01*
G75*
G02*
X90400000Y-75175000I225000J0D01*
G01*
G37*
%TD*%
%TO.C,C6*%
G36*
G01*
X122300000Y-75050000D02*
X121800000Y-75050000D01*
G75*
G02*
X121575000Y-74825000I0J225000D01*
G01*
X121575000Y-74375000D01*
G75*
G02*
X121800000Y-74150000I225000J0D01*
G01*
X122300000Y-74150000D01*
G75*
G02*
X122525000Y-74375000I0J-225000D01*
G01*
X122525000Y-74825000D01*
G75*
G02*
X122300000Y-75050000I-225000J0D01*
G01*
G37*
G36*
G01*
X122300000Y-73500000D02*
X121800000Y-73500000D01*
G75*
G02*
X121575000Y-73275000I0J225000D01*
G01*
X121575000Y-72825000D01*
G75*
G02*
X121800000Y-72600000I225000J0D01*
G01*
X122300000Y-72600000D01*
G75*
G02*
X122525000Y-72825000I0J-225000D01*
G01*
X122525000Y-73275000D01*
G75*
G02*
X122300000Y-73500000I-225000J0D01*
G01*
G37*
%TD*%
%TO.C,C7*%
G36*
G01*
X124400000Y-70375000D02*
X123900000Y-70375000D01*
G75*
G02*
X123675000Y-70150000I0J225000D01*
G01*
X123675000Y-69700000D01*
G75*
G02*
X123900000Y-69475000I225000J0D01*
G01*
X124400000Y-69475000D01*
G75*
G02*
X124625000Y-69700000I0J-225000D01*
G01*
X124625000Y-70150000D01*
G75*
G02*
X124400000Y-70375000I-225000J0D01*
G01*
G37*
G36*
G01*
X124400000Y-71925000D02*
X123900000Y-71925000D01*
G75*
G02*
X123675000Y-71700000I0J225000D01*
G01*
X123675000Y-71250000D01*
G75*
G02*
X123900000Y-71025000I225000J0D01*
G01*
X124400000Y-71025000D01*
G75*
G02*
X124625000Y-71250000I0J-225000D01*
G01*
X124625000Y-71700000D01*
G75*
G02*
X124400000Y-71925000I-225000J0D01*
G01*
G37*
%TD*%
%TO.C,C8*%
G36*
G01*
X122600000Y-71900000D02*
X122100000Y-71900000D01*
G75*
G02*
X121875000Y-71675000I0J225000D01*
G01*
X121875000Y-71225000D01*
G75*
G02*
X122100000Y-71000000I225000J0D01*
G01*
X122600000Y-71000000D01*
G75*
G02*
X122825000Y-71225000I0J-225000D01*
G01*
X122825000Y-71675000D01*
G75*
G02*
X122600000Y-71900000I-225000J0D01*
G01*
G37*
G36*
G01*
X122600000Y-70350000D02*
X122100000Y-70350000D01*
G75*
G02*
X121875000Y-70125000I0J225000D01*
G01*
X121875000Y-69675000D01*
G75*
G02*
X122100000Y-69450000I225000J0D01*
G01*
X122600000Y-69450000D01*
G75*
G02*
X122825000Y-69675000I0J-225000D01*
G01*
X122825000Y-70125000D01*
G75*
G02*
X122600000Y-70350000I-225000J0D01*
G01*
G37*
%TD*%
%TO.C,C9*%
G36*
G01*
X107200000Y-85700000D02*
X106700000Y-85700000D01*
G75*
G02*
X106475000Y-85475000I0J225000D01*
G01*
X106475000Y-85025000D01*
G75*
G02*
X106700000Y-84800000I225000J0D01*
G01*
X107200000Y-84800000D01*
G75*
G02*
X107425000Y-85025000I0J-225000D01*
G01*
X107425000Y-85475000D01*
G75*
G02*
X107200000Y-85700000I-225000J0D01*
G01*
G37*
G36*
G01*
X107200000Y-84150000D02*
X106700000Y-84150000D01*
G75*
G02*
X106475000Y-83925000I0J225000D01*
G01*
X106475000Y-83475000D01*
G75*
G02*
X106700000Y-83250000I225000J0D01*
G01*
X107200000Y-83250000D01*
G75*
G02*
X107425000Y-83475000I0J-225000D01*
G01*
X107425000Y-83925000D01*
G75*
G02*
X107200000Y-84150000I-225000J0D01*
G01*
G37*
%TD*%
%TO.C,C10*%
G36*
G01*
X105000000Y-89350000D02*
X105500000Y-89350000D01*
G75*
G02*
X105725000Y-89575000I0J-225000D01*
G01*
X105725000Y-90025000D01*
G75*
G02*
X105500000Y-90250000I-225000J0D01*
G01*
X105000000Y-90250000D01*
G75*
G02*
X104775000Y-90025000I0J225000D01*
G01*
X104775000Y-89575000D01*
G75*
G02*
X105000000Y-89350000I225000J0D01*
G01*
G37*
G36*
G01*
X105000000Y-87800000D02*
X105500000Y-87800000D01*
G75*
G02*
X105725000Y-88025000I0J-225000D01*
G01*
X105725000Y-88475000D01*
G75*
G02*
X105500000Y-88700000I-225000J0D01*
G01*
X105000000Y-88700000D01*
G75*
G02*
X104775000Y-88475000I0J225000D01*
G01*
X104775000Y-88025000D01*
G75*
G02*
X105000000Y-87800000I225000J0D01*
G01*
G37*
%TD*%
%TO.C,C11*%
G36*
G01*
X119650000Y-70400000D02*
X119150000Y-70400000D01*
G75*
G02*
X118925000Y-70175000I0J225000D01*
G01*
X118925000Y-69725000D01*
G75*
G02*
X119150000Y-69500000I225000J0D01*
G01*
X119650000Y-69500000D01*
G75*
G02*
X119875000Y-69725000I0J-225000D01*
G01*
X119875000Y-70175000D01*
G75*
G02*
X119650000Y-70400000I-225000J0D01*
G01*
G37*
G36*
G01*
X119650000Y-71950000D02*
X119150000Y-71950000D01*
G75*
G02*
X118925000Y-71725000I0J225000D01*
G01*
X118925000Y-71275000D01*
G75*
G02*
X119150000Y-71050000I225000J0D01*
G01*
X119650000Y-71050000D01*
G75*
G02*
X119875000Y-71275000I0J-225000D01*
G01*
X119875000Y-71725000D01*
G75*
G02*
X119650000Y-71950000I-225000J0D01*
G01*
G37*
%TD*%
%TO.C,C12*%
G36*
G01*
X118250000Y-88550000D02*
X118250000Y-88050000D01*
G75*
G02*
X118475000Y-87825000I225000J0D01*
G01*
X118925000Y-87825000D01*
G75*
G02*
X119150000Y-88050000I0J-225000D01*
G01*
X119150000Y-88550000D01*
G75*
G02*
X118925000Y-88775000I-225000J0D01*
G01*
X118475000Y-88775000D01*
G75*
G02*
X118250000Y-88550000I0J225000D01*
G01*
G37*
G36*
G01*
X116700000Y-88550000D02*
X116700000Y-88050000D01*
G75*
G02*
X116925000Y-87825000I225000J0D01*
G01*
X117375000Y-87825000D01*
G75*
G02*
X117600000Y-88050000I0J-225000D01*
G01*
X117600000Y-88550000D01*
G75*
G02*
X117375000Y-88775000I-225000J0D01*
G01*
X116925000Y-88775000D01*
G75*
G02*
X116700000Y-88550000I0J225000D01*
G01*
G37*
%TD*%
%TO.C,C13*%
G36*
G01*
X121600000Y-81200000D02*
X121600000Y-80700000D01*
G75*
G02*
X121825000Y-80475000I225000J0D01*
G01*
X122275000Y-80475000D01*
G75*
G02*
X122500000Y-80700000I0J-225000D01*
G01*
X122500000Y-81200000D01*
G75*
G02*
X122275000Y-81425000I-225000J0D01*
G01*
X121825000Y-81425000D01*
G75*
G02*
X121600000Y-81200000I0J225000D01*
G01*
G37*
G36*
G01*
X123150000Y-81200000D02*
X123150000Y-80700000D01*
G75*
G02*
X123375000Y-80475000I225000J0D01*
G01*
X123825000Y-80475000D01*
G75*
G02*
X124050000Y-80700000I0J-225000D01*
G01*
X124050000Y-81200000D01*
G75*
G02*
X123825000Y-81425000I-225000J0D01*
G01*
X123375000Y-81425000D01*
G75*
G02*
X123150000Y-81200000I0J225000D01*
G01*
G37*
%TD*%
%TO.C,C14*%
G36*
G01*
X104100000Y-69250000D02*
X104100000Y-68150000D01*
G75*
G02*
X104350000Y-67900000I250000J0D01*
G01*
X107350000Y-67900000D01*
G75*
G02*
X107600000Y-68150000I0J-250000D01*
G01*
X107600000Y-69250000D01*
G75*
G02*
X107350000Y-69500000I-250000J0D01*
G01*
X104350000Y-69500000D01*
G75*
G02*
X104100000Y-69250000I0J250000D01*
G01*
G37*
G36*
G01*
X109700000Y-69250000D02*
X109700000Y-68150000D01*
G75*
G02*
X109950000Y-67900000I250000J0D01*
G01*
X112950000Y-67900000D01*
G75*
G02*
X113200000Y-68150000I0J-250000D01*
G01*
X113200000Y-69250000D01*
G75*
G02*
X112950000Y-69500000I-250000J0D01*
G01*
X109950000Y-69500000D01*
G75*
G02*
X109700000Y-69250000I0J250000D01*
G01*
G37*
%TD*%
%TO.C,R1*%
G36*
G01*
X97550000Y-86525000D02*
X97550000Y-87075000D01*
G75*
G02*
X97350000Y-87275000I-200000J0D01*
G01*
X96950000Y-87275000D01*
G75*
G02*
X96750000Y-87075000I0J200000D01*
G01*
X96750000Y-86525000D01*
G75*
G02*
X96950000Y-86325000I200000J0D01*
G01*
X97350000Y-86325000D01*
G75*
G02*
X97550000Y-86525000I0J-200000D01*
G01*
G37*
G36*
G01*
X95900000Y-86525000D02*
X95900000Y-87075000D01*
G75*
G02*
X95700000Y-87275000I-200000J0D01*
G01*
X95300000Y-87275000D01*
G75*
G02*
X95100000Y-87075000I0J200000D01*
G01*
X95100000Y-86525000D01*
G75*
G02*
X95300000Y-86325000I200000J0D01*
G01*
X95700000Y-86325000D01*
G75*
G02*
X95900000Y-86525000I0J-200000D01*
G01*
G37*
%TD*%
%TO.C,R2*%
G36*
G01*
X95200000Y-85225000D02*
X95200000Y-84675000D01*
G75*
G02*
X95400000Y-84475000I200000J0D01*
G01*
X95800000Y-84475000D01*
G75*
G02*
X96000000Y-84675000I0J-200000D01*
G01*
X96000000Y-85225000D01*
G75*
G02*
X95800000Y-85425000I-200000J0D01*
G01*
X95400000Y-85425000D01*
G75*
G02*
X95200000Y-85225000I0J200000D01*
G01*
G37*
G36*
G01*
X96850000Y-85225000D02*
X96850000Y-84675000D01*
G75*
G02*
X97050000Y-84475000I200000J0D01*
G01*
X97450000Y-84475000D01*
G75*
G02*
X97650000Y-84675000I0J-200000D01*
G01*
X97650000Y-85225000D01*
G75*
G02*
X97450000Y-85425000I-200000J0D01*
G01*
X97050000Y-85425000D01*
G75*
G02*
X96850000Y-85225000I0J200000D01*
G01*
G37*
%TD*%
%TO.C,R3*%
G36*
G01*
X88750000Y-71175000D02*
X88750000Y-70625000D01*
G75*
G02*
X88950000Y-70425000I200000J0D01*
G01*
X89350000Y-70425000D01*
G75*
G02*
X89550000Y-70625000I0J-200000D01*
G01*
X89550000Y-71175000D01*
G75*
G02*
X89350000Y-71375000I-200000J0D01*
G01*
X88950000Y-71375000D01*
G75*
G02*
X88750000Y-71175000I0J200000D01*
G01*
G37*
G36*
G01*
X90400000Y-71175000D02*
X90400000Y-70625000D01*
G75*
G02*
X90600000Y-70425000I200000J0D01*
G01*
X91000000Y-70425000D01*
G75*
G02*
X91200000Y-70625000I0J-200000D01*
G01*
X91200000Y-71175000D01*
G75*
G02*
X91000000Y-71375000I-200000J0D01*
G01*
X90600000Y-71375000D01*
G75*
G02*
X90400000Y-71175000I0J200000D01*
G01*
G37*
%TD*%
%TO.C,R4*%
G36*
G01*
X89600000Y-72175000D02*
X89600000Y-72725000D01*
G75*
G02*
X89400000Y-72925000I-200000J0D01*
G01*
X89000000Y-72925000D01*
G75*
G02*
X88800000Y-72725000I0J200000D01*
G01*
X88800000Y-72175000D01*
G75*
G02*
X89000000Y-71975000I200000J0D01*
G01*
X89400000Y-71975000D01*
G75*
G02*
X89600000Y-72175000I0J-200000D01*
G01*
G37*
G36*
G01*
X91250000Y-72175000D02*
X91250000Y-72725000D01*
G75*
G02*
X91050000Y-72925000I-200000J0D01*
G01*
X90650000Y-72925000D01*
G75*
G02*
X90450000Y-72725000I0J200000D01*
G01*
X90450000Y-72175000D01*
G75*
G02*
X90650000Y-71975000I200000J0D01*
G01*
X91050000Y-71975000D01*
G75*
G02*
X91250000Y-72175000I0J-200000D01*
G01*
G37*
%TD*%
%TO.C,R5*%
G36*
G01*
X86950000Y-77575000D02*
X86950000Y-77025000D01*
G75*
G02*
X87150000Y-76825000I200000J0D01*
G01*
X87550000Y-76825000D01*
G75*
G02*
X87750000Y-77025000I0J-200000D01*
G01*
X87750000Y-77575000D01*
G75*
G02*
X87550000Y-77775000I-200000J0D01*
G01*
X87150000Y-77775000D01*
G75*
G02*
X86950000Y-77575000I0J200000D01*
G01*
G37*
G36*
G01*
X88600000Y-77575000D02*
X88600000Y-77025000D01*
G75*
G02*
X88800000Y-76825000I200000J0D01*
G01*
X89200000Y-76825000D01*
G75*
G02*
X89400000Y-77025000I0J-200000D01*
G01*
X89400000Y-77575000D01*
G75*
G02*
X89200000Y-77775000I-200000J0D01*
G01*
X88800000Y-77775000D01*
G75*
G02*
X88600000Y-77575000I0J200000D01*
G01*
G37*
%TD*%
%TO.C,R6*%
G36*
G01*
X88650000Y-75875000D02*
X88650000Y-75325000D01*
G75*
G02*
X88850000Y-75125000I200000J0D01*
G01*
X89250000Y-75125000D01*
G75*
G02*
X89450000Y-75325000I0J-200000D01*
G01*
X89450000Y-75875000D01*
G75*
G02*
X89250000Y-76075000I-200000J0D01*
G01*
X88850000Y-76075000D01*
G75*
G02*
X88650000Y-75875000I0J200000D01*
G01*
G37*
G36*
G01*
X87000000Y-75875000D02*
X87000000Y-75325000D01*
G75*
G02*
X87200000Y-75125000I200000J0D01*
G01*
X87600000Y-75125000D01*
G75*
G02*
X87800000Y-75325000I0J-200000D01*
G01*
X87800000Y-75875000D01*
G75*
G02*
X87600000Y-76075000I-200000J0D01*
G01*
X87200000Y-76075000D01*
G75*
G02*
X87000000Y-75875000I0J200000D01*
G01*
G37*
%TD*%
%TO.C,R7*%
G36*
G01*
X123875000Y-72650000D02*
X124425000Y-72650000D01*
G75*
G02*
X124625000Y-72850000I0J-200000D01*
G01*
X124625000Y-73250000D01*
G75*
G02*
X124425000Y-73450000I-200000J0D01*
G01*
X123875000Y-73450000D01*
G75*
G02*
X123675000Y-73250000I0J200000D01*
G01*
X123675000Y-72850000D01*
G75*
G02*
X123875000Y-72650000I200000J0D01*
G01*
G37*
G36*
G01*
X123875000Y-74300000D02*
X124425000Y-74300000D01*
G75*
G02*
X124625000Y-74500000I0J-200000D01*
G01*
X124625000Y-74900000D01*
G75*
G02*
X124425000Y-75100000I-200000J0D01*
G01*
X123875000Y-75100000D01*
G75*
G02*
X123675000Y-74900000I0J200000D01*
G01*
X123675000Y-74500000D01*
G75*
G02*
X123875000Y-74300000I200000J0D01*
G01*
G37*
%TD*%
%TO.C,R8*%
G36*
G01*
X85775000Y-83900000D02*
X85225000Y-83900000D01*
G75*
G02*
X85025000Y-83700000I0J200000D01*
G01*
X85025000Y-83300000D01*
G75*
G02*
X85225000Y-83100000I200000J0D01*
G01*
X85775000Y-83100000D01*
G75*
G02*
X85975000Y-83300000I0J-200000D01*
G01*
X85975000Y-83700000D01*
G75*
G02*
X85775000Y-83900000I-200000J0D01*
G01*
G37*
G36*
G01*
X85775000Y-85550000D02*
X85225000Y-85550000D01*
G75*
G02*
X85025000Y-85350000I0J200000D01*
G01*
X85025000Y-84950000D01*
G75*
G02*
X85225000Y-84750000I200000J0D01*
G01*
X85775000Y-84750000D01*
G75*
G02*
X85975000Y-84950000I0J-200000D01*
G01*
X85975000Y-85350000D01*
G75*
G02*
X85775000Y-85550000I-200000J0D01*
G01*
G37*
%TD*%
%TO.C,R9*%
G36*
G01*
X103625000Y-88550000D02*
X103075000Y-88550000D01*
G75*
G02*
X102875000Y-88350000I0J200000D01*
G01*
X102875000Y-87950000D01*
G75*
G02*
X103075000Y-87750000I200000J0D01*
G01*
X103625000Y-87750000D01*
G75*
G02*
X103825000Y-87950000I0J-200000D01*
G01*
X103825000Y-88350000D01*
G75*
G02*
X103625000Y-88550000I-200000J0D01*
G01*
G37*
G36*
G01*
X103625000Y-90200000D02*
X103075000Y-90200000D01*
G75*
G02*
X102875000Y-90000000I0J200000D01*
G01*
X102875000Y-89600000D01*
G75*
G02*
X103075000Y-89400000I200000J0D01*
G01*
X103625000Y-89400000D01*
G75*
G02*
X103825000Y-89600000I0J-200000D01*
G01*
X103825000Y-90000000D01*
G75*
G02*
X103625000Y-90200000I-200000J0D01*
G01*
G37*
%TD*%
%TO.C,R10*%
G36*
G01*
X106475000Y-87325000D02*
X107025000Y-87325000D01*
G75*
G02*
X107225000Y-87525000I0J-200000D01*
G01*
X107225000Y-87925000D01*
G75*
G02*
X107025000Y-88125000I-200000J0D01*
G01*
X106475000Y-88125000D01*
G75*
G02*
X106275000Y-87925000I0J200000D01*
G01*
X106275000Y-87525000D01*
G75*
G02*
X106475000Y-87325000I200000J0D01*
G01*
G37*
G36*
G01*
X106475000Y-88975000D02*
X107025000Y-88975000D01*
G75*
G02*
X107225000Y-89175000I0J-200000D01*
G01*
X107225000Y-89575000D01*
G75*
G02*
X107025000Y-89775000I-200000J0D01*
G01*
X106475000Y-89775000D01*
G75*
G02*
X106275000Y-89575000I0J200000D01*
G01*
X106275000Y-89175000D01*
G75*
G02*
X106475000Y-88975000I200000J0D01*
G01*
G37*
%TD*%
%TO.C,R11*%
G36*
G01*
X145875000Y-93675000D02*
X145875000Y-94225000D01*
G75*
G02*
X145675000Y-94425000I-200000J0D01*
G01*
X145275000Y-94425000D01*
G75*
G02*
X145075000Y-94225000I0J200000D01*
G01*
X145075000Y-93675000D01*
G75*
G02*
X145275000Y-93475000I200000J0D01*
G01*
X145675000Y-93475000D01*
G75*
G02*
X145875000Y-93675000I0J-200000D01*
G01*
G37*
G36*
G01*
X147525000Y-93675000D02*
X147525000Y-94225000D01*
G75*
G02*
X147325000Y-94425000I-200000J0D01*
G01*
X146925000Y-94425000D01*
G75*
G02*
X146725000Y-94225000I0J200000D01*
G01*
X146725000Y-93675000D01*
G75*
G02*
X146925000Y-93475000I200000J0D01*
G01*
X147325000Y-93475000D01*
G75*
G02*
X147525000Y-93675000I0J-200000D01*
G01*
G37*
%TD*%
%TO.C,R12*%
G36*
G01*
X150225000Y-90975000D02*
X150225000Y-90425000D01*
G75*
G02*
X150425000Y-90225000I200000J0D01*
G01*
X150825000Y-90225000D01*
G75*
G02*
X151025000Y-90425000I0J-200000D01*
G01*
X151025000Y-90975000D01*
G75*
G02*
X150825000Y-91175000I-200000J0D01*
G01*
X150425000Y-91175000D01*
G75*
G02*
X150225000Y-90975000I0J200000D01*
G01*
G37*
G36*
G01*
X148575000Y-90975000D02*
X148575000Y-90425000D01*
G75*
G02*
X148775000Y-90225000I200000J0D01*
G01*
X149175000Y-90225000D01*
G75*
G02*
X149375000Y-90425000I0J-200000D01*
G01*
X149375000Y-90975000D01*
G75*
G02*
X149175000Y-91175000I-200000J0D01*
G01*
X148775000Y-91175000D01*
G75*
G02*
X148575000Y-90975000I0J200000D01*
G01*
G37*
%TD*%
%TO.C,R13*%
G36*
G01*
X150300000Y-87775000D02*
X150300000Y-87225000D01*
G75*
G02*
X150500000Y-87025000I200000J0D01*
G01*
X150900000Y-87025000D01*
G75*
G02*
X151100000Y-87225000I0J-200000D01*
G01*
X151100000Y-87775000D01*
G75*
G02*
X150900000Y-87975000I-200000J0D01*
G01*
X150500000Y-87975000D01*
G75*
G02*
X150300000Y-87775000I0J200000D01*
G01*
G37*
G36*
G01*
X148650000Y-87775000D02*
X148650000Y-87225000D01*
G75*
G02*
X148850000Y-87025000I200000J0D01*
G01*
X149250000Y-87025000D01*
G75*
G02*
X149450000Y-87225000I0J-200000D01*
G01*
X149450000Y-87775000D01*
G75*
G02*
X149250000Y-87975000I-200000J0D01*
G01*
X148850000Y-87975000D01*
G75*
G02*
X148650000Y-87775000I0J200000D01*
G01*
G37*
%TD*%
%TO.C,R14*%
G36*
G01*
X150300000Y-84775000D02*
X150300000Y-84225000D01*
G75*
G02*
X150500000Y-84025000I200000J0D01*
G01*
X150900000Y-84025000D01*
G75*
G02*
X151100000Y-84225000I0J-200000D01*
G01*
X151100000Y-84775000D01*
G75*
G02*
X150900000Y-84975000I-200000J0D01*
G01*
X150500000Y-84975000D01*
G75*
G02*
X150300000Y-84775000I0J200000D01*
G01*
G37*
G36*
G01*
X148650000Y-84775000D02*
X148650000Y-84225000D01*
G75*
G02*
X148850000Y-84025000I200000J0D01*
G01*
X149250000Y-84025000D01*
G75*
G02*
X149450000Y-84225000I0J-200000D01*
G01*
X149450000Y-84775000D01*
G75*
G02*
X149250000Y-84975000I-200000J0D01*
G01*
X148850000Y-84975000D01*
G75*
G02*
X148650000Y-84775000I0J200000D01*
G01*
G37*
%TD*%
%TO.C,R15*%
G36*
G01*
X120425000Y-78675000D02*
X119875000Y-78675000D01*
G75*
G02*
X119675000Y-78475000I0J200000D01*
G01*
X119675000Y-78075000D01*
G75*
G02*
X119875000Y-77875000I200000J0D01*
G01*
X120425000Y-77875000D01*
G75*
G02*
X120625000Y-78075000I0J-200000D01*
G01*
X120625000Y-78475000D01*
G75*
G02*
X120425000Y-78675000I-200000J0D01*
G01*
G37*
G36*
G01*
X120425000Y-77025000D02*
X119875000Y-77025000D01*
G75*
G02*
X119675000Y-76825000I0J200000D01*
G01*
X119675000Y-76425000D01*
G75*
G02*
X119875000Y-76225000I200000J0D01*
G01*
X120425000Y-76225000D01*
G75*
G02*
X120625000Y-76425000I0J-200000D01*
G01*
X120625000Y-76825000D01*
G75*
G02*
X120425000Y-77025000I-200000J0D01*
G01*
G37*
%TD*%
%TO.C,R16*%
G36*
G01*
X121775000Y-77800000D02*
X122325000Y-77800000D01*
G75*
G02*
X122525000Y-78000000I0J-200000D01*
G01*
X122525000Y-78400000D01*
G75*
G02*
X122325000Y-78600000I-200000J0D01*
G01*
X121775000Y-78600000D01*
G75*
G02*
X121575000Y-78400000I0J200000D01*
G01*
X121575000Y-78000000D01*
G75*
G02*
X121775000Y-77800000I200000J0D01*
G01*
G37*
G36*
G01*
X121775000Y-76150000D02*
X122325000Y-76150000D01*
G75*
G02*
X122525000Y-76350000I0J-200000D01*
G01*
X122525000Y-76750000D01*
G75*
G02*
X122325000Y-76950000I-200000J0D01*
G01*
X121775000Y-76950000D01*
G75*
G02*
X121575000Y-76750000I0J200000D01*
G01*
X121575000Y-76350000D01*
G75*
G02*
X121775000Y-76150000I200000J0D01*
G01*
G37*
%TD*%
%TO.C,R17*%
G36*
G01*
X123675000Y-76200000D02*
X124225000Y-76200000D01*
G75*
G02*
X124425000Y-76400000I0J-200000D01*
G01*
X124425000Y-76800000D01*
G75*
G02*
X124225000Y-77000000I-200000J0D01*
G01*
X123675000Y-77000000D01*
G75*
G02*
X123475000Y-76800000I0J200000D01*
G01*
X123475000Y-76400000D01*
G75*
G02*
X123675000Y-76200000I200000J0D01*
G01*
G37*
G36*
G01*
X123675000Y-77850000D02*
X124225000Y-77850000D01*
G75*
G02*
X124425000Y-78050000I0J-200000D01*
G01*
X124425000Y-78450000D01*
G75*
G02*
X124225000Y-78650000I-200000J0D01*
G01*
X123675000Y-78650000D01*
G75*
G02*
X123475000Y-78450000I0J200000D01*
G01*
X123475000Y-78050000D01*
G75*
G02*
X123675000Y-77850000I200000J0D01*
G01*
G37*
%TD*%
%TO.C,R18*%
G36*
G01*
X83200000Y-85825000D02*
X83200000Y-86375000D01*
G75*
G02*
X83000000Y-86575000I-200000J0D01*
G01*
X82600000Y-86575000D01*
G75*
G02*
X82400000Y-86375000I0J200000D01*
G01*
X82400000Y-85825000D01*
G75*
G02*
X82600000Y-85625000I200000J0D01*
G01*
X83000000Y-85625000D01*
G75*
G02*
X83200000Y-85825000I0J-200000D01*
G01*
G37*
G36*
G01*
X81550000Y-85825000D02*
X81550000Y-86375000D01*
G75*
G02*
X81350000Y-86575000I-200000J0D01*
G01*
X80950000Y-86575000D01*
G75*
G02*
X80750000Y-86375000I0J200000D01*
G01*
X80750000Y-85825000D01*
G75*
G02*
X80950000Y-85625000I200000J0D01*
G01*
X81350000Y-85625000D01*
G75*
G02*
X81550000Y-85825000I0J-200000D01*
G01*
G37*
%TD*%
%TO.C,R19*%
G36*
G01*
X82425000Y-88075000D02*
X82425000Y-87525000D01*
G75*
G02*
X82625000Y-87325000I200000J0D01*
G01*
X83025000Y-87325000D01*
G75*
G02*
X83225000Y-87525000I0J-200000D01*
G01*
X83225000Y-88075000D01*
G75*
G02*
X83025000Y-88275000I-200000J0D01*
G01*
X82625000Y-88275000D01*
G75*
G02*
X82425000Y-88075000I0J200000D01*
G01*
G37*
G36*
G01*
X80775000Y-88075000D02*
X80775000Y-87525000D01*
G75*
G02*
X80975000Y-87325000I200000J0D01*
G01*
X81375000Y-87325000D01*
G75*
G02*
X81575000Y-87525000I0J-200000D01*
G01*
X81575000Y-88075000D01*
G75*
G02*
X81375000Y-88275000I-200000J0D01*
G01*
X80975000Y-88275000D01*
G75*
G02*
X80775000Y-88075000I0J200000D01*
G01*
G37*
%TD*%
%TO.C,R20*%
G36*
G01*
X80750000Y-89775000D02*
X80750000Y-89225000D01*
G75*
G02*
X80950000Y-89025000I200000J0D01*
G01*
X81350000Y-89025000D01*
G75*
G02*
X81550000Y-89225000I0J-200000D01*
G01*
X81550000Y-89775000D01*
G75*
G02*
X81350000Y-89975000I-200000J0D01*
G01*
X80950000Y-89975000D01*
G75*
G02*
X80750000Y-89775000I0J200000D01*
G01*
G37*
G36*
G01*
X82400000Y-89775000D02*
X82400000Y-89225000D01*
G75*
G02*
X82600000Y-89025000I200000J0D01*
G01*
X83000000Y-89025000D01*
G75*
G02*
X83200000Y-89225000I0J-200000D01*
G01*
X83200000Y-89775000D01*
G75*
G02*
X83000000Y-89975000I-200000J0D01*
G01*
X82600000Y-89975000D01*
G75*
G02*
X82400000Y-89775000I0J200000D01*
G01*
G37*
%TD*%
D10*
%TO.C,U1*%
X93800000Y-85165000D03*
X93800000Y-83895000D03*
X93800000Y-86435000D03*
X93800000Y-87705000D03*
X88300000Y-85165000D03*
X88300000Y-83895000D03*
X88300000Y-86435000D03*
X88300000Y-87705000D03*
%TD*%
%TO.C,U2*%
G36*
G01*
X93300000Y-67255000D02*
X93300000Y-66955000D01*
G75*
G02*
X93450000Y-66805000I150000J0D01*
G01*
X94750000Y-66805000D01*
G75*
G02*
X94900000Y-66955000I0J-150000D01*
G01*
X94900000Y-67255000D01*
G75*
G02*
X94750000Y-67405000I-150000J0D01*
G01*
X93450000Y-67405000D01*
G75*
G02*
X93300000Y-67255000I0J150000D01*
G01*
G37*
G36*
G01*
X93300000Y-68525000D02*
X93300000Y-68225000D01*
G75*
G02*
X93450000Y-68075000I150000J0D01*
G01*
X94750000Y-68075000D01*
G75*
G02*
X94900000Y-68225000I0J-150000D01*
G01*
X94900000Y-68525000D01*
G75*
G02*
X94750000Y-68675000I-150000J0D01*
G01*
X93450000Y-68675000D01*
G75*
G02*
X93300000Y-68525000I0J150000D01*
G01*
G37*
G36*
G01*
X93300000Y-69795000D02*
X93300000Y-69495000D01*
G75*
G02*
X93450000Y-69345000I150000J0D01*
G01*
X94750000Y-69345000D01*
G75*
G02*
X94900000Y-69495000I0J-150000D01*
G01*
X94900000Y-69795000D01*
G75*
G02*
X94750000Y-69945000I-150000J0D01*
G01*
X93450000Y-69945000D01*
G75*
G02*
X93300000Y-69795000I0J150000D01*
G01*
G37*
G36*
G01*
X93300000Y-71065000D02*
X93300000Y-70765000D01*
G75*
G02*
X93450000Y-70615000I150000J0D01*
G01*
X94750000Y-70615000D01*
G75*
G02*
X94900000Y-70765000I0J-150000D01*
G01*
X94900000Y-71065000D01*
G75*
G02*
X94750000Y-71215000I-150000J0D01*
G01*
X93450000Y-71215000D01*
G75*
G02*
X93300000Y-71065000I0J150000D01*
G01*
G37*
G36*
G01*
X93300000Y-72335000D02*
X93300000Y-72035000D01*
G75*
G02*
X93450000Y-71885000I150000J0D01*
G01*
X94750000Y-71885000D01*
G75*
G02*
X94900000Y-72035000I0J-150000D01*
G01*
X94900000Y-72335000D01*
G75*
G02*
X94750000Y-72485000I-150000J0D01*
G01*
X93450000Y-72485000D01*
G75*
G02*
X93300000Y-72335000I0J150000D01*
G01*
G37*
G36*
G01*
X93300000Y-73605000D02*
X93300000Y-73305000D01*
G75*
G02*
X93450000Y-73155000I150000J0D01*
G01*
X94750000Y-73155000D01*
G75*
G02*
X94900000Y-73305000I0J-150000D01*
G01*
X94900000Y-73605000D01*
G75*
G02*
X94750000Y-73755000I-150000J0D01*
G01*
X93450000Y-73755000D01*
G75*
G02*
X93300000Y-73605000I0J150000D01*
G01*
G37*
G36*
G01*
X93300000Y-74875000D02*
X93300000Y-74575000D01*
G75*
G02*
X93450000Y-74425000I150000J0D01*
G01*
X94750000Y-74425000D01*
G75*
G02*
X94900000Y-74575000I0J-150000D01*
G01*
X94900000Y-74875000D01*
G75*
G02*
X94750000Y-75025000I-150000J0D01*
G01*
X93450000Y-75025000D01*
G75*
G02*
X93300000Y-74875000I0J150000D01*
G01*
G37*
G36*
G01*
X93300000Y-76145000D02*
X93300000Y-75845000D01*
G75*
G02*
X93450000Y-75695000I150000J0D01*
G01*
X94750000Y-75695000D01*
G75*
G02*
X94900000Y-75845000I0J-150000D01*
G01*
X94900000Y-76145000D01*
G75*
G02*
X94750000Y-76295000I-150000J0D01*
G01*
X93450000Y-76295000D01*
G75*
G02*
X93300000Y-76145000I0J150000D01*
G01*
G37*
G36*
G01*
X99800000Y-76145000D02*
X99800000Y-75845000D01*
G75*
G02*
X99950000Y-75695000I150000J0D01*
G01*
X101250000Y-75695000D01*
G75*
G02*
X101400000Y-75845000I0J-150000D01*
G01*
X101400000Y-76145000D01*
G75*
G02*
X101250000Y-76295000I-150000J0D01*
G01*
X99950000Y-76295000D01*
G75*
G02*
X99800000Y-76145000I0J150000D01*
G01*
G37*
G36*
G01*
X99800000Y-74875000D02*
X99800000Y-74575000D01*
G75*
G02*
X99950000Y-74425000I150000J0D01*
G01*
X101250000Y-74425000D01*
G75*
G02*
X101400000Y-74575000I0J-150000D01*
G01*
X101400000Y-74875000D01*
G75*
G02*
X101250000Y-75025000I-150000J0D01*
G01*
X99950000Y-75025000D01*
G75*
G02*
X99800000Y-74875000I0J150000D01*
G01*
G37*
G36*
G01*
X99800000Y-73605000D02*
X99800000Y-73305000D01*
G75*
G02*
X99950000Y-73155000I150000J0D01*
G01*
X101250000Y-73155000D01*
G75*
G02*
X101400000Y-73305000I0J-150000D01*
G01*
X101400000Y-73605000D01*
G75*
G02*
X101250000Y-73755000I-150000J0D01*
G01*
X99950000Y-73755000D01*
G75*
G02*
X99800000Y-73605000I0J150000D01*
G01*
G37*
G36*
G01*
X99800000Y-72335000D02*
X99800000Y-72035000D01*
G75*
G02*
X99950000Y-71885000I150000J0D01*
G01*
X101250000Y-71885000D01*
G75*
G02*
X101400000Y-72035000I0J-150000D01*
G01*
X101400000Y-72335000D01*
G75*
G02*
X101250000Y-72485000I-150000J0D01*
G01*
X99950000Y-72485000D01*
G75*
G02*
X99800000Y-72335000I0J150000D01*
G01*
G37*
G36*
G01*
X99800000Y-71065000D02*
X99800000Y-70765000D01*
G75*
G02*
X99950000Y-70615000I150000J0D01*
G01*
X101250000Y-70615000D01*
G75*
G02*
X101400000Y-70765000I0J-150000D01*
G01*
X101400000Y-71065000D01*
G75*
G02*
X101250000Y-71215000I-150000J0D01*
G01*
X99950000Y-71215000D01*
G75*
G02*
X99800000Y-71065000I0J150000D01*
G01*
G37*
G36*
G01*
X99800000Y-69795000D02*
X99800000Y-69495000D01*
G75*
G02*
X99950000Y-69345000I150000J0D01*
G01*
X101250000Y-69345000D01*
G75*
G02*
X101400000Y-69495000I0J-150000D01*
G01*
X101400000Y-69795000D01*
G75*
G02*
X101250000Y-69945000I-150000J0D01*
G01*
X99950000Y-69945000D01*
G75*
G02*
X99800000Y-69795000I0J150000D01*
G01*
G37*
G36*
G01*
X99800000Y-68525000D02*
X99800000Y-68225000D01*
G75*
G02*
X99950000Y-68075000I150000J0D01*
G01*
X101250000Y-68075000D01*
G75*
G02*
X101400000Y-68225000I0J-150000D01*
G01*
X101400000Y-68525000D01*
G75*
G02*
X101250000Y-68675000I-150000J0D01*
G01*
X99950000Y-68675000D01*
G75*
G02*
X99800000Y-68525000I0J150000D01*
G01*
G37*
G36*
G01*
X99800000Y-67255000D02*
X99800000Y-66955000D01*
G75*
G02*
X99950000Y-66805000I150000J0D01*
G01*
X101250000Y-66805000D01*
G75*
G02*
X101400000Y-66955000I0J-150000D01*
G01*
X101400000Y-67255000D01*
G75*
G02*
X101250000Y-67405000I-150000J0D01*
G01*
X99950000Y-67405000D01*
G75*
G02*
X99800000Y-67255000I0J150000D01*
G01*
G37*
%TD*%
%TO.C,U3*%
G36*
G01*
X101650000Y-92475000D02*
X101650000Y-92275000D01*
G75*
G02*
X101750000Y-92175000I100000J0D01*
G01*
X103025000Y-92175000D01*
G75*
G02*
X103125000Y-92275000I0J-100000D01*
G01*
X103125000Y-92475000D01*
G75*
G02*
X103025000Y-92575000I-100000J0D01*
G01*
X101750000Y-92575000D01*
G75*
G02*
X101650000Y-92475000I0J100000D01*
G01*
G37*
G36*
G01*
X101650000Y-93125000D02*
X101650000Y-92925000D01*
G75*
G02*
X101750000Y-92825000I100000J0D01*
G01*
X103025000Y-92825000D01*
G75*
G02*
X103125000Y-92925000I0J-100000D01*
G01*
X103125000Y-93125000D01*
G75*
G02*
X103025000Y-93225000I-100000J0D01*
G01*
X101750000Y-93225000D01*
G75*
G02*
X101650000Y-93125000I0J100000D01*
G01*
G37*
G36*
G01*
X101650000Y-93775000D02*
X101650000Y-93575000D01*
G75*
G02*
X101750000Y-93475000I100000J0D01*
G01*
X103025000Y-93475000D01*
G75*
G02*
X103125000Y-93575000I0J-100000D01*
G01*
X103125000Y-93775000D01*
G75*
G02*
X103025000Y-93875000I-100000J0D01*
G01*
X101750000Y-93875000D01*
G75*
G02*
X101650000Y-93775000I0J100000D01*
G01*
G37*
G36*
G01*
X101650000Y-94425000D02*
X101650000Y-94225000D01*
G75*
G02*
X101750000Y-94125000I100000J0D01*
G01*
X103025000Y-94125000D01*
G75*
G02*
X103125000Y-94225000I0J-100000D01*
G01*
X103125000Y-94425000D01*
G75*
G02*
X103025000Y-94525000I-100000J0D01*
G01*
X101750000Y-94525000D01*
G75*
G02*
X101650000Y-94425000I0J100000D01*
G01*
G37*
G36*
G01*
X107375000Y-94425000D02*
X107375000Y-94225000D01*
G75*
G02*
X107475000Y-94125000I100000J0D01*
G01*
X108750000Y-94125000D01*
G75*
G02*
X108850000Y-94225000I0J-100000D01*
G01*
X108850000Y-94425000D01*
G75*
G02*
X108750000Y-94525000I-100000J0D01*
G01*
X107475000Y-94525000D01*
G75*
G02*
X107375000Y-94425000I0J100000D01*
G01*
G37*
G36*
G01*
X107375000Y-93775000D02*
X107375000Y-93575000D01*
G75*
G02*
X107475000Y-93475000I100000J0D01*
G01*
X108750000Y-93475000D01*
G75*
G02*
X108850000Y-93575000I0J-100000D01*
G01*
X108850000Y-93775000D01*
G75*
G02*
X108750000Y-93875000I-100000J0D01*
G01*
X107475000Y-93875000D01*
G75*
G02*
X107375000Y-93775000I0J100000D01*
G01*
G37*
G36*
G01*
X107375000Y-93125000D02*
X107375000Y-92925000D01*
G75*
G02*
X107475000Y-92825000I100000J0D01*
G01*
X108750000Y-92825000D01*
G75*
G02*
X108850000Y-92925000I0J-100000D01*
G01*
X108850000Y-93125000D01*
G75*
G02*
X108750000Y-93225000I-100000J0D01*
G01*
X107475000Y-93225000D01*
G75*
G02*
X107375000Y-93125000I0J100000D01*
G01*
G37*
G36*
G01*
X107375000Y-92475000D02*
X107375000Y-92275000D01*
G75*
G02*
X107475000Y-92175000I100000J0D01*
G01*
X108750000Y-92175000D01*
G75*
G02*
X108850000Y-92275000I0J-100000D01*
G01*
X108850000Y-92475000D01*
G75*
G02*
X108750000Y-92575000I-100000J0D01*
G01*
X107475000Y-92575000D01*
G75*
G02*
X107375000Y-92475000I0J100000D01*
G01*
G37*
%TD*%
D11*
%TO.C,U4*%
X102550000Y-84200000D03*
X102550000Y-85150000D03*
X102550000Y-86100000D03*
X104750000Y-86100000D03*
X104750000Y-84200000D03*
X104750000Y-85150000D03*
%TD*%
D12*
%TO.C,U6*%
X117900000Y-85950000D03*
X118850000Y-85950000D03*
X119800000Y-85950000D03*
X119800000Y-83750000D03*
X117900000Y-83750000D03*
%TD*%
D13*
%TO.C,U7*%
X108750000Y-80400000D03*
X108750000Y-77400000D03*
D14*
G36*
X104800000Y-78033500D02*
G01*
X107925000Y-78033500D01*
X107925000Y-78450000D01*
X109400000Y-78450000D01*
X109400000Y-79350000D01*
X107925000Y-79350000D01*
X107925000Y-79766500D01*
X104800000Y-79766500D01*
X104800000Y-78033500D01*
G37*
%TD*%
D15*
%TO.C,U5*%
X127500000Y-72090000D03*
X127500000Y-73360000D03*
X127500000Y-74630000D03*
X127500000Y-75900000D03*
X127500000Y-77170000D03*
X127500000Y-78440000D03*
X127500000Y-79710000D03*
X127500000Y-80980000D03*
X127500000Y-82250000D03*
X127500000Y-83520000D03*
X127500000Y-84790000D03*
X127500000Y-86060000D03*
X127500000Y-87330000D03*
X127500000Y-88600000D03*
D16*
X130285000Y-89600000D03*
X131555000Y-89600000D03*
X132825000Y-89600000D03*
X134095000Y-89600000D03*
X135365000Y-89600000D03*
X136635000Y-89600000D03*
X137905000Y-89600000D03*
X139175000Y-89600000D03*
X140445000Y-89600000D03*
X141715000Y-89600000D03*
D15*
X144500000Y-88600000D03*
X144500000Y-87330000D03*
X144500000Y-86060000D03*
X144500000Y-84790000D03*
X144500000Y-83520000D03*
X144500000Y-82250000D03*
X144500000Y-80980000D03*
X144500000Y-79710000D03*
X144500000Y-78440000D03*
X144500000Y-77170000D03*
X144500000Y-75900000D03*
X144500000Y-74630000D03*
X144500000Y-73360000D03*
X144500000Y-72090000D03*
D17*
X133165000Y-77755000D03*
X135000000Y-77755000D03*
X136835000Y-77755000D03*
X133165000Y-79590000D03*
X135000000Y-79590000D03*
X136835000Y-79590000D03*
X133165000Y-81425000D03*
X135000000Y-81425000D03*
X136835000Y-81425000D03*
%TD*%
D18*
%TO.C,Q1*%
X89300000Y-68750000D03*
X89300000Y-66850000D03*
X87300000Y-67800000D03*
%TD*%
D19*
%TO.C,D1*%
X105150000Y-74150000D03*
X109150000Y-74150000D03*
%TD*%
D20*
%TO.C,L1*%
X116450000Y-75400000D03*
X112850000Y-75400000D03*
%TD*%
M02*
